G04 Layer_Color=32896*
%FSAX25Y25*%
%MOIN*%
G70*
G01*
G75*
%ADD67C,0.00984*%
%ADD68C,0.01575*%
%ADD69C,0.01000*%
%ADD70C,0.00787*%
%ADD72C,0.00800*%
D67*
X1587100Y1282400D02*
G03*
X1587100Y1282400I-0000492J0000000D01*
G01*
X1579100Y1282000D02*
G03*
X1579100Y1282000I-0000492J0000000D01*
G01*
X1532043Y1268954D02*
G03*
X1532043Y1268954I-0000492J0000000D01*
G01*
D68*
X1541394Y1273107D02*
G03*
X1541394Y1273107I-0000787J0000000D01*
G01*
D69*
X1457300Y1245300D02*
Y1250298D01*
X1454801D01*
X1453968Y1249465D01*
Y1247799D01*
X1454801Y1246966D01*
X1457300D01*
X1455634D02*
X1453968Y1245300D01*
X1451469Y1249465D02*
Y1248632D01*
X1452302D01*
X1450636D01*
X1451469D01*
Y1246133D01*
X1450636Y1245300D01*
X1448136D02*
X1446470D01*
X1447303D01*
Y1250298D01*
X1448136Y1249465D01*
X1545500Y1296998D02*
Y1292833D01*
X1544667Y1292000D01*
X1543001D01*
X1542168Y1292833D01*
Y1296998D01*
X1537169Y1292000D02*
X1540502D01*
X1537169Y1295332D01*
Y1296165D01*
X1538002Y1296998D01*
X1539669D01*
X1540502Y1296165D01*
X1568700Y1284998D02*
Y1280833D01*
X1567867Y1280000D01*
X1566201D01*
X1565368Y1280833D01*
Y1284998D01*
X1560369D02*
X1563702D01*
Y1282499D01*
X1562035Y1283332D01*
X1561202D01*
X1560369Y1282499D01*
Y1280833D01*
X1561202Y1280000D01*
X1562869D01*
X1563702Y1280833D01*
X1516700Y1259598D02*
Y1258598D01*
X1514701Y1256599D01*
X1512701Y1258598D01*
Y1259598D01*
X1514701Y1256599D02*
Y1253600D01*
X1510702D02*
X1508703D01*
X1509702D01*
Y1259598D01*
X1510702Y1258598D01*
X1604700Y1284598D02*
Y1280433D01*
X1603867Y1279600D01*
X1602201D01*
X1601368Y1280433D01*
Y1284598D01*
X1596369D02*
X1598036Y1283765D01*
X1599702Y1282099D01*
Y1280433D01*
X1598869Y1279600D01*
X1597202D01*
X1596369Y1280433D01*
Y1281266D01*
X1597202Y1282099D01*
X1599702D01*
X1498300Y1270299D02*
Y1266300D01*
X1496301D01*
X1495634Y1266967D01*
Y1269632D01*
X1496301Y1270299D01*
X1498300D01*
X1492302Y1266300D02*
Y1270299D01*
X1494301Y1268299D01*
X1491636D01*
X1499300Y1239599D02*
Y1235600D01*
X1497301D01*
X1496634Y1236267D01*
Y1238932D01*
X1497301Y1239599D01*
X1499300D01*
X1492636D02*
X1495301D01*
Y1237599D01*
X1493968Y1238266D01*
X1493302D01*
X1492636Y1237599D01*
Y1236267D01*
X1493302Y1235600D01*
X1494635D01*
X1495301Y1236267D01*
X1562734Y1265732D02*
X1563401Y1266399D01*
X1564734D01*
X1565400Y1265732D01*
Y1263066D01*
X1564734Y1262400D01*
X1563401D01*
X1562734Y1263066D01*
X1561401Y1262400D02*
X1560068D01*
X1560735D01*
Y1266399D01*
X1561401Y1265732D01*
X1558069D02*
X1557403Y1266399D01*
X1556070D01*
X1555403Y1265732D01*
Y1263066D01*
X1556070Y1262400D01*
X1557403D01*
X1558069Y1263066D01*
Y1265732D01*
X1510699Y1082900D02*
X1506700D01*
Y1084899D01*
X1507366Y1085566D01*
X1510032D01*
X1510699Y1084899D01*
Y1082900D01*
X1506700Y1089565D02*
Y1086899D01*
X1509366Y1089565D01*
X1510032D01*
X1510699Y1088898D01*
Y1087565D01*
X1510032Y1086899D01*
X1524734Y1124832D02*
X1525401Y1125499D01*
X1526733D01*
X1527400Y1124832D01*
Y1122167D01*
X1526733Y1121500D01*
X1525401D01*
X1524734Y1122167D01*
X1520735Y1125499D02*
X1523401D01*
Y1123499D01*
X1522068Y1124166D01*
X1521402D01*
X1520735Y1123499D01*
Y1122167D01*
X1521402Y1121500D01*
X1522735D01*
X1523401Y1122167D01*
X1509934Y1125332D02*
X1510601Y1125999D01*
X1511934D01*
X1512600Y1125332D01*
Y1122666D01*
X1511934Y1122000D01*
X1510601D01*
X1509934Y1122666D01*
X1505935Y1125999D02*
X1507268Y1125332D01*
X1508601Y1123999D01*
Y1122666D01*
X1507935Y1122000D01*
X1506602D01*
X1505935Y1122666D01*
Y1123333D01*
X1506602Y1123999D01*
X1508601D01*
X1497034Y1125532D02*
X1497701Y1126199D01*
X1499034D01*
X1499700Y1125532D01*
Y1122867D01*
X1499034Y1122200D01*
X1497701D01*
X1497034Y1122867D01*
X1495701Y1126199D02*
X1493036D01*
Y1125532D01*
X1495701Y1122867D01*
Y1122200D01*
D70*
X1529900Y1107600D02*
Y1110750D01*
X1517900Y1107650D02*
Y1110800D01*
X1493750Y1107619D02*
Y1109981D01*
X1500050Y1107619D02*
Y1109981D01*
X1493750D02*
X1500050D01*
X1493750Y1109233D02*
X1500050D01*
X1514500Y1107600D02*
Y1110750D01*
X1502500Y1107650D02*
Y1110800D01*
X1493539Y1080210D02*
Y1092415D01*
X1522870D02*
X1524642Y1090643D01*
X1522870Y1080210D02*
X1524642Y1081982D01*
Y1090643D01*
X1493539Y1092415D02*
X1503776D01*
X1493539Y1080210D02*
X1503776D01*
X1513224D02*
X1522870D01*
X1513224Y1092415D02*
X1522870D01*
X1488885Y1253239D02*
X1501090D01*
X1488885Y1282570D02*
X1490657Y1284342D01*
X1499318D02*
X1501090Y1282570D01*
X1490657Y1284342D02*
X1499318D01*
X1488885Y1253239D02*
Y1263476D01*
X1501090Y1253239D02*
Y1263476D01*
Y1272924D02*
Y1282570D01*
X1488885Y1272924D02*
Y1282570D01*
X1489110Y1252861D02*
X1501315D01*
X1499543Y1221758D02*
X1501315Y1223530D01*
X1489110D02*
X1490882Y1221758D01*
X1499543D01*
X1501315Y1242624D02*
Y1252861D01*
X1489110Y1242624D02*
Y1252861D01*
Y1223530D02*
Y1233176D01*
X1501315Y1223530D02*
Y1233176D01*
X1585058Y1284000D02*
X1592800D01*
X1585058Y1280100D02*
X1592800D01*
X1585058D02*
Y1284000D01*
X1592800Y1280100D02*
Y1284000D01*
X1468533Y1244550D02*
Y1250850D01*
X1469281Y1244550D02*
Y1250850D01*
X1466919Y1244550D02*
X1469281D01*
X1466919Y1250850D02*
X1469281D01*
X1504200Y1233300D02*
Y1279300D01*
X1522600Y1233300D02*
Y1279300D01*
X1572400Y1280400D02*
Y1284200D01*
X1580142Y1280400D02*
Y1284200D01*
X1572400D02*
X1580142D01*
X1572400Y1280400D02*
X1580142D01*
X1537457Y1289643D02*
X1544543D01*
X1537457Y1269958D02*
X1544543D01*
Y1289643D01*
X1537457Y1269958D02*
Y1289643D01*
X1542919Y1261350D02*
X1545281D01*
X1542919Y1267650D02*
X1545281D01*
X1542919Y1261350D02*
Y1267650D01*
X1543667Y1261350D02*
Y1267650D01*
D72*
X1504200Y1279300D02*
X1508500D01*
X1518300D02*
X1522600D01*
X1518300Y1233300D02*
X1522600D01*
X1504200D02*
X1508500D01*
M02*
