G04 Layer_Color=128*
%FSAX24Y24*%
%MOIN*%
G70*
G01*
G75*
%ADD71C,0.0050*%
D71*
X-013665Y-007310D02*
X-013215D01*
X-013440Y-007535D02*
Y-007085D01*
X-013665Y-006310D02*
X-013215D01*
X-013440Y-006535D02*
Y-006085D01*
X-014806Y-012809D02*
X-014356D01*
X-014581Y-013034D02*
Y-012584D01*
X-013806Y-012809D02*
X-013356D01*
X-013581Y-013034D02*
Y-012584D01*
X-012806Y-012809D02*
X-012356D01*
X-012581Y-013034D02*
Y-012584D01*
X-011806Y-012809D02*
X-011356D01*
X-011581Y-013034D02*
Y-012584D01*
X-014796Y-001009D02*
X-014346D01*
X-014571Y-001234D02*
Y-000784D01*
X-013796Y-001009D02*
X-013346D01*
X-013571Y-001234D02*
Y-000784D01*
X-012796Y-001009D02*
X-012346D01*
X-012571Y-001234D02*
Y-000784D01*
X-011796Y-001009D02*
X-011346D01*
X-011571Y-001234D02*
Y-000784D01*
X-016105Y-001970D02*
X-015655D01*
X-015880Y-002195D02*
Y-001745D01*
X-016105Y-000970D02*
X-015655D01*
X-015880Y-001195D02*
Y-000745D01*
X-006996Y-001009D02*
X-006546D01*
X-006771Y-001234D02*
Y-000784D01*
X-007996Y-001009D02*
X-007546D01*
X-007771Y-001234D02*
Y-000784D01*
X-008996Y-001009D02*
X-008546D01*
X-008771Y-001234D02*
Y-000784D01*
X-009996Y-001009D02*
X-009546D01*
X-009771Y-001234D02*
Y-000784D01*
X-003665Y-001000D02*
X-003215D01*
X-003440Y-001225D02*
Y-000775D01*
X-004665Y-001000D02*
X-004215D01*
X-004440Y-001225D02*
Y-000775D01*
X-005665Y-001000D02*
X-005215D01*
X-005440Y-001225D02*
Y-000775D01*
X-019504Y-020084D02*
X-018716D01*
X-019110Y-020478D02*
Y-019690D01*
X-019504Y-021614D02*
X-018716D01*
X-019110Y-022008D02*
Y-021220D01*
X-018325Y-019844D02*
X-017735D01*
X-018030Y-020139D02*
Y-019549D01*
X-018325Y-021824D02*
X-017735D01*
X-018030Y-022119D02*
Y-021529D01*
X-004675Y-012820D02*
X-004225D01*
X-004450Y-013045D02*
Y-012595D01*
X-005675Y-012820D02*
X-005225D01*
X-005450Y-013045D02*
Y-012595D01*
X-006675Y-012820D02*
X-006225D01*
X-006450Y-013045D02*
Y-012595D01*
X-007675Y-012820D02*
X-007225D01*
X-007450Y-013045D02*
Y-012595D01*
X-008675Y-012820D02*
X-008225D01*
X-008450Y-013045D02*
Y-012595D01*
X-009675Y-012820D02*
X-009225D01*
X-009450Y-013045D02*
Y-012595D01*
X-021205Y-015460D02*
X-020755D01*
X-020980Y-015685D02*
Y-015235D01*
X-020205Y-015460D02*
X-019755D01*
X-019980Y-015685D02*
Y-015235D01*
X-019205Y-015460D02*
X-018755D01*
X-018980Y-015685D02*
Y-015235D01*
X-018205Y-015460D02*
X-017755D01*
X-017980Y-015685D02*
Y-015235D01*
X-018205Y-011460D02*
X-017755D01*
X-017980Y-011685D02*
Y-011235D01*
X-019205Y-011460D02*
X-018755D01*
X-018980Y-011685D02*
Y-011235D01*
X-020205Y-011460D02*
X-019755D01*
X-019980Y-011685D02*
Y-011235D01*
X-021205Y-011460D02*
X-020755D01*
X-020980Y-011685D02*
Y-011235D01*
X-018205Y-007460D02*
X-017755D01*
X-017980Y-007685D02*
Y-007235D01*
X-019205Y-007460D02*
X-018755D01*
X-018980Y-007685D02*
Y-007235D01*
X-020205Y-007460D02*
X-019755D01*
X-019980Y-007685D02*
Y-007235D01*
X-021205Y-007460D02*
X-020755D01*
X-020980Y-007685D02*
Y-007235D01*
X-018205Y-003460D02*
X-017755D01*
X-017980Y-003685D02*
Y-003235D01*
X-019205Y-003460D02*
X-018755D01*
X-018980Y-003685D02*
Y-003235D01*
X-020205Y-003460D02*
X-019755D01*
X-019980Y-003685D02*
Y-003235D01*
X-021205Y-003460D02*
X-020755D01*
X-020980Y-003685D02*
Y-003235D01*
X-018205Y-001460D02*
X-017755D01*
X-017980Y-001685D02*
Y-001235D01*
X-019205Y-001460D02*
X-018755D01*
X-018980Y-001685D02*
Y-001235D01*
X-020205Y-001460D02*
X-019755D01*
X-019980Y-001685D02*
Y-001235D01*
X-021205Y-001460D02*
X-020755D01*
X-020980Y-001685D02*
Y-001235D01*
X-018205Y-013460D02*
X-017755D01*
X-017980Y-013685D02*
Y-013235D01*
X-019205Y-013460D02*
X-018755D01*
X-018980Y-013685D02*
Y-013235D01*
X-020205Y-013460D02*
X-019755D01*
X-019980Y-013685D02*
Y-013235D01*
X-021205Y-013460D02*
X-020755D01*
X-020980Y-013685D02*
Y-013235D01*
X-018205Y-009460D02*
X-017755D01*
X-017980Y-009685D02*
Y-009235D01*
X-019205Y-009460D02*
X-018755D01*
X-018980Y-009685D02*
Y-009235D01*
X-020205Y-009460D02*
X-019755D01*
X-019980Y-009685D02*
Y-009235D01*
X-021205Y-009460D02*
X-020755D01*
X-020980Y-009685D02*
Y-009235D01*
X-018205Y-005460D02*
X-017755D01*
X-017980Y-005685D02*
Y-005235D01*
X-019205Y-005460D02*
X-018755D01*
X-018980Y-005685D02*
Y-005235D01*
X-020205Y-005460D02*
X-019755D01*
X-019980Y-005685D02*
Y-005235D01*
X-021205Y-005460D02*
X-020755D01*
X-020980Y-005685D02*
Y-005235D01*
X-015712Y-010656D02*
X-015462D01*
X-015587Y-010781D02*
Y-010531D01*
X-014442Y-010636D02*
X-014192D01*
X-014317Y-010761D02*
Y-010511D01*
X-015712Y-009436D02*
X-015462D01*
X-015587Y-009561D02*
Y-009311D01*
X-014442Y-009426D02*
X-014192D01*
X-014317Y-009551D02*
Y-009301D01*
X-015082Y-010936D02*
X-014832D01*
X-014957Y-011061D02*
Y-010811D01*
X-014192Y-010056D02*
X-013942D01*
X-014067Y-010181D02*
Y-009931D01*
X-015042Y-009156D02*
X-014792D01*
X-014917Y-009281D02*
Y-009031D01*
X-015982Y-010076D02*
X-015732D01*
X-015857Y-010201D02*
Y-009951D01*
X-018245Y-017320D02*
X-017795D01*
X-018020Y-017545D02*
Y-017095D01*
X-019245Y-017320D02*
X-018795D01*
X-019020Y-017545D02*
Y-017095D01*
X-020245Y-017320D02*
X-019795D01*
X-020020Y-017545D02*
Y-017095D01*
X-021245Y-017320D02*
X-020795D01*
X-021020Y-017545D02*
Y-017095D01*
X-005942Y-031526D02*
X-005692D01*
X-005817Y-031651D02*
Y-031401D01*
X-005002Y-030606D02*
X-004752D01*
X-004877Y-030731D02*
Y-030481D01*
X-004152Y-031506D02*
X-003902D01*
X-004027Y-031631D02*
Y-031381D01*
X-005042Y-032386D02*
X-004792D01*
X-004917Y-032511D02*
Y-032261D01*
X-004402Y-030876D02*
X-004152D01*
X-004277Y-031001D02*
Y-030751D01*
X-005672Y-030886D02*
X-005422D01*
X-005547Y-031011D02*
Y-030761D01*
X-004402Y-032086D02*
X-004152D01*
X-004277Y-032211D02*
Y-031961D01*
X-005672Y-032106D02*
X-005422D01*
X-005547Y-032231D02*
Y-031981D01*
X-004065Y-010520D02*
X-003615D01*
X-003840Y-010745D02*
Y-010295D01*
X-004065Y-002520D02*
X-003615D01*
X-003840Y-002745D02*
Y-002295D01*
X-004065Y-003520D02*
X-003615D01*
X-003840Y-003745D02*
Y-003295D01*
X-004065Y-004520D02*
X-003615D01*
X-003840Y-004745D02*
Y-004295D01*
X-004065Y-005520D02*
X-003615D01*
X-003840Y-005745D02*
Y-005295D01*
X-004065Y-006520D02*
X-003615D01*
X-003840Y-006745D02*
Y-006295D01*
X-004065Y-007520D02*
X-003615D01*
X-003840Y-007745D02*
Y-007295D01*
X-004065Y-008520D02*
X-003615D01*
X-003840Y-008745D02*
Y-008295D01*
X-004065Y-009520D02*
X-003615D01*
X-003840Y-009745D02*
Y-009295D01*
X-001327Y-012940D02*
X-000973D01*
X-001150Y-013117D02*
Y-012763D01*
X-002327Y-012940D02*
X-001973D01*
X-002150Y-013117D02*
Y-012763D01*
X-001327Y-011940D02*
X-000973D01*
X-001150Y-012117D02*
Y-011763D01*
X-002327Y-011940D02*
X-001973D01*
X-002150Y-012117D02*
Y-011763D01*
X-001327Y-010940D02*
X-000973D01*
X-001150Y-011117D02*
Y-010763D01*
X-002327Y-010940D02*
X-001973D01*
X-002150Y-011117D02*
Y-010763D01*
X-001327Y-009940D02*
X-000973D01*
X-001150Y-010117D02*
Y-009763D01*
X-002327Y-009940D02*
X-001973D01*
X-002150Y-010117D02*
Y-009763D01*
X-001327Y-008940D02*
X-000973D01*
X-001150Y-009117D02*
Y-008763D01*
X-002327Y-008940D02*
X-001973D01*
X-002150Y-009117D02*
Y-008763D01*
X-001327Y-007940D02*
X-000973D01*
X-001150Y-008117D02*
Y-007763D01*
X-002327Y-007940D02*
X-001973D01*
X-002150Y-008117D02*
Y-007763D01*
X-001327Y-006940D02*
X-000973D01*
X-001150Y-007117D02*
Y-006763D01*
X-002327Y-006940D02*
X-001973D01*
X-002150Y-007117D02*
Y-006763D01*
X-001327Y-005940D02*
X-000973D01*
X-001150Y-006117D02*
Y-005763D01*
X-002327Y-005940D02*
X-001973D01*
X-002150Y-006117D02*
Y-005763D01*
X-001327Y-004940D02*
X-000973D01*
X-001150Y-005117D02*
Y-004763D01*
X-002327Y-004940D02*
X-001973D01*
X-002150Y-005117D02*
Y-004763D01*
X-001327Y-003940D02*
X-000973D01*
X-001150Y-004117D02*
Y-003763D01*
X-002327Y-003940D02*
X-001973D01*
X-002150Y-004117D02*
Y-003763D01*
X-001327Y-002940D02*
X-000973D01*
X-001150Y-003117D02*
Y-002763D01*
X-002327Y-002940D02*
X-001973D01*
X-002150Y-003117D02*
Y-002763D01*
X-001327Y-001940D02*
X-000973D01*
X-001150Y-002117D02*
Y-001763D01*
X-002327Y-001940D02*
X-001973D01*
X-002150Y-002117D02*
Y-001763D01*
X-001327Y-000940D02*
X-000973D01*
X-001150Y-001117D02*
Y-000763D01*
X-002327Y-000940D02*
X-001973D01*
X-002150Y-001117D02*
Y-000763D01*
X-010230Y-005490D02*
X-009950D01*
X-010090Y-005630D02*
Y-005350D01*
X-012300Y-005720D02*
X-012020D01*
X-012160Y-005860D02*
Y-005580D01*
X-010980Y-010870D02*
X-010700D01*
X-010840Y-011010D02*
Y-010730D01*
X-012120Y-010870D02*
X-011840D01*
X-011980Y-011010D02*
Y-010730D01*
X-009240Y-009860D02*
X-008960D01*
X-009100Y-010000D02*
Y-009720D01*
X-011610Y-006070D02*
X-011330D01*
X-011470Y-006210D02*
Y-005930D01*
X-007460Y-005730D02*
X-007180D01*
X-007320Y-005870D02*
Y-005590D01*
X-008440Y-006750D02*
X-008160D01*
X-008300Y-006890D02*
Y-006610D01*
X-006690Y-002980D02*
X-006410D01*
X-006550Y-003120D02*
Y-002840D01*
X-010830Y-001100D02*
X-010550D01*
X-010690Y-001240D02*
Y-000960D01*
X-005520Y-008180D02*
X-005240D01*
X-005380Y-008320D02*
Y-008040D01*
X-006650Y-010240D02*
X-006370D01*
X-006510Y-010380D02*
Y-010100D01*
X-016910Y-005950D02*
X-016630D01*
X-016770Y-006090D02*
Y-005810D01*
X-016910Y-005420D02*
X-016630D01*
X-016770Y-005560D02*
Y-005280D01*
X-009920Y-011220D02*
X-009640D01*
X-009780Y-011360D02*
Y-011080D01*
X-014410Y-018510D02*
X-014130D01*
X-014270Y-018650D02*
Y-018370D01*
X-014400Y-019040D02*
X-014120D01*
X-014260Y-019180D02*
Y-018900D01*
X-013830Y-018510D02*
X-013550D01*
X-013690Y-018650D02*
Y-018370D01*
X-013310Y-019060D02*
X-013030D01*
X-013170Y-019200D02*
Y-018920D01*
X-013300Y-018520D02*
X-013020D01*
X-013160Y-018660D02*
Y-018380D01*
X-013850Y-019040D02*
X-013570D01*
X-013710Y-019180D02*
Y-018900D01*
X-010010Y-002950D02*
X-009730D01*
X-009870Y-003090D02*
Y-002810D01*
X-015556Y-010039D02*
X-014366D01*
X-014961Y-010634D02*
Y-009444D01*
X-013940Y-021030D02*
X-013660D01*
X-013800Y-021170D02*
Y-020890D01*
X-013950Y-021560D02*
X-013670D01*
X-013810Y-021700D02*
Y-021420D01*
X-005516Y-031496D02*
X-004326D01*
X-004921Y-032091D02*
Y-030901D01*
X-005630Y-002580D02*
X-005350D01*
X-005490Y-002720D02*
Y-002440D01*
X-005630Y-004550D02*
X-005350D01*
X-005490Y-004690D02*
Y-004410D01*
X-009170Y-014650D02*
X-008890D01*
X-009030Y-014790D02*
Y-014510D01*
X-012290Y-014460D02*
X-012010D01*
X-012150Y-014600D02*
Y-014320D01*
X-016520Y-014960D02*
X-016240D01*
X-016380Y-015100D02*
Y-014820D01*
X-016770Y-017540D02*
X-016490D01*
X-016630Y-017680D02*
Y-017400D01*
X-007200Y-014650D02*
X-006920D01*
X-007060Y-014790D02*
Y-014510D01*
X-019190Y-018960D02*
X-018910D01*
X-019050Y-019100D02*
Y-018820D01*
X-017380Y-019350D02*
X-017100D01*
X-017240Y-019490D02*
Y-019210D01*
X-011040Y-019770D02*
X-010760D01*
X-010900Y-019910D02*
Y-019630D01*
X-011960Y-018820D02*
X-011680D01*
X-011820Y-018960D02*
Y-018680D01*
M02*
