G04 Layer_Physical_Order=2*
G04 Layer_Color=16711680*
%FSAX25Y25*%
%MOIN*%
G70*
G01*
G75*
%ADD13R,0.06299X0.07087*%
%ADD16O,0.01200X0.04000*%
%ADD18R,0.09055X0.09055*%
%ADD21R,0.07087X0.06299*%
%ADD23C,0.03500*%
%ADD24C,0.04000*%
%ADD25C,0.02500*%
%ADD26C,0.02000*%
%ADD27C,0.03000*%
%ADD28C,0.04500*%
%ADD29C,0.05500*%
%ADD30C,0.01500*%
%ADD31C,0.05000*%
%ADD42R,0.07000X0.06000*%
%ADD43R,0.07000X0.07000*%
%ADD44R,0.06000X0.07000*%
%ADD45R,0.12598X0.10000*%
%ADD46R,0.10000X0.10000*%
%ADD47C,0.04000*%
%ADD48R,0.07000X0.05000*%
%ADD49C,0.05906*%
%ADD50R,0.05906X0.05906*%
%ADD51C,0.05000*%
%ADD52C,0.24000*%
%ADD53R,0.12000X0.06000*%
%ADD54R,0.09055X0.09055*%
%ADD55R,0.08000X0.21000*%
%ADD56R,0.08000X0.21500*%
%ADD57O,0.06061X0.02362*%
%ADD58C,0.07000*%
%ADD59C,0.01700*%
%ADD60R,0.15200X0.11200*%
%ADD61R,0.07100X0.11400*%
%ADD62R,0.05300X0.23100*%
%ADD63R,0.19200X0.15000*%
%ADD64R,0.36500X0.09300*%
%ADD65R,0.28900X0.21500*%
G36*
X1660200Y1171600D02*
X1665651D01*
Y1156649D01*
X1612275D01*
X1611300Y1156455D01*
X1610473Y1155902D01*
X1609920Y1155075D01*
X1609726Y1154100D01*
Y1103800D01*
X1609920Y1102825D01*
X1610473Y1101998D01*
X1611000Y1101645D01*
Y1077600D01*
X1523886D01*
Y1079785D01*
X1523886D01*
Y1091661D01*
X1529800D01*
X1530580Y1091816D01*
X1531242Y1092258D01*
X1531684Y1092920D01*
X1531839Y1093700D01*
Y1103000D01*
X1531800Y1103197D01*
Y1107098D01*
X1502443D01*
X1502443Y1108438D01*
X1502443D01*
Y1109162D01*
X1502443Y1110559D01*
X1502443Y1110559D01*
X1502443Y1110559D01*
Y1111302D01*
X1506400D01*
Y1116301D01*
Y1121302D01*
X1500400D01*
Y1119461D01*
X1498900D01*
Y1114311D01*
X1494900D01*
Y1119461D01*
X1494805D01*
X1494839Y1119200D01*
X1494684Y1118025D01*
X1494343Y1117200D01*
X1490299D01*
Y1119199D01*
X1488300D01*
Y1123242D01*
X1488031Y1123131D01*
X1487091Y1122409D01*
X1486369Y1121469D01*
X1486283Y1121260D01*
X1484400D01*
Y1114259D01*
X1480400D01*
Y1121260D01*
X1477029D01*
X1476739Y1123099D01*
X1476584Y1121925D01*
X1476243Y1121100D01*
X1468157D01*
X1468052Y1121354D01*
X1467106Y1119938D01*
X1465701Y1118860D01*
X1463301D01*
Y1113860D01*
X1471601D01*
Y1109860D01*
X1463301D01*
Y1105681D01*
X1463301Y1105681D01*
X1463301Y1105681D01*
X1463301Y1104860D01*
Y1103560D01*
D01*
D01*
D01*
D01*
X1463301D01*
Y1089560D01*
X1471824D01*
X1478460Y1082925D01*
X1479452Y1082164D01*
X1480607Y1081685D01*
X1481847Y1081522D01*
X1482488D01*
X1483044Y1081291D01*
X1482459Y1078349D01*
X1444749D01*
Y1131100D01*
X1489700D01*
Y1133883D01*
X1490897Y1134379D01*
X1492541Y1134937D01*
X1493191Y1134091D01*
X1494131Y1133369D01*
X1494400Y1133258D01*
Y1137299D01*
Y1141342D01*
X1494131Y1141231D01*
X1493191Y1140509D01*
X1492541Y1139663D01*
X1490897Y1140221D01*
X1489700Y1140716D01*
Y1159600D01*
X1491648Y1161548D01*
X1492480Y1161657D01*
X1494819Y1161192D01*
X1494516Y1161925D01*
X1494361Y1163100D01*
X1494516Y1164275D01*
X1494857Y1165100D01*
X1496900D01*
Y1167143D01*
X1497725Y1167484D01*
X1498900Y1167639D01*
X1498765Y1168665D01*
X1499200Y1169100D01*
X1535784D01*
X1536661Y1168100D01*
X1536816Y1169275D01*
X1537157Y1170100D01*
X1545243D01*
X1545584Y1169275D01*
X1545739Y1168100D01*
X1546616Y1169100D01*
X1563851D01*
X1567176Y1167723D01*
X1567946Y1166845D01*
X1568016Y1167375D01*
X1568357Y1168200D01*
X1576442D01*
X1576331Y1168469D01*
X1576642Y1169100D01*
X1583551D01*
X1586876Y1167723D01*
X1587646Y1166845D01*
X1587716Y1167375D01*
X1588057Y1168200D01*
X1596142D01*
X1596031Y1168469D01*
X1596342Y1169100D01*
X1657300D01*
X1660000Y1171800D01*
X1660200Y1171600D01*
D02*
G37*
%LPC*%
G36*
X1533100Y1131542D02*
Y1129500D01*
X1535142D01*
X1535031Y1129769D01*
X1534309Y1130709D01*
X1533369Y1131431D01*
X1533100Y1131542D01*
D02*
G37*
G36*
X1527800Y1131642D02*
Y1127599D01*
X1523800D01*
Y1131642D01*
X1523531Y1131531D01*
X1522900Y1131047D01*
X1522269Y1131531D01*
X1522000Y1131642D01*
Y1127599D01*
X1520001D01*
Y1125600D01*
X1515958D01*
X1516069Y1125331D01*
X1516411Y1124885D01*
X1516169Y1124569D01*
X1516058Y1124300D01*
X1520101D01*
Y1120300D01*
X1516057D01*
X1515716Y1121125D01*
X1515561Y1122300D01*
X1514686Y1121302D01*
X1510400D01*
Y1116301D01*
Y1111302D01*
X1521800D01*
Y1116303D01*
X1523799D01*
Y1118302D01*
X1529000D01*
Y1122101D01*
X1530999D01*
Y1124100D01*
X1535042D01*
X1534931Y1124369D01*
X1534650Y1124735D01*
X1535031Y1125231D01*
X1535142Y1125500D01*
X1531099D01*
Y1127499D01*
X1529100D01*
Y1131542D01*
X1528831Y1131431D01*
X1528515Y1131189D01*
X1528069Y1131531D01*
X1527800Y1131642D01*
D02*
G37*
G36*
X1500442Y1135300D02*
X1498400D01*
Y1133258D01*
X1498669Y1133369D01*
X1499609Y1134091D01*
X1500331Y1135031D01*
X1500442Y1135300D01*
D02*
G37*
G36*
X1518000Y1131642D02*
X1517731Y1131531D01*
X1516791Y1130809D01*
X1516069Y1129869D01*
X1515958Y1129600D01*
X1518000D01*
Y1131642D01*
D02*
G37*
G36*
X1474200Y1127142D02*
Y1125100D01*
X1476242D01*
X1476131Y1125369D01*
X1475409Y1126309D01*
X1474469Y1127031D01*
X1474200Y1127142D01*
D02*
G37*
G36*
X1535042Y1120100D02*
X1533000D01*
Y1118058D01*
X1533269Y1118169D01*
X1534209Y1118891D01*
X1534931Y1119831D01*
X1535042Y1120100D01*
D02*
G37*
G36*
X1531800Y1114302D02*
X1525800D01*
Y1111302D01*
X1531800D01*
Y1114302D01*
D02*
G37*
G36*
X1470200Y1127142D02*
X1469931Y1127031D01*
X1468991Y1126309D01*
X1468269Y1125369D01*
X1468158Y1125100D01*
X1470200D01*
Y1127142D01*
D02*
G37*
G36*
X1492300Y1123242D02*
Y1121200D01*
X1494342D01*
X1494231Y1121469D01*
X1493509Y1122409D01*
X1492569Y1123131D01*
X1492300Y1123242D01*
D02*
G37*
G36*
X1498400Y1141342D02*
Y1139300D01*
X1500442D01*
X1500331Y1139569D01*
X1499609Y1140509D01*
X1498669Y1141231D01*
X1498400Y1141342D01*
D02*
G37*
G36*
X1539200Y1166100D02*
X1537158D01*
X1537269Y1165831D01*
X1537991Y1164891D01*
X1538931Y1164169D01*
X1539200Y1164058D01*
Y1166100D01*
D02*
G37*
G36*
X1596142Y1164200D02*
X1594100D01*
Y1162158D01*
X1594369Y1162269D01*
X1595309Y1162991D01*
X1596031Y1163931D01*
X1596142Y1164200D01*
D02*
G37*
G36*
X1500900Y1167142D02*
Y1165100D01*
X1502942D01*
X1502831Y1165369D01*
X1502109Y1166309D01*
X1501169Y1167031D01*
X1500900Y1167142D01*
D02*
G37*
G36*
X1545242Y1166100D02*
X1543200D01*
Y1164058D01*
X1543469Y1164169D01*
X1544409Y1164891D01*
X1545131Y1165831D01*
X1545242Y1166100D01*
D02*
G37*
G36*
X1590100Y1164200D02*
X1588058D01*
X1588169Y1163931D01*
X1588891Y1162991D01*
X1589831Y1162269D01*
X1590100Y1162158D01*
Y1164200D01*
D02*
G37*
G36*
X1502942Y1161100D02*
X1500900D01*
Y1159058D01*
X1501169Y1159169D01*
X1502109Y1159891D01*
X1502831Y1160831D01*
X1502942Y1161100D01*
D02*
G37*
G36*
X1496900D02*
X1494858D01*
X1494969Y1160831D01*
X1495691Y1159891D01*
X1496631Y1159169D01*
X1496900Y1159058D01*
Y1161100D01*
D02*
G37*
G36*
X1576442Y1164200D02*
X1574400D01*
Y1162158D01*
X1574669Y1162269D01*
X1575609Y1162991D01*
X1576331Y1163931D01*
X1576442Y1164200D01*
D02*
G37*
G36*
X1570400D02*
X1568358D01*
X1568469Y1163931D01*
X1569191Y1162991D01*
X1570131Y1162269D01*
X1570400Y1162158D01*
Y1164200D01*
D02*
G37*
%LPD*%
D13*
X1462588Y1247700D02*
D03*
X1473612D02*
D03*
X1538588Y1264500D02*
D03*
X1549612D02*
D03*
D16*
X1585400Y1287100D02*
D03*
X1588900D02*
D03*
X1592400D02*
D03*
Y1277200D02*
D03*
X1585400D02*
D03*
X1579800Y1287100D02*
D03*
X1572800D02*
D03*
Y1277200D02*
D03*
X1576300D02*
D03*
X1579800D02*
D03*
D18*
X1499642Y1086313D02*
D03*
X1517358D02*
D03*
D21*
X1496900Y1114312D02*
D03*
Y1103288D02*
D03*
D23*
X1570900Y1214100D02*
X1571700D01*
X1570600Y1214400D02*
X1570900Y1214100D01*
X1570600Y1214400D02*
Y1214500D01*
X1570400Y1214700D02*
X1570600Y1214500D01*
X1558900Y1214700D02*
X1570400D01*
X1554300Y1210100D02*
X1558900Y1214700D01*
X1554300Y1204200D02*
Y1210100D01*
X1618300Y1296700D02*
Y1302700D01*
X1616600Y1295000D02*
X1618300Y1296700D01*
X1596600Y1295000D02*
X1616600D01*
X1594990Y1296610D02*
X1596600Y1295000D01*
X1594990Y1296610D02*
Y1302610D01*
X1628000Y1290700D02*
Y1300900D01*
X1607700Y1286700D02*
X1608100Y1287100D01*
X1624400D01*
X1628000Y1290700D01*
X1554000Y1203900D02*
X1554300Y1204200D01*
D24*
X1482900Y1258100D02*
Y1278100D01*
Y1218100D02*
Y1238100D01*
Y1258100D01*
X1651400Y1263300D02*
X1655300D01*
X1655400Y1263400D01*
X1624300Y1227500D02*
X1630300D01*
X1630400Y1227400D01*
X1584990Y1297810D02*
X1586100Y1296700D01*
X1584990Y1297810D02*
Y1297910D01*
Y1302610D01*
X1568200Y1178300D02*
Y1184500D01*
Y1178300D02*
X1568800Y1177700D01*
X1651400Y1203300D02*
Y1206500D01*
D25*
X1561800Y1257800D02*
X1562300D01*
X1558100Y1252000D02*
X1562300Y1256200D01*
X1528300Y1249600D02*
X1533600D01*
X1536400Y1246800D01*
Y1231300D02*
Y1246800D01*
X1528900Y1223800D02*
X1536400Y1231300D01*
X1528900Y1186620D02*
Y1223800D01*
X1526890Y1184610D02*
X1528900Y1186620D01*
X1536400Y1224100D02*
X1541600Y1229300D01*
X1536400Y1184700D02*
Y1224100D01*
X1548000Y1252000D02*
X1558100D01*
X1530500Y1263900D02*
Y1272300D01*
X1516200Y1249600D02*
X1530500Y1263900D01*
X1535700Y1292500D02*
X1545900Y1282300D01*
X1529700Y1292500D02*
X1535700D01*
X1526990Y1295210D02*
X1529700Y1292500D01*
X1526990Y1295210D02*
Y1301610D01*
X1547100Y1287300D02*
X1551500D01*
X1536990Y1297410D02*
X1547100Y1287300D01*
X1536990Y1297410D02*
Y1301610D01*
X1551500Y1272300D02*
X1556300D01*
X1558100Y1274100D01*
Y1299800D01*
X1556200Y1301700D02*
X1558100Y1299800D01*
X1555800Y1301700D02*
X1556200D01*
X1530500Y1287300D02*
X1535200D01*
X1527300D02*
X1530500D01*
X1535200D02*
X1540188Y1282312D01*
X1525300Y1282300D02*
X1530500D01*
X1516000Y1291600D02*
X1525300Y1282300D01*
X1516990Y1297610D02*
X1527300Y1287300D01*
X1516990Y1297610D02*
Y1301610D01*
X1516200Y1276300D02*
X1517200Y1277300D01*
X1530500D01*
X1632700Y1236200D02*
X1635600Y1233300D01*
X1582600Y1274000D02*
Y1277200D01*
Y1274000D02*
X1588500Y1268100D01*
X1607600D01*
X1630400Y1217600D02*
X1632200Y1215800D01*
Y1211200D02*
Y1215800D01*
X1624400Y1217600D02*
X1630400D01*
X1632200Y1211200D02*
X1635200Y1208200D01*
X1632400Y1247700D02*
X1632700Y1247400D01*
Y1236200D02*
Y1247400D01*
X1545900Y1282300D02*
X1551500D01*
X1552100D01*
X1516200Y1237100D02*
Y1249600D01*
Y1271100D02*
Y1276300D01*
X1503900Y1291600D02*
X1516000D01*
X1635600Y1233300D02*
X1641200D01*
X1641400D01*
X1624200Y1247700D02*
X1632400D01*
X1551212Y1262500D02*
X1551500Y1262788D01*
Y1272300D01*
X1540188Y1262500D02*
Y1282312D01*
X1541600Y1229300D02*
Y1255800D01*
X1562300Y1256200D02*
Y1257800D01*
D26*
X1572800Y1287100D02*
Y1299420D01*
X1608000Y1232000D02*
Y1247600D01*
X1612900Y1252500D01*
X1641400Y1216600D02*
X1643100Y1218300D01*
X1645935D01*
X1645983Y1218347D01*
X1646817D01*
X1655983D02*
X1656253D01*
X1657500Y1217100D01*
Y1175500D02*
Y1217100D01*
X1654200Y1172200D02*
X1657500Y1175500D01*
X1570300Y1172200D02*
X1654200D01*
X1568000Y1174500D02*
X1570300Y1172200D01*
X1646817Y1218347D02*
X1646865Y1218300D01*
X1655935D01*
X1655983Y1218347D01*
X1588900Y1287000D02*
Y1287100D01*
Y1294000D01*
X1584990Y1297910D02*
X1588900Y1294000D01*
X1573600Y1294900D02*
X1574990Y1296290D01*
X1573600Y1294900D02*
Y1300200D01*
X1574000Y1300600D01*
X1572800Y1299420D02*
X1574990Y1301610D01*
Y1296290D02*
Y1301610D01*
Y1302610D01*
X1568000Y1174500D02*
Y1184400D01*
X1651400Y1263300D02*
Y1264000D01*
X1641400Y1213300D02*
Y1216600D01*
X1640600Y1252500D02*
X1641400Y1253300D01*
D27*
X1575700Y1241200D02*
X1579700Y1245200D01*
X1575700Y1223200D02*
Y1241200D01*
X1648600Y1176500D02*
X1651400Y1179300D01*
X1599600Y1176500D02*
X1648600D01*
X1597900Y1178200D02*
X1599600Y1176500D01*
X1597900Y1178200D02*
Y1184300D01*
X1588300Y1190300D02*
X1591300Y1193300D01*
X1588300Y1184700D02*
Y1190300D01*
X1578300Y1197400D02*
X1581000Y1200100D01*
X1630800D01*
X1634000Y1203300D01*
X1575700Y1223200D02*
X1581900Y1217000D01*
X1600200D01*
X1608600Y1208600D01*
Y1200300D02*
Y1208600D01*
X1564900Y1200500D02*
X1570300D01*
X1580000Y1210200D01*
X1596200D01*
X1634000Y1203300D02*
X1641200D01*
X1641400D01*
X1591300Y1193300D02*
X1641200D01*
X1641400D01*
X1651400Y1179300D02*
Y1183300D01*
X1578300Y1184400D02*
Y1197400D01*
D28*
X1569400Y1244600D02*
Y1273400D01*
X1542800Y1218000D02*
X1569400Y1244600D01*
X1563700Y1279100D02*
X1569400Y1273400D01*
X1586800Y1227000D02*
Y1253800D01*
X1585000Y1255600D02*
X1586800Y1253800D01*
X1492500Y1287500D02*
X1495600Y1284400D01*
X1475200Y1287500D02*
X1492500D01*
X1472900Y1285200D02*
X1475200Y1287500D01*
X1472900Y1278100D02*
Y1285200D01*
X1495600Y1214400D02*
Y1228600D01*
X1490400Y1209200D02*
X1495600Y1214400D01*
X1464100Y1209200D02*
X1490400D01*
X1462900Y1210400D02*
X1464100Y1209200D01*
X1462900Y1210400D02*
Y1218100D01*
X1563700Y1283500D02*
X1564000Y1283200D01*
X1570100Y1255600D02*
X1585000D01*
X1586800Y1227000D02*
X1589800Y1224000D01*
X1602200D01*
X1618700Y1207500D01*
X1503900Y1302800D02*
Y1303000D01*
Y1310300D01*
X1516990Y1301610D02*
Y1302610D01*
Y1309790D01*
X1618700Y1207500D02*
X1624300D01*
X1624400D01*
X1472900Y1238100D02*
Y1258100D01*
X1495600Y1276900D02*
Y1284400D01*
X1494900Y1249071D02*
Y1257154D01*
Y1249071D02*
X1497213Y1246758D01*
X1494900Y1257154D02*
X1497087Y1259342D01*
X1542800Y1204000D02*
Y1218000D01*
Y1204000D02*
X1543000Y1203800D01*
X1563700Y1279100D02*
Y1283500D01*
Y1309600D01*
D29*
X1459400Y1311100D02*
X1659600D01*
X1662900Y1307800D01*
Y1169600D02*
Y1307800D01*
X1525800Y1127600D02*
Y1151100D01*
X1537400Y1162700D01*
X1656000D02*
X1662900Y1169600D01*
X1452900Y1304600D02*
X1459400Y1311100D01*
X1452900Y1298100D02*
Y1304600D01*
X1508400Y1116302D02*
X1523800D01*
X1481847Y1086313D02*
X1499642D01*
X1508400Y1102098D02*
X1523800D01*
X1517358Y1086313D02*
Y1101739D01*
X1498091Y1102098D02*
X1508400D01*
X1496900Y1103288D02*
X1498091Y1102098D01*
X1471600Y1111860D02*
X1476042Y1116302D01*
X1462900Y1218100D02*
Y1238100D01*
X1472900Y1218100D02*
Y1238100D01*
X1452758Y1257958D02*
X1452900Y1258100D01*
X1471600Y1096560D02*
X1481847Y1086313D01*
X1462900Y1238100D02*
Y1258100D01*
X1476042Y1116302D02*
X1508400D01*
X1537400Y1162700D02*
X1656000D01*
D30*
X1592400Y1287100D02*
X1595300D01*
X1582600Y1277200D02*
X1585400D01*
X1579800D02*
X1582600D01*
X1585400D02*
Y1287100D01*
X1579800D02*
X1585400D01*
X1597200Y1282900D02*
Y1285200D01*
X1595300Y1287100D02*
X1597200Y1285200D01*
X1624300Y1227500D02*
X1625100Y1228300D01*
X1635000Y1268100D02*
X1647900D01*
X1576300Y1271100D02*
X1585100Y1262300D01*
X1576300Y1271100D02*
Y1277200D01*
Y1277400D01*
X1592400Y1273600D02*
Y1277200D01*
Y1273600D02*
X1593500Y1272500D01*
X1635250Y1278050D02*
X1656650D01*
X1657600Y1277100D01*
Y1264500D02*
Y1277100D01*
X1656400Y1263300D02*
X1657600Y1264500D01*
X1650200Y1208200D02*
X1651400Y1207000D01*
X1635200Y1208200D02*
X1650200D01*
X1652800Y1226400D02*
Y1226800D01*
X1652100Y1227500D02*
X1652800Y1226800D01*
X1650000Y1226400D02*
X1651000D01*
X1650000Y1226200D02*
Y1226400D01*
X1649800Y1226000D02*
X1650000Y1226200D01*
X1649800Y1225800D02*
Y1226000D01*
X1650000Y1228300D02*
X1651400Y1226900D01*
Y1226800D02*
Y1226900D01*
X1651000Y1226400D02*
X1651400Y1226800D01*
X1652100Y1227500D01*
X1651400Y1225000D02*
X1652800Y1226400D01*
X1651100Y1269500D02*
X1651600Y1270000D01*
X1651100Y1269500D02*
Y1270800D01*
X1649100Y1268500D02*
X1650000Y1269400D01*
X1649600Y1269800D02*
X1650000Y1269400D01*
X1651400Y1270200D02*
X1651600Y1270000D01*
X1650000Y1269400D02*
Y1270900D01*
X1647900Y1268100D02*
X1649600Y1269800D01*
X1650000Y1270900D02*
X1650500Y1271400D01*
X1650600Y1271500D01*
X1650500Y1271400D02*
X1651100Y1270800D01*
X1655300Y1263300D02*
X1656400D01*
X1651400Y1206500D02*
Y1207000D01*
X1625100Y1228300D02*
X1650000D01*
X1629200Y1262300D02*
X1635000Y1268100D01*
X1585100Y1262300D02*
X1629200D01*
X1629700Y1272500D02*
X1635250Y1278050D01*
X1593500Y1272500D02*
X1629700D01*
X1651400Y1223300D02*
Y1225000D01*
Y1270200D02*
Y1273300D01*
D31*
Y1283300D02*
X1662600D01*
D42*
X1528300Y1239600D02*
D03*
Y1249600D02*
D03*
X1503900Y1293000D02*
D03*
Y1303000D02*
D03*
X1624300Y1207500D02*
D03*
Y1287500D02*
D03*
Y1237500D02*
D03*
Y1227500D02*
D03*
Y1217500D02*
D03*
D43*
X1516890Y1184610D02*
D03*
X1526890D02*
D03*
X1536890D02*
D03*
X1546890D02*
D03*
X1516990Y1302610D02*
D03*
X1526990D02*
D03*
X1536990D02*
D03*
X1546990D02*
D03*
X1594990D02*
D03*
X1584990D02*
D03*
X1574990D02*
D03*
X1564990D02*
D03*
D44*
X1628300Y1302700D02*
D03*
X1618300D02*
D03*
X1608300D02*
D03*
X1618200Y1184500D02*
D03*
X1608200D02*
D03*
X1598200D02*
D03*
X1588200D02*
D03*
X1578200D02*
D03*
X1568200D02*
D03*
X1452900Y1158100D02*
D03*
X1462900D02*
D03*
X1472900D02*
D03*
X1482900D02*
D03*
Y1198100D02*
D03*
X1472900D02*
D03*
X1462900D02*
D03*
X1452900D02*
D03*
X1482900Y1238100D02*
D03*
X1472900D02*
D03*
X1462900D02*
D03*
X1452900D02*
D03*
X1482900Y1278100D02*
D03*
X1472900D02*
D03*
X1462900D02*
D03*
X1452900D02*
D03*
X1482900Y1298100D02*
D03*
X1472900D02*
D03*
X1462900D02*
D03*
X1452900D02*
D03*
X1482900Y1178100D02*
D03*
X1472900D02*
D03*
X1462900D02*
D03*
X1452900D02*
D03*
X1482900Y1218100D02*
D03*
X1472900D02*
D03*
X1462900D02*
D03*
X1452900D02*
D03*
X1482900Y1258100D02*
D03*
X1472900D02*
D03*
X1462900D02*
D03*
X1452900D02*
D03*
X1482500Y1139500D02*
D03*
X1472500D02*
D03*
X1462500D02*
D03*
X1452500D02*
D03*
D45*
X1471600Y1111860D02*
D03*
Y1096560D02*
D03*
D46*
X1482400Y1114260D02*
D03*
Y1094460D02*
D03*
D47*
X1506830Y1206140D02*
D03*
X1519530Y1206340D02*
D03*
X1506830Y1218340D02*
D03*
X1519530Y1218440D02*
D03*
X1513130Y1203340D02*
D03*
X1522030Y1212140D02*
D03*
X1513530Y1221140D02*
D03*
X1504130Y1211940D02*
D03*
X1604530Y0997440D02*
D03*
X1613930Y1006640D02*
D03*
X1622430Y0997640D02*
D03*
X1613530Y0988840D02*
D03*
X1619930Y1003940D02*
D03*
X1607230Y1003840D02*
D03*
X1619930Y0991840D02*
D03*
X1607230Y0991640D02*
D03*
D48*
X1624300Y1277500D02*
D03*
Y1267500D02*
D03*
Y1257500D02*
D03*
Y1247500D02*
D03*
D49*
X1651200Y1183300D02*
D03*
X1641200D02*
D03*
X1651200Y1193300D02*
D03*
X1641200D02*
D03*
X1651200Y1203300D02*
D03*
X1641200D02*
D03*
X1651200Y1213300D02*
D03*
X1641200D02*
D03*
X1651200Y1223300D02*
D03*
X1641200D02*
D03*
X1651200Y1233300D02*
D03*
X1641200D02*
D03*
X1651200Y1243300D02*
D03*
X1641200D02*
D03*
X1651200Y1253300D02*
D03*
X1641200D02*
D03*
X1651200Y1263300D02*
D03*
X1641200D02*
D03*
X1651200Y1273300D02*
D03*
X1641200D02*
D03*
X1651200Y1283300D02*
D03*
X1641200D02*
D03*
X1651200Y1293300D02*
D03*
X1641200D02*
D03*
X1651200Y1303300D02*
D03*
D50*
X1641200D02*
D03*
D51*
X1561800Y1257800D02*
D03*
X1541100Y1255500D02*
D03*
X1554300Y1204000D02*
D03*
X1542900D02*
D03*
X1571700Y1214100D02*
D03*
X1548000Y1252000D02*
D03*
X1589500Y1255400D02*
D03*
X1579700Y1245200D02*
D03*
X1597200Y1282900D02*
D03*
X1555800Y1301700D02*
D03*
X1608900Y1230900D02*
D03*
X1597600Y1210300D02*
D03*
X1495000Y1253200D02*
D03*
Y1258500D02*
D03*
X1564900Y1200500D02*
D03*
X1520000Y1127600D02*
D03*
X1520100Y1122300D02*
D03*
X1525800Y1127600D02*
D03*
X1531000Y1122100D02*
D03*
X1531100Y1127500D02*
D03*
X1525600Y1122300D02*
D03*
X1564000Y1283200D02*
D03*
X1524700Y1102400D02*
D03*
X1524600Y1097100D02*
D03*
X1607800Y1286900D02*
D03*
Y1267200D02*
D03*
X1572400Y1166200D02*
D03*
X1541200Y1168100D02*
D03*
X1498900Y1163100D02*
D03*
X1496400Y1137300D02*
D03*
X1592100Y1166200D02*
D03*
X1472200Y1123100D02*
D03*
X1490300Y1119200D02*
D03*
X1553700Y1115000D02*
D03*
X1544500Y1124500D02*
D03*
D52*
X1513094Y1212306D02*
D03*
X1613487Y0997739D02*
D03*
D53*
X1523800Y1102098D02*
D03*
Y1116302D02*
D03*
X1508400Y1102098D02*
D03*
Y1116302D02*
D03*
D54*
X1494987Y1259342D02*
D03*
Y1277058D02*
D03*
X1495213Y1246758D02*
D03*
Y1229042D02*
D03*
D55*
X1513400Y1239300D02*
D03*
D56*
Y1273300D02*
D03*
D57*
X1551500Y1282300D02*
D03*
Y1287300D02*
D03*
Y1277300D02*
D03*
Y1272300D02*
D03*
X1530500Y1287300D02*
D03*
Y1282300D02*
D03*
Y1277300D02*
D03*
Y1272300D02*
D03*
D58*
X1471600Y1096560D02*
X1474640D01*
X1500400Y1086600D02*
X1500700Y1086900D01*
X1474640Y1096560D02*
X1484600Y1086600D01*
X1500400D01*
D59*
X1612900Y1252500D02*
X1640600D01*
D60*
X1510700Y1305500D02*
D03*
D61*
X1582550Y1282100D02*
D03*
D62*
X1570950Y1265750D02*
D03*
D63*
X1525300Y1123600D02*
D03*
D64*
X1511550Y1098350D02*
D03*
D65*
X1473350Y1117650D02*
D03*
M02*
