G04 Layer_Color=2752767*
%FSAX24Y24*%
%MOIN*%
G70*
G01*
G75*
%ADD71C,0.0050*%
%ADD102C,0.0067*%
D71*
X-013640Y-007510D02*
Y-007110D01*
X-013240D01*
Y-007510D01*
X-013640D01*
Y-006510D02*
Y-006110D01*
X-013240D01*
Y-006510D01*
X-013640D01*
X-014781Y-013009D02*
Y-012609D01*
X-014381D01*
Y-013009D01*
X-014781D01*
X-013781D02*
Y-012609D01*
X-013381D01*
Y-013009D01*
X-013781D01*
X-012781D02*
Y-012609D01*
X-012381D01*
Y-013009D01*
X-012781D01*
X-011781D02*
Y-012609D01*
X-011381D01*
Y-013009D01*
X-011781D01*
X-014771Y-001209D02*
Y-000809D01*
X-014371D01*
Y-001209D01*
X-014771D01*
X-013771D02*
Y-000809D01*
X-013371D01*
Y-001209D01*
X-013771D01*
X-012771D02*
Y-000809D01*
X-012371D01*
Y-001209D01*
X-012771D01*
X-011771D02*
Y-000809D01*
X-011371D01*
Y-001209D01*
X-011771D01*
X-016080Y-002170D02*
Y-001770D01*
X-015680D01*
Y-002170D01*
X-016080D01*
Y-001170D02*
Y-000770D01*
X-015680D01*
Y-001170D01*
X-016080D01*
X-006971Y-001209D02*
Y-000809D01*
X-006571D01*
Y-001209D01*
X-006971D01*
X-007971D02*
Y-000809D01*
X-007571D01*
Y-001209D01*
X-007971D01*
X-008971D02*
Y-000809D01*
X-008571D01*
Y-001209D01*
X-008971D01*
X-009971D02*
Y-000809D01*
X-009571D01*
Y-001209D01*
X-009971D01*
X-003640Y-001200D02*
Y-000800D01*
X-003240D01*
Y-001200D01*
X-003640D01*
X-004640D02*
Y-000800D01*
X-004240D01*
Y-001200D01*
X-004640D01*
X-005640D02*
Y-000800D01*
X-005240D01*
Y-001200D01*
X-005640D01*
X-018030Y-020044D02*
X-018230Y-019644D01*
X-017830D01*
X-018030Y-020044D01*
Y-022024D02*
X-018230Y-021624D01*
X-017830D01*
X-018030Y-022024D01*
X-004650Y-013020D02*
Y-012620D01*
X-004250D01*
Y-013020D01*
X-004650D01*
X-005650D02*
Y-012620D01*
X-005250D01*
Y-013020D01*
X-005650D01*
X-006650D02*
Y-012620D01*
X-006250D01*
Y-013020D01*
X-006650D01*
X-007650D02*
Y-012620D01*
X-007250D01*
Y-013020D01*
X-007650D01*
X-008650D02*
Y-012620D01*
X-008250D01*
Y-013020D01*
X-008650D01*
X-009650D02*
Y-012620D01*
X-009250D01*
Y-013020D01*
X-009650D01*
X-021180Y-015660D02*
Y-015260D01*
X-020780D01*
Y-015660D01*
X-021180D01*
X-020180D02*
Y-015260D01*
X-019780D01*
Y-015660D01*
X-020180D01*
X-019180D02*
Y-015260D01*
X-018780D01*
Y-015660D01*
X-019180D01*
X-018180D02*
Y-015260D01*
X-017780D01*
Y-015660D01*
X-018180D01*
Y-011660D02*
Y-011260D01*
X-017780D01*
Y-011660D01*
X-018180D01*
X-019180D02*
Y-011260D01*
X-018780D01*
Y-011660D01*
X-019180D01*
X-020180D02*
Y-011260D01*
X-019780D01*
Y-011660D01*
X-020180D01*
X-021180D02*
Y-011260D01*
X-020780D01*
Y-011660D01*
X-021180D01*
X-018180Y-007660D02*
Y-007260D01*
X-017780D01*
Y-007660D01*
X-018180D01*
X-019180D02*
Y-007260D01*
X-018780D01*
Y-007660D01*
X-019180D01*
X-020180D02*
Y-007260D01*
X-019780D01*
Y-007660D01*
X-020180D01*
X-021180D02*
Y-007260D01*
X-020780D01*
Y-007660D01*
X-021180D01*
X-018180Y-003660D02*
Y-003260D01*
X-017780D01*
Y-003660D01*
X-018180D01*
X-019180D02*
Y-003260D01*
X-018780D01*
Y-003660D01*
X-019180D01*
X-020180D02*
Y-003260D01*
X-019780D01*
Y-003660D01*
X-020180D01*
X-021180D02*
Y-003260D01*
X-020780D01*
Y-003660D01*
X-021180D01*
X-018180Y-001660D02*
Y-001260D01*
X-017780D01*
Y-001660D01*
X-018180D01*
X-019180D02*
Y-001260D01*
X-018780D01*
Y-001660D01*
X-019180D01*
X-020180D02*
Y-001260D01*
X-019780D01*
Y-001660D01*
X-020180D01*
X-021180D02*
Y-001260D01*
X-020780D01*
Y-001660D01*
X-021180D01*
X-018180Y-013660D02*
Y-013260D01*
X-017780D01*
Y-013660D01*
X-018180D01*
X-019180D02*
Y-013260D01*
X-018780D01*
Y-013660D01*
X-019180D01*
X-020180D02*
Y-013260D01*
X-019780D01*
Y-013660D01*
X-020180D01*
X-021180D02*
Y-013260D01*
X-020780D01*
Y-013660D01*
X-021180D01*
X-018180Y-009660D02*
Y-009260D01*
X-017780D01*
Y-009660D01*
X-018180D01*
X-019180D02*
Y-009260D01*
X-018780D01*
Y-009660D01*
X-019180D01*
X-020180D02*
Y-009260D01*
X-019780D01*
Y-009660D01*
X-020180D01*
X-021180D02*
Y-009260D01*
X-020780D01*
Y-009660D01*
X-021180D01*
X-018180Y-005660D02*
Y-005260D01*
X-017780D01*
Y-005660D01*
X-018180D01*
X-019180D02*
Y-005260D01*
X-018780D01*
Y-005660D01*
X-019180D01*
X-020180D02*
Y-005260D01*
X-019780D01*
Y-005660D01*
X-020180D01*
X-021180D02*
Y-005260D01*
X-020780D01*
Y-005660D01*
X-021180D01*
X-015587Y-010856D02*
X-015487Y-010756D01*
X-015387D01*
X-015487Y-010656D01*
X-015387Y-010556D01*
X-015487D01*
X-015587Y-010456D01*
X-015687Y-010556D01*
X-015787D01*
X-015687Y-010656D01*
X-015787Y-010756D01*
X-015687D01*
X-015587Y-010856D01*
X-014317Y-010836D02*
X-014217Y-010736D01*
X-014117D01*
X-014217Y-010636D01*
X-014117Y-010536D01*
X-014217D01*
X-014317Y-010436D01*
X-014417Y-010536D01*
X-014517D01*
X-014417Y-010636D01*
X-014517Y-010736D01*
X-014417D01*
X-014317Y-010836D01*
X-015587Y-009636D02*
X-015487Y-009536D01*
X-015387D01*
X-015487Y-009436D01*
X-015387Y-009336D01*
X-015487D01*
X-015587Y-009236D01*
X-015687Y-009336D01*
X-015787D01*
X-015687Y-009436D01*
X-015787Y-009536D01*
X-015687D01*
X-015587Y-009636D01*
X-014317Y-009626D02*
X-014217Y-009526D01*
X-014117D01*
X-014217Y-009426D01*
X-014117Y-009326D01*
X-014217D01*
X-014317Y-009226D01*
X-014417Y-009326D01*
X-014517D01*
X-014417Y-009426D01*
X-014517Y-009526D01*
X-014417D01*
X-014317Y-009626D01*
X-014957Y-011136D02*
X-014857Y-011036D01*
X-014757D01*
X-014857Y-010936D01*
X-014757Y-010836D01*
X-014857D01*
X-014957Y-010736D01*
X-015057Y-010836D01*
X-015157D01*
X-015057Y-010936D01*
X-015157Y-011036D01*
X-015057D01*
X-014957Y-011136D01*
X-014067Y-010256D02*
X-013967Y-010156D01*
X-013867D01*
X-013967Y-010056D01*
X-013867Y-009956D01*
X-013967D01*
X-014067Y-009856D01*
X-014167Y-009956D01*
X-014267D01*
X-014167Y-010056D01*
X-014267Y-010156D01*
X-014167D01*
X-014067Y-010256D01*
X-014917Y-009356D02*
X-014817Y-009256D01*
X-014717D01*
X-014817Y-009156D01*
X-014717Y-009056D01*
X-014817D01*
X-014917Y-008956D01*
X-015017Y-009056D01*
X-015117D01*
X-015017Y-009156D01*
X-015117Y-009256D01*
X-015017D01*
X-014917Y-009356D01*
X-015857Y-010276D02*
X-015757Y-010176D01*
X-015657D01*
X-015757Y-010076D01*
X-015657Y-009976D01*
X-015757D01*
X-015857Y-009876D01*
X-015957Y-009976D01*
X-016057D01*
X-015957Y-010076D01*
X-016057Y-010176D01*
X-015957D01*
X-015857Y-010276D01*
X-018220Y-017520D02*
Y-017120D01*
X-017820D01*
Y-017520D01*
X-018220D01*
X-019220D02*
Y-017120D01*
X-018820D01*
Y-017520D01*
X-019220D01*
X-020220D02*
Y-017120D01*
X-019820D01*
Y-017520D01*
X-020220D01*
X-021220D02*
Y-017120D01*
X-020820D01*
Y-017520D01*
X-021220D01*
X-005817Y-031726D02*
X-005717Y-031626D01*
X-005617D01*
X-005717Y-031526D01*
X-005617Y-031426D01*
X-005717D01*
X-005817Y-031326D01*
X-005917Y-031426D01*
X-006017D01*
X-005917Y-031526D01*
X-006017Y-031626D01*
X-005917D01*
X-005817Y-031726D01*
X-004877Y-030806D02*
X-004777Y-030706D01*
X-004677D01*
X-004777Y-030606D01*
X-004677Y-030506D01*
X-004777D01*
X-004877Y-030406D01*
X-004977Y-030506D01*
X-005077D01*
X-004977Y-030606D01*
X-005077Y-030706D01*
X-004977D01*
X-004877Y-030806D01*
X-004027Y-031706D02*
X-003927Y-031606D01*
X-003827D01*
X-003927Y-031506D01*
X-003827Y-031406D01*
X-003927D01*
X-004027Y-031306D01*
X-004127Y-031406D01*
X-004227D01*
X-004127Y-031506D01*
X-004227Y-031606D01*
X-004127D01*
X-004027Y-031706D01*
X-004917Y-032586D02*
X-004817Y-032486D01*
X-004717D01*
X-004817Y-032386D01*
X-004717Y-032286D01*
X-004817D01*
X-004917Y-032186D01*
X-005017Y-032286D01*
X-005117D01*
X-005017Y-032386D01*
X-005117Y-032486D01*
X-005017D01*
X-004917Y-032586D01*
X-004277Y-031076D02*
X-004177Y-030976D01*
X-004077D01*
X-004177Y-030876D01*
X-004077Y-030776D01*
X-004177D01*
X-004277Y-030676D01*
X-004377Y-030776D01*
X-004477D01*
X-004377Y-030876D01*
X-004477Y-030976D01*
X-004377D01*
X-004277Y-031076D01*
X-005547Y-031086D02*
X-005447Y-030986D01*
X-005347D01*
X-005447Y-030886D01*
X-005347Y-030786D01*
X-005447D01*
X-005547Y-030686D01*
X-005647Y-030786D01*
X-005747D01*
X-005647Y-030886D01*
X-005747Y-030986D01*
X-005647D01*
X-005547Y-031086D01*
X-004277Y-032286D02*
X-004177Y-032186D01*
X-004077D01*
X-004177Y-032086D01*
X-004077Y-031986D01*
X-004177D01*
X-004277Y-031886D01*
X-004377Y-031986D01*
X-004477D01*
X-004377Y-032086D01*
X-004477Y-032186D01*
X-004377D01*
X-004277Y-032286D01*
X-005547Y-032306D02*
X-005447Y-032206D01*
X-005347D01*
X-005447Y-032106D01*
X-005347Y-032006D01*
X-005447D01*
X-005547Y-031906D01*
X-005647Y-032006D01*
X-005747D01*
X-005647Y-032106D01*
X-005747Y-032206D01*
X-005647D01*
X-005547Y-032306D01*
X-004040Y-010720D02*
Y-010320D01*
X-003640D01*
Y-010720D01*
X-004040D01*
Y-002720D02*
Y-002320D01*
X-003640D01*
Y-002720D01*
X-004040D01*
Y-003720D02*
Y-003320D01*
X-003640D01*
Y-003720D01*
X-004040D01*
Y-004720D02*
Y-004320D01*
X-003640D01*
Y-004720D01*
X-004040D01*
Y-005720D02*
Y-005320D01*
X-003640D01*
Y-005720D01*
X-004040D01*
Y-006720D02*
Y-006320D01*
X-003640D01*
Y-006720D01*
X-004040D01*
Y-007720D02*
Y-007320D01*
X-003640D01*
Y-007720D01*
X-004040D01*
Y-008720D02*
Y-008320D01*
X-003640D01*
Y-008720D01*
X-004040D01*
Y-009720D02*
Y-009320D01*
X-003640D01*
Y-009720D01*
X-004040D01*
X-001350Y-013140D02*
X-001250Y-012940D01*
X-001350Y-012740D01*
X-001150Y-012840D01*
X-000950Y-012740D01*
X-001050Y-012940D01*
X-000950Y-013140D01*
X-001150Y-013040D01*
X-001350Y-013140D01*
X-002350D02*
X-002250Y-012940D01*
X-002350Y-012740D01*
X-002150Y-012840D01*
X-001950Y-012740D01*
X-002050Y-012940D01*
X-001950Y-013140D01*
X-002150Y-013040D01*
X-002350Y-013140D01*
X-001350Y-012140D02*
X-001250Y-011940D01*
X-001350Y-011740D01*
X-001150Y-011840D01*
X-000950Y-011740D01*
X-001050Y-011940D01*
X-000950Y-012140D01*
X-001150Y-012040D01*
X-001350Y-012140D01*
X-002350D02*
X-002250Y-011940D01*
X-002350Y-011740D01*
X-002150Y-011840D01*
X-001950Y-011740D01*
X-002050Y-011940D01*
X-001950Y-012140D01*
X-002150Y-012040D01*
X-002350Y-012140D01*
X-001350Y-011140D02*
X-001250Y-010940D01*
X-001350Y-010740D01*
X-001150Y-010840D01*
X-000950Y-010740D01*
X-001050Y-010940D01*
X-000950Y-011140D01*
X-001150Y-011040D01*
X-001350Y-011140D01*
X-002350D02*
X-002250Y-010940D01*
X-002350Y-010740D01*
X-002150Y-010840D01*
X-001950Y-010740D01*
X-002050Y-010940D01*
X-001950Y-011140D01*
X-002150Y-011040D01*
X-002350Y-011140D01*
X-001350Y-010140D02*
X-001250Y-009940D01*
X-001350Y-009740D01*
X-001150Y-009840D01*
X-000950Y-009740D01*
X-001050Y-009940D01*
X-000950Y-010140D01*
X-001150Y-010040D01*
X-001350Y-010140D01*
X-002350D02*
X-002250Y-009940D01*
X-002350Y-009740D01*
X-002150Y-009840D01*
X-001950Y-009740D01*
X-002050Y-009940D01*
X-001950Y-010140D01*
X-002150Y-010040D01*
X-002350Y-010140D01*
X-001350Y-009140D02*
X-001250Y-008940D01*
X-001350Y-008740D01*
X-001150Y-008840D01*
X-000950Y-008740D01*
X-001050Y-008940D01*
X-000950Y-009140D01*
X-001150Y-009040D01*
X-001350Y-009140D01*
X-002350D02*
X-002250Y-008940D01*
X-002350Y-008740D01*
X-002150Y-008840D01*
X-001950Y-008740D01*
X-002050Y-008940D01*
X-001950Y-009140D01*
X-002150Y-009040D01*
X-002350Y-009140D01*
X-001350Y-008140D02*
X-001250Y-007940D01*
X-001350Y-007740D01*
X-001150Y-007840D01*
X-000950Y-007740D01*
X-001050Y-007940D01*
X-000950Y-008140D01*
X-001150Y-008040D01*
X-001350Y-008140D01*
X-002350D02*
X-002250Y-007940D01*
X-002350Y-007740D01*
X-002150Y-007840D01*
X-001950Y-007740D01*
X-002050Y-007940D01*
X-001950Y-008140D01*
X-002150Y-008040D01*
X-002350Y-008140D01*
X-001350Y-007140D02*
X-001250Y-006940D01*
X-001350Y-006740D01*
X-001150Y-006840D01*
X-000950Y-006740D01*
X-001050Y-006940D01*
X-000950Y-007140D01*
X-001150Y-007040D01*
X-001350Y-007140D01*
X-002350D02*
X-002250Y-006940D01*
X-002350Y-006740D01*
X-002150Y-006840D01*
X-001950Y-006740D01*
X-002050Y-006940D01*
X-001950Y-007140D01*
X-002150Y-007040D01*
X-002350Y-007140D01*
X-001350Y-006140D02*
X-001250Y-005940D01*
X-001350Y-005740D01*
X-001150Y-005840D01*
X-000950Y-005740D01*
X-001050Y-005940D01*
X-000950Y-006140D01*
X-001150Y-006040D01*
X-001350Y-006140D01*
X-002350D02*
X-002250Y-005940D01*
X-002350Y-005740D01*
X-002150Y-005840D01*
X-001950Y-005740D01*
X-002050Y-005940D01*
X-001950Y-006140D01*
X-002150Y-006040D01*
X-002350Y-006140D01*
X-001350Y-005140D02*
X-001250Y-004940D01*
X-001350Y-004740D01*
X-001150Y-004840D01*
X-000950Y-004740D01*
X-001050Y-004940D01*
X-000950Y-005140D01*
X-001150Y-005040D01*
X-001350Y-005140D01*
X-002350D02*
X-002250Y-004940D01*
X-002350Y-004740D01*
X-002150Y-004840D01*
X-001950Y-004740D01*
X-002050Y-004940D01*
X-001950Y-005140D01*
X-002150Y-005040D01*
X-002350Y-005140D01*
X-001350Y-004140D02*
X-001250Y-003940D01*
X-001350Y-003740D01*
X-001150Y-003840D01*
X-000950Y-003740D01*
X-001050Y-003940D01*
X-000950Y-004140D01*
X-001150Y-004040D01*
X-001350Y-004140D01*
X-002350D02*
X-002250Y-003940D01*
X-002350Y-003740D01*
X-002150Y-003840D01*
X-001950Y-003740D01*
X-002050Y-003940D01*
X-001950Y-004140D01*
X-002150Y-004040D01*
X-002350Y-004140D01*
X-001350Y-003140D02*
X-001250Y-002940D01*
X-001350Y-002740D01*
X-001150Y-002840D01*
X-000950Y-002740D01*
X-001050Y-002940D01*
X-000950Y-003140D01*
X-001150Y-003040D01*
X-001350Y-003140D01*
X-002350D02*
X-002250Y-002940D01*
X-002350Y-002740D01*
X-002150Y-002840D01*
X-001950Y-002740D01*
X-002050Y-002940D01*
X-001950Y-003140D01*
X-002150Y-003040D01*
X-002350Y-003140D01*
X-001350Y-002140D02*
X-001250Y-001940D01*
X-001350Y-001740D01*
X-001150Y-001840D01*
X-000950Y-001740D01*
X-001050Y-001940D01*
X-000950Y-002140D01*
X-001150Y-002040D01*
X-001350Y-002140D01*
X-002350D02*
X-002250Y-001940D01*
X-002350Y-001740D01*
X-002150Y-001840D01*
X-001950Y-001740D01*
X-002050Y-001940D01*
X-001950Y-002140D01*
X-002150Y-002040D01*
X-002350Y-002140D01*
X-001350Y-001140D02*
X-001250Y-000940D01*
X-001350Y-000740D01*
X-001150Y-000840D01*
X-000950Y-000740D01*
X-001050Y-000940D01*
X-000950Y-001140D01*
X-001150Y-001040D01*
X-001350Y-001140D01*
X-002350D02*
X-002250Y-000940D01*
X-002350Y-000740D01*
X-002150Y-000840D01*
X-001950Y-000740D01*
X-002050Y-000940D01*
X-001950Y-001140D01*
X-002150Y-001040D01*
X-002350Y-001140D01*
X-010190Y-005590D02*
Y-005690D01*
X-009990D01*
Y-005590D01*
X-009890D01*
Y-005390D01*
X-009990D01*
Y-005290D01*
X-010190D01*
Y-005390D01*
X-010290D01*
Y-005590D01*
X-010190D01*
X-012260Y-005820D02*
Y-005920D01*
X-012060D01*
Y-005820D01*
X-011960D01*
Y-005620D01*
X-012060D01*
Y-005520D01*
X-012260D01*
Y-005620D01*
X-012360D01*
Y-005820D01*
X-012260D01*
X-010940Y-010970D02*
Y-011070D01*
X-010740D01*
Y-010970D01*
X-010640D01*
Y-010770D01*
X-010740D01*
Y-010670D01*
X-010940D01*
Y-010770D01*
X-011040D01*
Y-010970D01*
X-010940D01*
X-012080D02*
Y-011070D01*
X-011880D01*
Y-010970D01*
X-011780D01*
Y-010770D01*
X-011880D01*
Y-010670D01*
X-012080D01*
Y-010770D01*
X-012180D01*
Y-010970D01*
X-012080D01*
X-009200Y-009960D02*
Y-010060D01*
X-009000D01*
Y-009960D01*
X-008900D01*
Y-009760D01*
X-009000D01*
Y-009660D01*
X-009200D01*
Y-009760D01*
X-009300D01*
Y-009960D01*
X-009200D01*
X-011570Y-006170D02*
Y-006270D01*
X-011370D01*
Y-006170D01*
X-011270D01*
Y-005970D01*
X-011370D01*
Y-005870D01*
X-011570D01*
Y-005970D01*
X-011670D01*
Y-006170D01*
X-011570D01*
X-007420Y-005830D02*
Y-005930D01*
X-007220D01*
Y-005830D01*
X-007120D01*
Y-005630D01*
X-007220D01*
Y-005530D01*
X-007420D01*
Y-005630D01*
X-007520D01*
Y-005830D01*
X-007420D01*
X-008400Y-006850D02*
Y-006950D01*
X-008200D01*
Y-006850D01*
X-008100D01*
Y-006650D01*
X-008200D01*
Y-006550D01*
X-008400D01*
Y-006650D01*
X-008500D01*
Y-006850D01*
X-008400D01*
X-006650Y-003080D02*
Y-003180D01*
X-006450D01*
Y-003080D01*
X-006350D01*
Y-002880D01*
X-006450D01*
Y-002780D01*
X-006650D01*
Y-002880D01*
X-006750D01*
Y-003080D01*
X-006650D01*
X-010790Y-001200D02*
Y-001300D01*
X-010590D01*
Y-001200D01*
X-010490D01*
Y-001000D01*
X-010590D01*
Y-000900D01*
X-010790D01*
Y-001000D01*
X-010890D01*
Y-001200D01*
X-010790D01*
X-005480Y-008280D02*
Y-008380D01*
X-005280D01*
Y-008280D01*
X-005180D01*
Y-008080D01*
X-005280D01*
Y-007980D01*
X-005480D01*
Y-008080D01*
X-005580D01*
Y-008280D01*
X-005480D01*
X-006610Y-010340D02*
Y-010440D01*
X-006410D01*
Y-010340D01*
X-006310D01*
Y-010140D01*
X-006410D01*
Y-010040D01*
X-006610D01*
Y-010140D01*
X-006710D01*
Y-010340D01*
X-006610D01*
X-016870Y-006050D02*
Y-006150D01*
X-016670D01*
Y-006050D01*
X-016570D01*
Y-005850D01*
X-016670D01*
Y-005750D01*
X-016870D01*
Y-005850D01*
X-016970D01*
Y-006050D01*
X-016870D01*
Y-005520D02*
Y-005620D01*
X-016670D01*
Y-005520D01*
X-016570D01*
Y-005320D01*
X-016670D01*
Y-005220D01*
X-016870D01*
Y-005320D01*
X-016970D01*
Y-005520D01*
X-016870D01*
X-009880Y-011320D02*
Y-011420D01*
X-009680D01*
Y-011320D01*
X-009580D01*
Y-011120D01*
X-009680D01*
Y-011020D01*
X-009880D01*
Y-011120D01*
X-009980D01*
Y-011320D01*
X-009880D01*
X-014370Y-018610D02*
Y-018710D01*
X-014170D01*
Y-018610D01*
X-014070D01*
Y-018410D01*
X-014170D01*
Y-018310D01*
X-014370D01*
Y-018410D01*
X-014470D01*
Y-018610D01*
X-014370D01*
X-014360Y-019140D02*
Y-019240D01*
X-014160D01*
Y-019140D01*
X-014060D01*
Y-018940D01*
X-014160D01*
Y-018840D01*
X-014360D01*
Y-018940D01*
X-014460D01*
Y-019140D01*
X-014360D01*
X-013790Y-018610D02*
Y-018710D01*
X-013590D01*
Y-018610D01*
X-013490D01*
Y-018410D01*
X-013590D01*
Y-018310D01*
X-013790D01*
Y-018410D01*
X-013890D01*
Y-018610D01*
X-013790D01*
X-013270Y-019160D02*
Y-019260D01*
X-013070D01*
Y-019160D01*
X-012970D01*
Y-018960D01*
X-013070D01*
Y-018860D01*
X-013270D01*
Y-018960D01*
X-013370D01*
Y-019160D01*
X-013270D01*
X-013260Y-018620D02*
Y-018720D01*
X-013060D01*
Y-018620D01*
X-012960D01*
Y-018420D01*
X-013060D01*
Y-018320D01*
X-013260D01*
Y-018420D01*
X-013360D01*
Y-018620D01*
X-013260D01*
X-013810Y-019140D02*
Y-019240D01*
X-013610D01*
Y-019140D01*
X-013510D01*
Y-018940D01*
X-013610D01*
Y-018840D01*
X-013810D01*
Y-018940D01*
X-013910D01*
Y-019140D01*
X-013810D01*
X-009970Y-003050D02*
Y-003150D01*
X-009770D01*
Y-003050D01*
X-009670D01*
Y-002850D01*
X-009770D01*
Y-002750D01*
X-009970D01*
Y-002850D01*
X-010070D01*
Y-003050D01*
X-009970D01*
X-015161Y-010239D02*
X-015061D01*
X-014961Y-010139D01*
X-014861Y-010239D01*
X-014761D01*
Y-010139D01*
X-014861Y-010039D01*
X-014761Y-009939D01*
Y-009839D01*
X-014861D01*
X-014961Y-009939D01*
X-015061Y-009839D01*
X-015161D01*
Y-009939D01*
X-015061Y-010039D01*
X-015161Y-010139D01*
Y-010239D01*
X-013900Y-021130D02*
Y-021230D01*
X-013700D01*
Y-021130D01*
X-013600D01*
Y-020930D01*
X-013700D01*
Y-020830D01*
X-013900D01*
Y-020930D01*
X-014000D01*
Y-021130D01*
X-013900D01*
X-013910Y-021660D02*
Y-021760D01*
X-013710D01*
Y-021660D01*
X-013610D01*
Y-021460D01*
X-013710D01*
Y-021360D01*
X-013910D01*
Y-021460D01*
X-014010D01*
Y-021660D01*
X-013910D01*
X-005121Y-031696D02*
X-005021D01*
X-004921Y-031596D01*
X-004821Y-031696D01*
X-004721D01*
Y-031596D01*
X-004821Y-031496D01*
X-004721Y-031396D01*
Y-031296D01*
X-004821D01*
X-004921Y-031396D01*
X-005021Y-031296D01*
X-005121D01*
Y-031396D01*
X-005021Y-031496D01*
X-005121Y-031596D01*
Y-031696D01*
X-005590Y-002680D02*
Y-002780D01*
X-005390D01*
Y-002680D01*
X-005290D01*
Y-002480D01*
X-005390D01*
Y-002380D01*
X-005590D01*
Y-002480D01*
X-005690D01*
Y-002680D01*
X-005590D01*
Y-004650D02*
Y-004750D01*
X-005390D01*
Y-004650D01*
X-005290D01*
Y-004450D01*
X-005390D01*
Y-004350D01*
X-005590D01*
Y-004450D01*
X-005690D01*
Y-004650D01*
X-005590D01*
X-009130Y-014750D02*
Y-014850D01*
X-008930D01*
Y-014750D01*
X-008830D01*
Y-014550D01*
X-008930D01*
Y-014450D01*
X-009130D01*
Y-014550D01*
X-009230D01*
Y-014750D01*
X-009130D01*
X-012250Y-014560D02*
Y-014660D01*
X-012050D01*
Y-014560D01*
X-011950D01*
Y-014360D01*
X-012050D01*
Y-014260D01*
X-012250D01*
Y-014360D01*
X-012350D01*
Y-014560D01*
X-012250D01*
X-016480Y-015060D02*
Y-015160D01*
X-016280D01*
Y-015060D01*
X-016180D01*
Y-014860D01*
X-016280D01*
Y-014760D01*
X-016480D01*
Y-014860D01*
X-016580D01*
Y-015060D01*
X-016480D01*
X-016730Y-017640D02*
Y-017740D01*
X-016530D01*
Y-017640D01*
X-016430D01*
Y-017440D01*
X-016530D01*
Y-017340D01*
X-016730D01*
Y-017440D01*
X-016830D01*
Y-017640D01*
X-016730D01*
X-007160Y-014750D02*
Y-014850D01*
X-006960D01*
Y-014750D01*
X-006860D01*
Y-014550D01*
X-006960D01*
Y-014450D01*
X-007160D01*
Y-014550D01*
X-007260D01*
Y-014750D01*
X-007160D01*
X-019150Y-019060D02*
Y-019160D01*
X-018950D01*
Y-019060D01*
X-018850D01*
Y-018860D01*
X-018950D01*
Y-018760D01*
X-019150D01*
Y-018860D01*
X-019250D01*
Y-019060D01*
X-019150D01*
X-017340Y-019450D02*
Y-019550D01*
X-017140D01*
Y-019450D01*
X-017040D01*
Y-019250D01*
X-017140D01*
Y-019150D01*
X-017340D01*
Y-019250D01*
X-017440D01*
Y-019450D01*
X-017340D01*
X-011000Y-019870D02*
Y-019970D01*
X-010800D01*
Y-019870D01*
X-010700D01*
Y-019670D01*
X-010800D01*
Y-019570D01*
X-011000D01*
Y-019670D01*
X-011100D01*
Y-019870D01*
X-011000D01*
X-011920Y-018920D02*
Y-019020D01*
X-011720D01*
Y-018920D01*
X-011620D01*
Y-018720D01*
X-011720D01*
Y-018620D01*
X-011920D01*
Y-018720D01*
X-012020D01*
Y-018920D01*
X-011920D01*
D102*
X-018910Y-020084D02*
G03*
X-018910Y-020084I-000200J000000D01*
G01*
Y-021614D02*
G03*
X-018910Y-021614I-000200J000000D01*
G01*
M02*
