G04 Layer_Color=65535*
%FSAX25Y25*%
%MOIN*%
G70*
G01*
G75*
%ADD66C,0.02362*%
%ADD67C,0.00984*%
%ADD68C,0.01575*%
%ADD69C,0.01000*%
%ADD70C,0.00787*%
%ADD71C,0.00500*%
%ADD72C,0.00800*%
%ADD73C,0.00394*%
%ADD74C,0.00591*%
G36*
X1562787Y1269226D02*
Y1267600D01*
X1562276D01*
Y1269226D01*
X1560794Y1271441D01*
X1561411D01*
X1562165Y1270275D01*
Y1270269D01*
X1562176Y1270259D01*
X1562187Y1270242D01*
X1562199Y1270220D01*
X1562221Y1270192D01*
X1562243Y1270158D01*
X1562293Y1270075D01*
X1562354Y1269975D01*
X1562421Y1269864D01*
X1562493Y1269748D01*
X1562559Y1269626D01*
Y1269631D01*
X1562565Y1269642D01*
X1562576Y1269659D01*
X1562593Y1269681D01*
X1562609Y1269709D01*
X1562632Y1269742D01*
X1562681Y1269825D01*
X1562743Y1269925D01*
X1562815Y1270042D01*
X1562898Y1270170D01*
X1562987Y1270308D01*
X1563725Y1271441D01*
X1564319D01*
X1562787Y1269226D01*
D02*
G37*
G36*
X1565950Y1271452D02*
X1565995Y1271446D01*
X1566050Y1271441D01*
X1566111Y1271430D01*
X1566172Y1271418D01*
X1566317Y1271380D01*
X1566461Y1271324D01*
X1566533Y1271291D01*
X1566605Y1271252D01*
X1566672Y1271202D01*
X1566733Y1271146D01*
X1566739Y1271141D01*
X1566750Y1271135D01*
X1566761Y1271113D01*
X1566783Y1271091D01*
X1566811Y1271063D01*
X1566838Y1271024D01*
X1566866Y1270986D01*
X1566899Y1270936D01*
X1566955Y1270830D01*
X1567010Y1270697D01*
X1567033Y1270630D01*
X1567044Y1270553D01*
X1567055Y1270475D01*
X1567060Y1270392D01*
Y1270381D01*
Y1270353D01*
X1567055Y1270308D01*
X1567049Y1270247D01*
X1567038Y1270181D01*
X1567016Y1270103D01*
X1566994Y1270020D01*
X1566961Y1269936D01*
X1566955Y1269925D01*
X1566944Y1269898D01*
X1566922Y1269853D01*
X1566888Y1269792D01*
X1566844Y1269726D01*
X1566788Y1269642D01*
X1566722Y1269559D01*
X1566644Y1269465D01*
X1566633Y1269454D01*
X1566605Y1269420D01*
X1566578Y1269393D01*
X1566550Y1269365D01*
X1566516Y1269332D01*
X1566472Y1269287D01*
X1566428Y1269243D01*
X1566372Y1269193D01*
X1566317Y1269137D01*
X1566250Y1269076D01*
X1566178Y1269015D01*
X1566100Y1268943D01*
X1566011Y1268871D01*
X1565923Y1268793D01*
X1565917Y1268788D01*
X1565906Y1268777D01*
X1565884Y1268760D01*
X1565856Y1268738D01*
X1565823Y1268704D01*
X1565784Y1268671D01*
X1565695Y1268599D01*
X1565601Y1268516D01*
X1565512Y1268433D01*
X1565434Y1268360D01*
X1565401Y1268333D01*
X1565373Y1268305D01*
X1565368Y1268299D01*
X1565351Y1268283D01*
X1565329Y1268260D01*
X1565301Y1268227D01*
X1565273Y1268188D01*
X1565240Y1268149D01*
X1565173Y1268055D01*
X1567066D01*
Y1267600D01*
X1564519D01*
Y1267606D01*
Y1267628D01*
Y1267661D01*
X1564524Y1267706D01*
X1564530Y1267755D01*
X1564541Y1267811D01*
X1564552Y1267866D01*
X1564574Y1267927D01*
Y1267933D01*
X1564580Y1267939D01*
X1564591Y1267972D01*
X1564613Y1268022D01*
X1564646Y1268088D01*
X1564691Y1268166D01*
X1564746Y1268255D01*
X1564807Y1268344D01*
X1564885Y1268438D01*
Y1268444D01*
X1564896Y1268449D01*
X1564924Y1268482D01*
X1564974Y1268532D01*
X1565046Y1268605D01*
X1565129Y1268688D01*
X1565234Y1268788D01*
X1565362Y1268899D01*
X1565501Y1269015D01*
X1565506Y1269021D01*
X1565529Y1269037D01*
X1565562Y1269065D01*
X1565601Y1269098D01*
X1565651Y1269143D01*
X1565712Y1269193D01*
X1565773Y1269248D01*
X1565845Y1269309D01*
X1565984Y1269443D01*
X1566123Y1269576D01*
X1566189Y1269642D01*
X1566250Y1269709D01*
X1566306Y1269770D01*
X1566350Y1269831D01*
Y1269837D01*
X1566361Y1269842D01*
X1566372Y1269859D01*
X1566383Y1269881D01*
X1566422Y1269942D01*
X1566467Y1270014D01*
X1566505Y1270103D01*
X1566544Y1270197D01*
X1566566Y1270303D01*
X1566578Y1270403D01*
Y1270408D01*
Y1270414D01*
X1566572Y1270447D01*
X1566566Y1270503D01*
X1566550Y1270564D01*
X1566528Y1270641D01*
X1566489Y1270719D01*
X1566439Y1270797D01*
X1566372Y1270875D01*
X1566361Y1270886D01*
X1566333Y1270908D01*
X1566294Y1270936D01*
X1566234Y1270974D01*
X1566156Y1271008D01*
X1566067Y1271041D01*
X1565961Y1271063D01*
X1565845Y1271069D01*
X1565812D01*
X1565790Y1271063D01*
X1565723Y1271058D01*
X1565645Y1271041D01*
X1565562Y1271019D01*
X1565467Y1270980D01*
X1565379Y1270930D01*
X1565296Y1270863D01*
X1565284Y1270852D01*
X1565262Y1270825D01*
X1565229Y1270780D01*
X1565196Y1270714D01*
X1565157Y1270636D01*
X1565123Y1270536D01*
X1565101Y1270425D01*
X1565090Y1270297D01*
X1564607Y1270347D01*
Y1270353D01*
X1564613Y1270369D01*
Y1270397D01*
X1564618Y1270436D01*
X1564629Y1270481D01*
X1564641Y1270530D01*
X1564657Y1270592D01*
X1564674Y1270652D01*
X1564718Y1270786D01*
X1564785Y1270919D01*
X1564824Y1270986D01*
X1564874Y1271052D01*
X1564924Y1271113D01*
X1564979Y1271169D01*
X1564985Y1271174D01*
X1564996Y1271180D01*
X1565012Y1271196D01*
X1565040Y1271213D01*
X1565073Y1271235D01*
X1565112Y1271257D01*
X1565157Y1271285D01*
X1565212Y1271313D01*
X1565273Y1271341D01*
X1565340Y1271368D01*
X1565412Y1271391D01*
X1565490Y1271413D01*
X1565573Y1271430D01*
X1565662Y1271446D01*
X1565756Y1271452D01*
X1565856Y1271457D01*
X1565911D01*
X1565950Y1271452D01*
D02*
G37*
G36*
X1526774Y1126861D02*
X1526818D01*
X1526874Y1126855D01*
X1526935Y1126850D01*
X1526996Y1126844D01*
X1527134Y1126822D01*
X1527284Y1126789D01*
X1527429Y1126744D01*
X1527567Y1126684D01*
X1527573D01*
X1527584Y1126672D01*
X1527601Y1126661D01*
X1527623Y1126650D01*
X1527684Y1126606D01*
X1527756Y1126545D01*
X1527839Y1126467D01*
X1527917Y1126378D01*
X1527995Y1126267D01*
X1528056Y1126145D01*
Y1126140D01*
X1528061Y1126128D01*
X1528067Y1126106D01*
X1528078Y1126079D01*
X1528089Y1126045D01*
X1528100Y1126001D01*
X1528117Y1125951D01*
X1528128Y1125890D01*
X1528139Y1125823D01*
X1528156Y1125751D01*
X1528167Y1125673D01*
X1528178Y1125590D01*
X1528189Y1125496D01*
X1528194Y1125396D01*
X1528200Y1125290D01*
Y1125179D01*
Y1122959D01*
X1527689D01*
Y1125179D01*
Y1125185D01*
Y1125202D01*
Y1125229D01*
Y1125263D01*
X1527684Y1125301D01*
Y1125351D01*
X1527678Y1125457D01*
X1527667Y1125579D01*
X1527651Y1125701D01*
X1527628Y1125818D01*
X1527617Y1125868D01*
X1527601Y1125918D01*
X1527595Y1125929D01*
X1527584Y1125956D01*
X1527556Y1125995D01*
X1527523Y1126051D01*
X1527484Y1126106D01*
X1527429Y1126167D01*
X1527362Y1126228D01*
X1527284Y1126278D01*
X1527273Y1126284D01*
X1527245Y1126301D01*
X1527195Y1126317D01*
X1527129Y1126339D01*
X1527051Y1126367D01*
X1526951Y1126384D01*
X1526846Y1126400D01*
X1526729Y1126406D01*
X1526674D01*
X1526641Y1126400D01*
X1526591D01*
X1526541Y1126395D01*
X1526418Y1126373D01*
X1526285Y1126345D01*
X1526158Y1126301D01*
X1526035Y1126239D01*
X1525980Y1126201D01*
X1525930Y1126156D01*
X1525924Y1126151D01*
X1525919Y1126145D01*
X1525908Y1126128D01*
X1525891Y1126106D01*
X1525875Y1126073D01*
X1525852Y1126040D01*
X1525830Y1125990D01*
X1525808Y1125940D01*
X1525786Y1125879D01*
X1525769Y1125807D01*
X1525747Y1125723D01*
X1525730Y1125634D01*
X1525714Y1125535D01*
X1525702Y1125429D01*
X1525691Y1125307D01*
Y1125179D01*
Y1122959D01*
X1525181D01*
Y1125179D01*
Y1125185D01*
Y1125207D01*
Y1125235D01*
Y1125274D01*
X1525186Y1125324D01*
Y1125379D01*
X1525192Y1125446D01*
X1525198Y1125512D01*
X1525214Y1125662D01*
X1525236Y1125818D01*
X1525270Y1125968D01*
X1525292Y1126040D01*
X1525314Y1126106D01*
Y1126112D01*
X1525319Y1126123D01*
X1525331Y1126140D01*
X1525342Y1126162D01*
X1525375Y1126223D01*
X1525425Y1126301D01*
X1525492Y1126389D01*
X1525569Y1126478D01*
X1525669Y1126573D01*
X1525791Y1126656D01*
X1525797D01*
X1525808Y1126667D01*
X1525825Y1126672D01*
X1525852Y1126689D01*
X1525886Y1126706D01*
X1525930Y1126722D01*
X1525974Y1126739D01*
X1526030Y1126761D01*
X1526091Y1126783D01*
X1526158Y1126800D01*
X1526230Y1126817D01*
X1526313Y1126833D01*
X1526396Y1126844D01*
X1526485Y1126855D01*
X1526685Y1126867D01*
X1526735D01*
X1526774Y1126861D01*
D02*
G37*
G36*
X1523222Y1123798D02*
X1523227Y1123803D01*
X1523255Y1123825D01*
X1523288Y1123859D01*
X1523344Y1123897D01*
X1523405Y1123947D01*
X1523483Y1124003D01*
X1523571Y1124064D01*
X1523671Y1124125D01*
X1523677D01*
X1523682Y1124131D01*
X1523716Y1124153D01*
X1523771Y1124180D01*
X1523838Y1124214D01*
X1523915Y1124253D01*
X1523999Y1124291D01*
X1524082Y1124330D01*
X1524165Y1124364D01*
Y1123909D01*
X1524160D01*
X1524148Y1123897D01*
X1524126Y1123892D01*
X1524099Y1123875D01*
X1524065Y1123859D01*
X1524026Y1123836D01*
X1523932Y1123781D01*
X1523821Y1123720D01*
X1523710Y1123642D01*
X1523594Y1123553D01*
X1523477Y1123459D01*
X1523471Y1123453D01*
X1523466Y1123448D01*
X1523449Y1123431D01*
X1523427Y1123415D01*
X1523377Y1123359D01*
X1523310Y1123292D01*
X1523244Y1123215D01*
X1523172Y1123126D01*
X1523111Y1123037D01*
X1523055Y1122943D01*
X1522750D01*
Y1126800D01*
X1523222D01*
Y1123798D01*
D02*
G37*
D66*
X1607067Y1209956D02*
G03*
X1607067Y1209956I-0001181J0000000D01*
G01*
X1570710Y1235537D02*
G03*
X1570710Y1235537I-0001181J0000000D01*
G01*
D67*
X1611339Y1217830D02*
G03*
X1611339Y1217830I-0000492J0000000D01*
G01*
X1601500Y1245100D02*
G03*
X1601500Y1245100I-0000492J0000000D01*
G01*
X1514946Y1115551D02*
G03*
X1514946Y1115551I-0000492J0000000D01*
G01*
X1582737Y1137380D02*
G03*
X1582737Y1137380I-0000492J0000000D01*
G01*
X1572777Y1245183D02*
G03*
X1572777Y1245183I-0000492J0000000D01*
G01*
X1563537Y1137380D02*
G03*
X1563537Y1137380I-0000492J0000000D01*
G01*
X1442800Y1128060D02*
X1489800D01*
X1442800Y1081360D02*
Y1128060D01*
D68*
X1519394Y1124606D02*
G03*
X1519394Y1124606I-0000787J0000000D01*
G01*
D69*
X1662800Y1312700D02*
G03*
X1662800Y1312700I-0000100J0000000D01*
G01*
X1489752Y1081160D02*
X1489800Y1127960D01*
X1442800Y1081100D02*
X1489700D01*
X1505400Y1245700D02*
Y1251698D01*
X1508399D01*
X1509399Y1250698D01*
Y1248699D01*
X1508399Y1247699D01*
X1505400D01*
X1511398Y1245700D02*
X1513397D01*
X1512398D01*
Y1251698D01*
X1511398Y1250698D01*
X1516396Y1246700D02*
X1517396Y1245700D01*
X1519396D01*
X1520395Y1246700D01*
Y1250698D01*
X1519396Y1251698D01*
X1517396D01*
X1516396Y1250698D01*
Y1249699D01*
X1517396Y1248699D01*
X1520395D01*
X1512500Y1200900D02*
Y1206898D01*
X1515499D01*
X1516499Y1205898D01*
Y1203899D01*
X1515499Y1202899D01*
X1512500D01*
X1518498Y1200900D02*
X1520497D01*
X1519498D01*
Y1206898D01*
X1518498Y1205898D01*
X1523496D02*
X1524496Y1206898D01*
X1526495D01*
X1527495Y1205898D01*
Y1204899D01*
X1526495Y1203899D01*
X1527495Y1202899D01*
Y1201900D01*
X1526495Y1200900D01*
X1524496D01*
X1523496Y1201900D01*
Y1202899D01*
X1524496Y1203899D01*
X1523496Y1204899D01*
Y1205898D01*
X1524496Y1203899D02*
X1526495D01*
X1525200Y1308200D02*
Y1313198D01*
X1527699D01*
X1528532Y1312365D01*
Y1310699D01*
X1527699Y1309866D01*
X1525200D01*
X1530198Y1308200D02*
X1531864D01*
X1531031D01*
Y1313198D01*
X1530198Y1312365D01*
X1534364Y1313198D02*
X1537696D01*
Y1312365D01*
X1534364Y1309033D01*
Y1308200D01*
X1448500Y1165100D02*
Y1171098D01*
X1451499D01*
X1452499Y1170098D01*
Y1168099D01*
X1451499Y1167099D01*
X1448500D01*
X1454498Y1165100D02*
X1456497D01*
X1455498D01*
Y1171098D01*
X1454498Y1170098D01*
X1463495Y1171098D02*
X1459496D01*
Y1168099D01*
X1461496Y1169099D01*
X1462496D01*
X1463495Y1168099D01*
Y1166100D01*
X1462496Y1165100D01*
X1460496D01*
X1459496Y1166100D01*
X1448500Y1185100D02*
Y1191098D01*
X1451499D01*
X1452499Y1190098D01*
Y1188099D01*
X1451499Y1187099D01*
X1448500D01*
X1454498Y1185100D02*
X1456497D01*
X1455498D01*
Y1191098D01*
X1454498Y1190098D01*
X1462496Y1185100D02*
Y1191098D01*
X1459496Y1188099D01*
X1463495D01*
X1448500Y1205100D02*
Y1211098D01*
X1451499D01*
X1452499Y1210098D01*
Y1208099D01*
X1451499Y1207099D01*
X1448500D01*
X1454498Y1205100D02*
X1456497D01*
X1455498D01*
Y1211098D01*
X1454498Y1210098D01*
X1459496D02*
X1460496Y1211098D01*
X1462496D01*
X1463495Y1210098D01*
Y1209099D01*
X1462496Y1208099D01*
X1461496D01*
X1462496D01*
X1463495Y1207099D01*
Y1206100D01*
X1462496Y1205100D01*
X1460496D01*
X1459496Y1206100D01*
X1448500Y1225100D02*
Y1231098D01*
X1451499D01*
X1452499Y1230098D01*
Y1228099D01*
X1451499Y1227099D01*
X1448500D01*
X1454498Y1225100D02*
X1456497D01*
X1455498D01*
Y1231098D01*
X1454498Y1230098D01*
X1463495Y1225100D02*
X1459496D01*
X1463495Y1229099D01*
Y1230098D01*
X1462496Y1231098D01*
X1460496D01*
X1459496Y1230098D01*
X1448500Y1245100D02*
Y1251098D01*
X1451499D01*
X1452499Y1250098D01*
Y1248099D01*
X1451499Y1247099D01*
X1448500D01*
X1454498Y1245100D02*
X1456497D01*
X1455498D01*
Y1251098D01*
X1454498Y1250098D01*
X1459496Y1245100D02*
X1461496D01*
X1460496D01*
Y1251098D01*
X1459496Y1250098D01*
X1448500Y1265100D02*
Y1271098D01*
X1451499D01*
X1452499Y1270098D01*
Y1268099D01*
X1451499Y1267099D01*
X1448500D01*
X1454498Y1265100D02*
X1456497D01*
X1455498D01*
Y1271098D01*
X1454498Y1270098D01*
X1459496D02*
X1460496Y1271098D01*
X1462496D01*
X1463495Y1270098D01*
Y1266100D01*
X1462496Y1265100D01*
X1460496D01*
X1459496Y1266100D01*
Y1270098D01*
X1448500Y1285100D02*
Y1291098D01*
X1451499D01*
X1452499Y1290098D01*
Y1288099D01*
X1451499Y1287099D01*
X1448500D01*
X1454498Y1286100D02*
X1455498Y1285100D01*
X1457497D01*
X1458497Y1286100D01*
Y1290098D01*
X1457497Y1291098D01*
X1455498D01*
X1454498Y1290098D01*
Y1289099D01*
X1455498Y1288099D01*
X1458497D01*
X1448500Y1305100D02*
Y1311098D01*
X1451499D01*
X1452499Y1310098D01*
Y1308099D01*
X1451499Y1307099D01*
X1448500D01*
X1454498Y1310098D02*
X1455498Y1311098D01*
X1457497D01*
X1458497Y1310098D01*
Y1309099D01*
X1457497Y1308099D01*
X1458497Y1307099D01*
Y1306100D01*
X1457497Y1305100D01*
X1455498D01*
X1454498Y1306100D01*
Y1307099D01*
X1455498Y1308099D01*
X1454498Y1309099D01*
Y1310098D01*
X1455498Y1308099D02*
X1457497D01*
X1548300Y1236298D02*
Y1231300D01*
X1549300Y1230300D01*
X1551299D01*
X1552299Y1231300D01*
Y1236298D01*
X1554298Y1235298D02*
X1555298Y1236298D01*
X1557297D01*
X1558297Y1235298D01*
Y1234299D01*
X1557297Y1233299D01*
X1556297D01*
X1557297D01*
X1558297Y1232299D01*
Y1231300D01*
X1557297Y1230300D01*
X1555298D01*
X1554298Y1231300D01*
X1613000Y1191800D02*
Y1197298D01*
X1615749D01*
X1616665Y1196382D01*
Y1194549D01*
X1615749Y1193633D01*
X1613000D01*
X1621247Y1191800D02*
Y1197298D01*
X1618498Y1194549D01*
X1622164D01*
X1589699Y1157598D02*
X1588699Y1158598D01*
X1586700D01*
X1585700Y1157598D01*
Y1153600D01*
X1586700Y1152600D01*
X1588699D01*
X1589699Y1153600D01*
X1595697Y1152600D02*
X1591698D01*
X1595697Y1156599D01*
Y1157598D01*
X1594697Y1158598D01*
X1592698D01*
X1591698Y1157598D01*
X1505866Y1113632D02*
X1505199Y1114299D01*
X1503866D01*
X1503200Y1113632D01*
Y1110966D01*
X1503866Y1110300D01*
X1505199D01*
X1505866Y1110966D01*
X1507199Y1113632D02*
X1507865Y1114299D01*
X1509198D01*
X1509865Y1113632D01*
Y1112966D01*
X1509198Y1112299D01*
X1508532D01*
X1509198D01*
X1509865Y1111633D01*
Y1110966D01*
X1509198Y1110300D01*
X1507865D01*
X1507199Y1110966D01*
X1607068Y1166066D02*
X1606401Y1165399D01*
Y1164067D01*
X1607068Y1163400D01*
X1609734D01*
X1610400Y1164067D01*
Y1165399D01*
X1609734Y1166066D01*
X1610400Y1169398D02*
X1606401D01*
X1608401Y1167399D01*
Y1170065D01*
X1503502Y1081500D02*
X1508500D01*
Y1083999D01*
X1507667Y1084832D01*
X1504335D01*
X1503502Y1083999D01*
Y1081500D01*
X1508500Y1086498D02*
Y1088165D01*
Y1087331D01*
X1503502D01*
X1504335Y1086498D01*
X1448200Y1102200D02*
Y1108198D01*
X1451199D01*
X1452199Y1107198D01*
Y1105199D01*
X1451199Y1104199D01*
X1448200D01*
X1454198Y1102200D02*
X1456197D01*
X1455198D01*
Y1108198D01*
X1454198Y1107198D01*
X1607200Y1286500D02*
Y1291998D01*
X1609949D01*
X1610866Y1291082D01*
Y1289249D01*
X1609949Y1288333D01*
X1607200D01*
X1612698Y1291082D02*
X1613615Y1291998D01*
X1615447D01*
X1616364Y1291082D01*
Y1290166D01*
X1615447Y1289249D01*
X1614531D01*
X1615447D01*
X1616364Y1288333D01*
Y1287416D01*
X1615447Y1286500D01*
X1613615D01*
X1612698Y1287416D01*
X1539100Y1161900D02*
Y1165899D01*
X1541099D01*
X1541766Y1165232D01*
Y1163899D01*
X1541099Y1163233D01*
X1539100D01*
X1540433D02*
X1541766Y1161900D01*
X1543099D02*
X1544432D01*
X1543765D01*
Y1165899D01*
X1543099Y1165232D01*
X1657500Y1168600D02*
X1661499D01*
Y1166601D01*
X1660832Y1165934D01*
X1659499D01*
X1658833Y1166601D01*
Y1168600D01*
Y1167267D02*
X1657500Y1165934D01*
Y1161936D02*
Y1164601D01*
X1660166Y1161936D01*
X1660832D01*
X1661499Y1162602D01*
Y1163935D01*
X1660832Y1164601D01*
X1529200Y1278700D02*
X1525201D01*
Y1280699D01*
X1525868Y1281366D01*
X1527201D01*
X1527867Y1280699D01*
Y1278700D01*
Y1280033D02*
X1529200Y1281366D01*
Y1282699D02*
Y1284032D01*
Y1283365D01*
X1525201D01*
X1525868Y1282699D01*
X1529200Y1286031D02*
Y1287364D01*
Y1286697D01*
X1525201D01*
X1525868Y1286031D01*
X1541400Y1099900D02*
Y1103899D01*
X1543399D01*
X1544066Y1103232D01*
Y1101899D01*
X1543399Y1101233D01*
X1541400D01*
X1542733D02*
X1544066Y1099900D01*
X1548065Y1103899D02*
X1545399D01*
Y1101899D01*
X1546732Y1102566D01*
X1547398D01*
X1548065Y1101899D01*
Y1100566D01*
X1547398Y1099900D01*
X1546065D01*
X1545399Y1100566D01*
X1537400Y1137100D02*
Y1141099D01*
X1539399D01*
X1540066Y1140432D01*
Y1139099D01*
X1539399Y1138433D01*
X1537400D01*
X1538733D02*
X1540066Y1137100D01*
X1544065Y1141099D02*
X1542732Y1140432D01*
X1541399Y1139099D01*
Y1137766D01*
X1542065Y1137100D01*
X1543398D01*
X1544065Y1137766D01*
Y1138433D01*
X1543398Y1139099D01*
X1541399D01*
X1549400Y1088200D02*
Y1092199D01*
X1551399D01*
X1552066Y1091532D01*
Y1090199D01*
X1551399Y1089533D01*
X1549400D01*
X1550733D02*
X1552066Y1088200D01*
X1553399Y1092199D02*
X1556065D01*
Y1091532D01*
X1553399Y1088867D01*
Y1088200D01*
X1504600Y1146900D02*
Y1150899D01*
X1506599D01*
X1507266Y1150232D01*
Y1148899D01*
X1506599Y1148233D01*
X1504600D01*
X1505933D02*
X1507266Y1146900D01*
X1508599Y1150232D02*
X1509265Y1150899D01*
X1510598D01*
X1511265Y1150232D01*
Y1149566D01*
X1510598Y1148899D01*
X1511265Y1148233D01*
Y1147567D01*
X1510598Y1146900D01*
X1509265D01*
X1508599Y1147567D01*
Y1148233D01*
X1509265Y1148899D01*
X1508599Y1149566D01*
Y1150232D01*
X1509265Y1148899D02*
X1510598D01*
X1596700Y1259799D02*
Y1256466D01*
X1597367Y1255800D01*
X1598699D01*
X1599366Y1256466D01*
Y1259799D01*
X1602698Y1255800D02*
Y1259799D01*
X1600699Y1257799D01*
X1603365D01*
X1615600Y1309700D02*
Y1313699D01*
X1617599D01*
X1618266Y1313032D01*
Y1311699D01*
X1617599Y1311033D01*
X1615600D01*
X1622264Y1313699D02*
X1619599D01*
Y1311699D01*
X1620932Y1312366D01*
X1621598D01*
X1622264Y1311699D01*
Y1310367D01*
X1621598Y1309700D01*
X1620265D01*
X1619599Y1310367D01*
X1448100Y1146500D02*
Y1152498D01*
X1451099D01*
X1452099Y1151498D01*
Y1149499D01*
X1451099Y1148499D01*
X1448100D01*
X1458097Y1152498D02*
X1456097Y1151498D01*
X1454098Y1149499D01*
Y1147500D01*
X1455098Y1146500D01*
X1457097D01*
X1458097Y1147500D01*
Y1148499D01*
X1457097Y1149499D01*
X1454098D01*
X1515966Y1178732D02*
X1515299Y1179399D01*
X1513966D01*
X1513300Y1178732D01*
Y1176066D01*
X1513966Y1175400D01*
X1515299D01*
X1515966Y1176066D01*
X1517299Y1178732D02*
X1517965Y1179399D01*
X1519298D01*
X1519965Y1178732D01*
Y1178066D01*
X1519298Y1177399D01*
X1519965Y1176733D01*
Y1176066D01*
X1519298Y1175400D01*
X1517965D01*
X1517299Y1176066D01*
Y1176733D01*
X1517965Y1177399D01*
X1517299Y1178066D01*
Y1178732D01*
X1517965Y1177399D02*
X1519298D01*
X1527966Y1178732D02*
X1527299Y1179399D01*
X1525966D01*
X1525300Y1178732D01*
Y1176066D01*
X1525966Y1175400D01*
X1527299D01*
X1527966Y1176066D01*
X1529299D02*
X1529965Y1175400D01*
X1531298D01*
X1531964Y1176066D01*
Y1178732D01*
X1531298Y1179399D01*
X1529965D01*
X1529299Y1178732D01*
Y1178066D01*
X1529965Y1177399D01*
X1531964D01*
X1564099Y1209998D02*
X1563099Y1210998D01*
X1561100D01*
X1560100Y1209998D01*
Y1206000D01*
X1561100Y1205000D01*
X1563099D01*
X1564099Y1206000D01*
X1566098Y1205000D02*
X1568097D01*
X1567098D01*
Y1210998D01*
X1566098Y1209998D01*
X1571096Y1205000D02*
X1573096D01*
X1572096D01*
Y1210998D01*
X1571096Y1209998D01*
X1533966Y1284732D02*
X1533299Y1285399D01*
X1531966D01*
X1531300Y1284732D01*
Y1282067D01*
X1531966Y1281400D01*
X1533299D01*
X1533966Y1282067D01*
X1535299Y1281400D02*
X1536632D01*
X1535965D01*
Y1285399D01*
X1535299Y1284732D01*
X1541297Y1281400D02*
X1538631D01*
X1541297Y1284066D01*
Y1284732D01*
X1540630Y1285399D01*
X1539297D01*
X1538631Y1284732D01*
X1589866Y1284532D02*
X1589199Y1285199D01*
X1587866D01*
X1587200Y1284532D01*
Y1281866D01*
X1587866Y1281200D01*
X1589199D01*
X1589866Y1281866D01*
X1591199Y1281200D02*
X1592532D01*
X1591865D01*
Y1285199D01*
X1591199Y1284532D01*
X1594531D02*
X1595197Y1285199D01*
X1596530D01*
X1597197Y1284532D01*
Y1283866D01*
X1596530Y1283199D01*
X1595864D01*
X1596530D01*
X1597197Y1282533D01*
Y1281866D01*
X1596530Y1281200D01*
X1595197D01*
X1594531Y1281866D01*
X1631900Y1164099D02*
Y1160100D01*
X1633899D01*
X1634566Y1160767D01*
Y1163432D01*
X1633899Y1164099D01*
X1631900D01*
X1635899Y1163432D02*
X1636565Y1164099D01*
X1637898D01*
X1638564Y1163432D01*
Y1162766D01*
X1637898Y1162099D01*
X1637232D01*
X1637898D01*
X1638564Y1161433D01*
Y1160767D01*
X1637898Y1160100D01*
X1636565D01*
X1635899Y1160767D01*
X1576000Y1110098D02*
Y1104100D01*
X1579999D01*
X1581998D02*
X1583997D01*
X1582998D01*
Y1110098D01*
X1581998Y1109098D01*
X1576000Y1307900D02*
Y1312898D01*
X1578499D01*
X1579332Y1312065D01*
Y1310399D01*
X1578499Y1309566D01*
X1576000D01*
X1580998Y1312898D02*
X1584331D01*
Y1312065D01*
X1580998Y1308733D01*
Y1307900D01*
X1605800Y1248000D02*
Y1251999D01*
X1607799D01*
X1608466Y1251332D01*
Y1249999D01*
X1607799Y1249333D01*
X1605800D01*
X1607133D02*
X1608466Y1248000D01*
X1611798D02*
Y1251999D01*
X1609799Y1249999D01*
X1612465D01*
X1548900Y1117000D02*
Y1120999D01*
X1550899D01*
X1551566Y1120332D01*
Y1118999D01*
X1550899Y1118333D01*
X1548900D01*
X1550233D02*
X1551566Y1117000D01*
X1552899Y1117667D02*
X1553565Y1117000D01*
X1554898D01*
X1555564Y1117667D01*
Y1120332D01*
X1554898Y1120999D01*
X1553565D01*
X1552899Y1120332D01*
Y1119666D01*
X1553565Y1118999D01*
X1555564D01*
X1575400Y1225000D02*
Y1228999D01*
X1577399D01*
X1578066Y1228332D01*
Y1226999D01*
X1577399Y1226333D01*
X1575400D01*
X1576733D02*
X1578066Y1225000D01*
X1579399D02*
X1580732D01*
X1580065D01*
Y1228999D01*
X1579399Y1228332D01*
X1582731D02*
X1583397Y1228999D01*
X1584730D01*
X1585397Y1228332D01*
Y1225667D01*
X1584730Y1225000D01*
X1583397D01*
X1582731Y1225667D01*
Y1228332D01*
X1586100Y1231200D02*
Y1235199D01*
X1588099D01*
X1588766Y1234532D01*
Y1233199D01*
X1588099Y1232533D01*
X1586100D01*
X1587433D02*
X1588766Y1231200D01*
X1590099D02*
X1591432D01*
X1590765D01*
Y1235199D01*
X1590099Y1234532D01*
X1596097Y1231200D02*
X1593431D01*
X1596097Y1233866D01*
Y1234532D01*
X1595430Y1235199D01*
X1594097D01*
X1593431Y1234532D01*
X1510800Y1255600D02*
Y1259599D01*
X1512799D01*
X1513466Y1258932D01*
Y1257599D01*
X1512799Y1256933D01*
X1510800D01*
X1512133D02*
X1513466Y1255600D01*
X1514799D02*
X1516132D01*
X1515465D01*
Y1259599D01*
X1514799Y1258932D01*
X1518131D02*
X1518797Y1259599D01*
X1520130D01*
X1520797Y1258932D01*
Y1258266D01*
X1520130Y1257599D01*
X1519464D01*
X1520130D01*
X1520797Y1256933D01*
Y1256266D01*
X1520130Y1255600D01*
X1518797D01*
X1518131Y1256266D01*
X1510900Y1264800D02*
Y1268799D01*
X1512899D01*
X1513566Y1268132D01*
Y1266799D01*
X1512899Y1266133D01*
X1510900D01*
X1512233D02*
X1513566Y1264800D01*
X1514899D02*
X1516232D01*
X1515565D01*
Y1268799D01*
X1514899Y1268132D01*
X1520230Y1264800D02*
Y1268799D01*
X1518231Y1266799D01*
X1520897D01*
X1511700Y1228400D02*
Y1232399D01*
X1513699D01*
X1514366Y1231732D01*
Y1230399D01*
X1513699Y1229733D01*
X1511700D01*
X1513033D02*
X1514366Y1228400D01*
X1515699D02*
X1517032D01*
X1516365D01*
Y1232399D01*
X1515699Y1231732D01*
X1521697Y1232399D02*
X1519031D01*
Y1230399D01*
X1520364Y1231066D01*
X1521030D01*
X1521697Y1230399D01*
Y1229066D01*
X1521030Y1228400D01*
X1519697D01*
X1519031Y1229066D01*
X1510500Y1237100D02*
Y1241099D01*
X1512499D01*
X1513166Y1240432D01*
Y1239099D01*
X1512499Y1238433D01*
X1510500D01*
X1511833D02*
X1513166Y1237100D01*
X1514499D02*
X1515832D01*
X1515165D01*
Y1241099D01*
X1514499Y1240432D01*
X1520497Y1241099D02*
X1519164Y1240432D01*
X1517831Y1239099D01*
Y1237766D01*
X1518497Y1237100D01*
X1519830D01*
X1520497Y1237766D01*
Y1238433D01*
X1519830Y1239099D01*
X1517831D01*
X1587200Y1210698D02*
Y1205700D01*
X1588200Y1204700D01*
X1590199D01*
X1591199Y1205700D01*
Y1210698D01*
X1593198D02*
X1597197D01*
Y1209698D01*
X1593198Y1205700D01*
Y1204700D01*
X1496500Y1293400D02*
X1492501D01*
Y1295399D01*
X1493168Y1296066D01*
X1494501D01*
X1495167Y1295399D01*
Y1293400D01*
X1496500Y1297399D02*
Y1298732D01*
Y1298065D01*
X1492501D01*
X1493168Y1297399D01*
X1492501Y1303397D02*
X1493168Y1302064D01*
X1494501Y1300731D01*
X1495833D01*
X1496500Y1301397D01*
Y1302730D01*
X1495833Y1303397D01*
X1495167D01*
X1494501Y1302730D01*
Y1300731D01*
X1529400Y1103500D02*
Y1107499D01*
X1531399D01*
X1532066Y1106832D01*
Y1105499D01*
X1531399Y1104833D01*
X1529400D01*
X1530733D02*
X1532066Y1103500D01*
X1533399Y1106832D02*
X1534065Y1107499D01*
X1535398D01*
X1536065Y1106832D01*
Y1106166D01*
X1535398Y1105499D01*
X1534732D01*
X1535398D01*
X1536065Y1104833D01*
Y1104167D01*
X1535398Y1103500D01*
X1534065D01*
X1533399Y1104167D01*
X1572699Y1158498D02*
X1571699Y1159498D01*
X1569700D01*
X1568700Y1158498D01*
Y1154500D01*
X1569700Y1153500D01*
X1571699D01*
X1572699Y1154500D01*
X1574698Y1153500D02*
X1576697D01*
X1575698D01*
Y1159498D01*
X1574698Y1158498D01*
X1659100Y1307500D02*
X1663099D01*
Y1305501D01*
X1662432Y1304834D01*
X1661099D01*
X1660433Y1305501D01*
Y1307500D01*
X1659100Y1300836D02*
Y1303501D01*
X1661766Y1300836D01*
X1662432D01*
X1663099Y1301502D01*
Y1302835D01*
X1662432Y1303501D01*
D70*
X1533300Y1234600D02*
Y1254700D01*
X1523300D02*
X1533300D01*
X1523300Y1234600D02*
Y1254700D01*
Y1234600D02*
X1533300D01*
X1498900Y1308000D02*
X1508900D01*
Y1287900D02*
Y1308000D01*
X1498900Y1287900D02*
X1508900D01*
X1498900D02*
Y1308000D01*
X1575177Y1200507D02*
Y1213893D01*
X1609823Y1200507D02*
Y1213893D01*
X1575177Y1200507D02*
X1609823D01*
X1575177Y1213893D02*
X1609823D01*
X1645400Y1166000D02*
Y1175000D01*
X1625100Y1167200D02*
X1626300Y1166000D01*
X1640124Y1175000D02*
X1645400D01*
X1640124Y1166000D02*
X1645400D01*
X1626300D02*
X1630676D01*
X1625100Y1173900D02*
X1626300Y1175100D01*
X1630976D01*
X1603300Y1297700D02*
Y1307700D01*
X1633300D01*
Y1297700D02*
Y1307700D01*
X1603300Y1297700D02*
X1633300D01*
X1540900Y1259700D02*
X1586900D01*
X1540900Y1278100D02*
X1586900D01*
X1594800Y1246600D02*
X1602542D01*
X1594800Y1242900D02*
X1602542D01*
Y1246600D01*
X1594800Y1242900D02*
Y1246600D01*
X1515458Y1121457D02*
X1535143D01*
X1515458Y1128543D02*
X1535143D01*
X1515458Y1121457D02*
Y1128543D01*
X1535143Y1121457D02*
Y1128543D01*
X1544919Y1159450D02*
X1547281D01*
X1544919Y1153150D02*
X1547281D01*
X1544919D02*
Y1159450D01*
X1545667Y1153150D02*
Y1159450D01*
X1510624Y1078685D02*
X1520270D01*
X1510624Y1090890D02*
X1520270D01*
X1490939D02*
X1501176D01*
X1490939Y1078685D02*
X1501176D01*
X1522042Y1080457D02*
Y1089118D01*
X1520270Y1090890D02*
X1522042Y1089118D01*
X1520270Y1078685D02*
X1522042Y1080457D01*
X1490939Y1078685D02*
Y1090890D01*
X1509719Y1101650D02*
X1512081D01*
X1509719Y1107950D02*
X1512081D01*
Y1101650D02*
Y1107950D01*
X1511333Y1101650D02*
Y1107950D01*
X1582245Y1169861D02*
X1582442D01*
X1600158D02*
X1600355D01*
Y1139939D02*
Y1169861D01*
X1582245Y1139939D02*
Y1169861D01*
X1600158Y1139939D02*
X1600355D01*
X1582245D02*
X1582442D01*
X1582245Y1148995D02*
X1600355D01*
X1563200Y1179500D02*
Y1189500D01*
X1623200Y1179500D02*
Y1189500D01*
X1563200Y1179500D02*
X1623200D01*
X1563200Y1189500D02*
X1623200D01*
X1534400Y1239500D02*
X1572600D01*
X1534400Y1226800D02*
X1572600D01*
Y1239500D01*
X1534400Y1226800D02*
Y1239500D01*
X1487900Y1153100D02*
Y1163100D01*
X1447900Y1153100D02*
X1487900D01*
X1447900Y1163100D02*
X1487900D01*
X1447900Y1153100D02*
Y1163100D01*
X1586050Y1250433D02*
X1592350D01*
X1586050Y1251181D02*
X1592350D01*
X1586050Y1248819D02*
Y1251181D01*
X1592350Y1248819D02*
Y1251181D01*
X1577150Y1240233D02*
X1583450D01*
X1577150Y1240981D02*
X1583450D01*
X1577150Y1238619D02*
Y1240981D01*
X1583450Y1238619D02*
Y1240981D01*
X1548933Y1200850D02*
Y1207150D01*
X1549681Y1200850D02*
Y1207150D01*
X1547319D02*
X1549681D01*
X1547319Y1200850D02*
X1549681D01*
X1612250Y1235519D02*
Y1237881D01*
X1605950Y1235519D02*
Y1237881D01*
X1612250D01*
X1605950Y1237133D02*
X1612250D01*
X1524350Y1266319D02*
Y1268681D01*
X1530650Y1266319D02*
Y1268681D01*
X1524350Y1266319D02*
X1530650D01*
X1524350Y1267067D02*
X1530650D01*
X1574967Y1279850D02*
Y1286150D01*
X1574219Y1279850D02*
Y1286150D01*
Y1279850D02*
X1576581D01*
X1574219Y1286150D02*
X1576581D01*
X1552833Y1279850D02*
Y1286150D01*
X1553581Y1279850D02*
Y1286150D01*
X1551219D02*
X1553581D01*
X1551219Y1279850D02*
X1553581D01*
X1500933Y1255050D02*
Y1261350D01*
X1501681Y1255050D02*
Y1261350D01*
X1499319D02*
X1501681D01*
X1499319Y1255050D02*
X1501681D01*
X1500067Y1236550D02*
Y1242850D01*
X1499319Y1236550D02*
Y1242850D01*
Y1236550D02*
X1501681D01*
X1499319Y1242850D02*
X1501681D01*
X1500067Y1227650D02*
Y1233950D01*
X1499319Y1227650D02*
Y1233950D01*
Y1227650D02*
X1501681D01*
X1499319Y1233950D02*
X1501681D01*
X1500067Y1264150D02*
Y1270450D01*
X1499319Y1264150D02*
Y1270450D01*
Y1264150D02*
X1501681D01*
X1499319Y1270450D02*
X1501681D01*
X1447900Y1193100D02*
Y1203100D01*
X1487900D01*
X1447900Y1193100D02*
X1487900D01*
Y1203100D01*
X1447900Y1233100D02*
Y1243100D01*
X1487900D01*
X1447900Y1233100D02*
X1487900D01*
Y1243100D01*
X1447900Y1273100D02*
Y1283100D01*
X1487900D01*
X1447900Y1273100D02*
X1487900D01*
Y1283100D01*
X1447900Y1293100D02*
Y1303100D01*
X1487900D01*
X1447900Y1293100D02*
X1487900D01*
Y1303100D01*
X1447900Y1173100D02*
Y1183100D01*
X1487900D01*
X1447900Y1173100D02*
X1487900D01*
Y1183100D01*
X1447900Y1213100D02*
Y1223100D01*
X1487900D01*
X1447900Y1213100D02*
X1487900D01*
Y1223100D01*
X1447900Y1253100D02*
Y1263100D01*
X1487900D01*
X1447900Y1253100D02*
X1487900D01*
Y1263100D01*
X1613850Y1165733D02*
X1620150D01*
X1613850Y1166481D02*
X1620150D01*
X1613850Y1164119D02*
Y1166481D01*
X1620150Y1164119D02*
Y1166481D01*
X1539750Y1114933D02*
X1546050D01*
X1539750Y1115681D02*
X1546050D01*
X1539750Y1113319D02*
Y1115681D01*
X1546050Y1113319D02*
Y1115681D01*
X1546533Y1143650D02*
Y1149950D01*
X1547281Y1143650D02*
Y1149950D01*
X1544919D02*
X1547281D01*
X1544919Y1143650D02*
X1547281D01*
X1550350Y1104233D02*
X1556650D01*
X1550350Y1104981D02*
X1556650D01*
X1550350Y1102619D02*
Y1104981D01*
X1556650Y1102619D02*
Y1104981D01*
X1522833Y1146550D02*
Y1152850D01*
X1523581Y1146550D02*
Y1152850D01*
X1521219D02*
X1523581D01*
X1521219Y1146550D02*
X1523581D01*
X1648850Y1165833D02*
X1655150D01*
X1648850Y1166581D02*
X1655150D01*
X1648850Y1164219D02*
Y1166581D01*
X1655150Y1164219D02*
Y1166581D01*
X1447500Y1134500D02*
Y1144500D01*
X1487500D01*
X1447500Y1134500D02*
X1487500D01*
Y1144500D01*
X1529019Y1095150D02*
X1531381D01*
X1529019Y1101450D02*
X1531381D01*
Y1095150D02*
Y1101450D01*
X1530633Y1095150D02*
Y1101450D01*
X1514050Y1164333D02*
X1520350D01*
X1514050Y1165081D02*
X1520350D01*
X1514050Y1162719D02*
Y1165081D01*
X1520350Y1162719D02*
Y1165081D01*
X1524350Y1164233D02*
X1530650D01*
X1524350Y1164981D02*
X1530650D01*
X1524350Y1162619D02*
Y1164981D01*
X1530650Y1162619D02*
Y1164981D01*
X1548850Y1132267D02*
X1555150D01*
X1548850Y1131519D02*
X1555150D01*
Y1133881D01*
X1548850Y1131519D02*
Y1133881D01*
X1563045Y1169861D02*
X1563242D01*
X1580958D02*
X1581155D01*
Y1139939D02*
Y1169861D01*
X1563045Y1139939D02*
Y1169861D01*
X1580958Y1139939D02*
X1581155D01*
X1563045D02*
X1563242D01*
X1563045Y1148995D02*
X1581155D01*
X1619300Y1202400D02*
X1629300D01*
X1619300D02*
Y1292500D01*
X1629300D01*
Y1202400D02*
Y1292500D01*
X1636200Y1178300D02*
Y1308300D01*
X1656200Y1178300D02*
Y1308300D01*
X1636200D02*
X1656200D01*
X1636200Y1178300D02*
X1656200D01*
D71*
X1511772Y1184610D02*
Y1197586D01*
Y1174782D02*
X1511786Y1174767D01*
X1511772Y1174782D02*
Y1184610D01*
X1552008Y1174767D02*
Y1197602D01*
X1546890D02*
X1552008D01*
X1546890Y1174767D02*
X1552008D01*
X1511772D02*
X1546890D01*
X1511756Y1197602D02*
X1546890D01*
X1516890Y1177759D02*
X1546890D01*
X1516890Y1174798D02*
Y1177759D01*
Y1174798D02*
X1516920Y1174767D01*
X1516890Y1175896D02*
X1517070Y1175716D01*
X1545942D01*
X1546890Y1174767D02*
Y1177759D01*
X1545942Y1175716D02*
X1546890D01*
X1511872Y1302610D02*
Y1315586D01*
Y1292782D02*
X1511886Y1292768D01*
X1511872Y1292782D02*
Y1302610D01*
X1552108Y1292768D02*
Y1315602D01*
X1546990D02*
X1552108D01*
X1546990Y1292768D02*
X1552108D01*
X1511872D02*
X1546990D01*
X1511856Y1315602D02*
X1546990D01*
X1516990Y1295759D02*
X1546990D01*
X1516990Y1292797D02*
Y1295759D01*
Y1292797D02*
X1517020Y1292768D01*
X1516990Y1293896D02*
X1517170Y1293716D01*
X1546041D01*
X1546990Y1292768D02*
Y1295759D01*
X1546041Y1293716D02*
X1546990D01*
X1594042D02*
X1594990D01*
Y1292768D02*
Y1295759D01*
X1565170Y1293716D02*
X1594042D01*
X1564990Y1293896D02*
X1565170Y1293716D01*
X1564990Y1292797D02*
X1565020Y1292768D01*
X1564990Y1292797D02*
Y1295759D01*
X1594990D01*
X1559856Y1315602D02*
X1594990D01*
X1559872Y1292768D02*
X1594990D01*
X1600108D01*
X1594990Y1315602D02*
X1600108D01*
Y1292768D02*
Y1315602D01*
X1559872Y1292782D02*
Y1302610D01*
Y1292782D02*
X1559886Y1292768D01*
X1559872Y1302610D02*
Y1315586D01*
D72*
X1625100Y1167200D02*
Y1173900D01*
X1586900Y1274300D02*
Y1278000D01*
Y1259700D02*
Y1263900D01*
X1540900Y1259700D02*
Y1263800D01*
Y1273800D02*
Y1278100D01*
X1649200Y1173968D02*
Y1177300D01*
X1652532Y1173968D01*
X1653365D01*
X1654198Y1174801D01*
Y1176467D01*
X1653365Y1177300D01*
X1654198Y1168969D02*
X1653365Y1170636D01*
X1651699Y1172302D01*
X1650033D01*
X1649200Y1171469D01*
Y1169802D01*
X1650033Y1168969D01*
X1650866D01*
X1651699Y1169802D01*
Y1172302D01*
X1639200Y1173968D02*
Y1177300D01*
X1642532Y1173968D01*
X1643365D01*
X1644198Y1174801D01*
Y1176467D01*
X1643365Y1177300D01*
X1644198Y1168969D02*
Y1172302D01*
X1641699D01*
X1642532Y1170636D01*
Y1169802D01*
X1641699Y1168969D01*
X1640033D01*
X1639200Y1169802D01*
Y1171469D01*
X1640033Y1172302D01*
X1639200Y1313300D02*
Y1311634D01*
Y1312467D01*
X1644198D01*
X1643365Y1313300D01*
X1649200Y1309968D02*
Y1313300D01*
X1652532Y1309968D01*
X1653365D01*
X1654198Y1310801D01*
Y1312467D01*
X1653365Y1313300D01*
D73*
X1403800Y1127960D02*
X1442800D01*
X1403800Y1081360D02*
Y1127960D01*
X1404100Y1081360D02*
X1442800D01*
D74*
X1404000Y1081460D02*
X1404100Y1081360D01*
M02*
