G04 Layer_Physical_Order=1*
G04 Layer_Color=255*
%FSAX25Y25*%
%MOIN*%
G70*
G01*
G75*
%ADD10O,0.02362X0.04724*%
G04:AMPARAMS|DCode=11|XSize=472.44mil|YSize=157.48mil|CornerRadius=39.37mil|HoleSize=0mil|Usage=FLASHONLY|Rotation=180.000|XOffset=0mil|YOffset=0mil|HoleType=Round|Shape=RoundedRectangle|*
%AMROUNDEDRECTD11*
21,1,0.47244,0.07874,0,0,180.0*
21,1,0.39370,0.15748,0,0,180.0*
1,1,0.07874,-0.19685,0.03937*
1,1,0.07874,0.19685,0.03937*
1,1,0.07874,0.19685,-0.03937*
1,1,0.07874,-0.19685,-0.03937*
%
%ADD11ROUNDEDRECTD11*%
%ADD12R,0.47244X0.07500*%
%ADD13R,0.06299X0.07087*%
%ADD14R,0.21500X0.08000*%
%ADD15R,0.21000X0.08000*%
%ADD16O,0.01200X0.04000*%
%ADD17O,0.02362X0.06061*%
%ADD18R,0.09055X0.09055*%
%ADD19R,0.10000X0.10236*%
%ADD20O,0.01200X0.06300*%
%ADD21R,0.07087X0.06299*%
%ADD22C,0.01300*%
%ADD23C,0.03500*%
%ADD24C,0.04000*%
%ADD25C,0.02500*%
%ADD26C,0.02000*%
%ADD27C,0.03000*%
%ADD28C,0.04500*%
%ADD29C,0.05500*%
%ADD30C,0.01500*%
%ADD31C,0.05000*%
%ADD32R,0.30100X0.01800*%
%ADD33R,0.12400X0.10800*%
%ADD34R,0.06500X1.56400*%
%ADD35R,0.08000X0.18000*%
%ADD36R,0.56500X0.06400*%
%ADD37R,0.50900X0.14400*%
%ADD38R,0.12000X0.11900*%
%ADD39R,0.41000X0.10600*%
%ADD40R,0.05900X0.12100*%
%ADD41R,0.32300X0.21400*%
%ADD42R,0.07000X0.06000*%
%ADD43R,0.07000X0.07000*%
%ADD44R,0.06000X0.07000*%
%ADD45R,0.12598X0.10000*%
%ADD46R,0.10000X0.10000*%
%ADD47C,0.04000*%
%ADD48R,0.07000X0.05000*%
%ADD49C,0.05906*%
%ADD50R,0.05906X0.05906*%
%ADD51C,0.05000*%
%ADD52C,0.24000*%
G36*
X1524100Y1233900D02*
Y1233400D01*
X1522500D01*
X1516500Y1239400D01*
X1517900Y1239800D01*
X1518200D01*
X1524100Y1233900D01*
D02*
G37*
D10*
X1577500Y1196570D02*
D03*
X1582500D02*
D03*
X1587500D02*
D03*
X1592500D02*
D03*
X1597500D02*
D03*
X1602500D02*
D03*
X1607500D02*
D03*
X1577500Y1217830D02*
D03*
X1582500D02*
D03*
X1587500D02*
D03*
X1592500D02*
D03*
X1597500D02*
D03*
X1602500D02*
D03*
X1607500D02*
D03*
D11*
X1583800Y1086800D02*
D03*
Y1127500D02*
D03*
D12*
Y1121400D02*
D03*
Y1092600D02*
D03*
D13*
X1629888Y1170500D02*
D03*
X1640912D02*
D03*
X1540588Y1156300D02*
D03*
X1551612D02*
D03*
X1516412Y1104800D02*
D03*
X1505388D02*
D03*
X1542988Y1204000D02*
D03*
X1554012D02*
D03*
X1580912Y1283000D02*
D03*
X1569888D02*
D03*
X1546888D02*
D03*
X1557912D02*
D03*
X1494988Y1258200D02*
D03*
X1506012D02*
D03*
Y1239700D02*
D03*
X1494988D02*
D03*
X1506012Y1230800D02*
D03*
X1494988D02*
D03*
X1506012Y1267300D02*
D03*
X1494988D02*
D03*
X1540588Y1146800D02*
D03*
X1551612D02*
D03*
X1516888Y1149700D02*
D03*
X1527912D02*
D03*
X1535712Y1098300D02*
D03*
X1524688D02*
D03*
D14*
X1546900Y1268900D02*
D03*
D15*
X1580900D02*
D03*
D16*
X1602200Y1249900D02*
D03*
X1598700D02*
D03*
X1595200D02*
D03*
Y1240000D02*
D03*
X1602200D02*
D03*
D17*
X1517800Y1114500D02*
D03*
X1522800D02*
D03*
X1527800D02*
D03*
X1532800D02*
D03*
X1517800Y1135500D02*
D03*
X1522800D02*
D03*
X1532800D02*
D03*
X1527800D02*
D03*
D18*
X1514758Y1084787D02*
D03*
X1497042D02*
D03*
D19*
X1591300Y1167498D02*
D03*
Y1142302D02*
D03*
X1572100Y1167498D02*
D03*
Y1142302D02*
D03*
D20*
X1569700Y1244100D02*
D03*
X1567200D02*
D03*
X1564700D02*
D03*
X1562200D02*
D03*
X1559700D02*
D03*
X1557200D02*
D03*
X1554700D02*
D03*
X1552200D02*
D03*
X1549700D02*
D03*
X1547200D02*
D03*
X1544700D02*
D03*
X1542200D02*
D03*
X1539700D02*
D03*
X1537200D02*
D03*
X1569700Y1222400D02*
D03*
X1567200D02*
D03*
X1564700D02*
D03*
X1562200D02*
D03*
X1559700D02*
D03*
X1557200D02*
D03*
X1554700D02*
D03*
X1552200D02*
D03*
X1549700D02*
D03*
X1547200D02*
D03*
X1544700D02*
D03*
X1542200D02*
D03*
X1539700D02*
D03*
X1537200D02*
D03*
D21*
X1589200Y1244488D02*
D03*
Y1255512D02*
D03*
X1580300Y1234288D02*
D03*
Y1245312D02*
D03*
X1609100Y1242212D02*
D03*
Y1231188D02*
D03*
X1527500Y1261988D02*
D03*
Y1273012D02*
D03*
X1617000Y1159788D02*
D03*
Y1170812D02*
D03*
X1542900Y1108988D02*
D03*
Y1120012D02*
D03*
X1553500Y1098288D02*
D03*
Y1109312D02*
D03*
X1652000Y1159888D02*
D03*
Y1170912D02*
D03*
X1517200Y1158388D02*
D03*
Y1169412D02*
D03*
X1527500Y1158288D02*
D03*
Y1169312D02*
D03*
X1552000Y1138212D02*
D03*
Y1127188D02*
D03*
D22*
X1557200Y1244100D02*
Y1250800D01*
X1551100Y1256900D02*
X1557200Y1250800D01*
X1543000Y1256900D02*
X1551100D01*
X1542200Y1256100D02*
X1543000Y1256900D01*
X1559700Y1244200D02*
Y1253100D01*
X1552200Y1260600D02*
X1559700Y1253100D01*
X1528900Y1260600D02*
X1552200D01*
X1549700Y1237700D02*
Y1244100D01*
X1549200Y1237200D02*
X1549700Y1237700D01*
X1530700Y1237200D02*
X1549200D01*
X1528300Y1239600D02*
X1530700Y1237200D01*
X1517600Y1240000D02*
X1523600Y1234000D01*
X1544700Y1222400D02*
Y1230900D01*
X1541600Y1234000D02*
X1544700Y1230900D01*
X1523600Y1234000D02*
X1541600D01*
X1554700Y1207000D02*
Y1222400D01*
X1554100Y1206400D02*
X1554700Y1207000D01*
X1542400Y1204588D02*
Y1210900D01*
X1544200Y1212700D01*
X1552200Y1214900D02*
Y1222400D01*
X1550000Y1212700D02*
X1552200Y1214900D01*
X1544200Y1212700D02*
X1550000D01*
X1542400Y1204588D02*
X1542688Y1204300D01*
X1542900Y1204088D01*
X1537200Y1222400D02*
Y1223300D01*
Y1206100D02*
Y1222400D01*
X1539000Y1204300D02*
X1542688D01*
X1537200Y1206100D02*
X1539000Y1204300D01*
X1564900Y1200500D02*
Y1205300D01*
X1557200Y1213000D02*
X1564900Y1205300D01*
X1557200Y1213000D02*
Y1222400D01*
X1564900Y1199200D02*
Y1200500D01*
X1559700Y1222600D02*
Y1229800D01*
X1563400Y1233500D01*
X1564700Y1213300D02*
X1568700Y1209300D01*
X1564700Y1213300D02*
Y1222400D01*
X1608000Y1229000D02*
Y1230800D01*
X1569700Y1216100D02*
X1571700Y1214100D01*
X1569700Y1216100D02*
Y1222400D01*
X1547200Y1244100D02*
Y1251200D01*
X1544700Y1248700D02*
X1547200Y1251200D01*
X1548000Y1252000D01*
X1544700Y1244100D02*
Y1248700D01*
X1554700Y1222400D02*
Y1244100D01*
X1552200Y1222400D02*
Y1244100D01*
X1562100Y1255800D02*
X1562200Y1255700D01*
Y1244100D02*
Y1255700D01*
X1564700Y1244100D02*
Y1244300D01*
Y1238600D02*
Y1244100D01*
X1588988Y1255300D02*
X1589200Y1255512D01*
X1576800Y1255300D02*
X1588988D01*
X1573600Y1252100D02*
X1576800Y1255300D01*
X1573600Y1239200D02*
Y1252100D01*
X1565600Y1237700D02*
X1572100D01*
X1564700Y1238600D02*
X1565600Y1237700D01*
X1572100D02*
X1573600Y1239200D01*
X1567200Y1244100D02*
Y1264100D01*
X1563200Y1268100D02*
X1567200Y1264100D01*
X1569700Y1244100D02*
Y1264200D01*
X1573600Y1268100D01*
X1582500Y1211400D02*
Y1217830D01*
X1580400Y1209300D02*
X1582500Y1211400D01*
X1568700Y1209300D02*
X1580400D01*
X1577600Y1196800D02*
Y1203500D01*
X1575200Y1205900D02*
X1577600Y1203500D01*
X1568200Y1205900D02*
X1575200D01*
X1562200Y1211900D02*
X1568200Y1205900D01*
X1563400Y1233500D02*
X1579600D01*
X1541932Y1206756D02*
X1542288Y1206400D01*
X1528300Y1239600D02*
X1530700D01*
X1532400Y1237900D02*
X1533300D01*
X1531600Y1239600D02*
X1533300Y1237900D01*
X1531400Y1239600D02*
X1531600D01*
X1530700D02*
X1532400Y1237900D01*
X1507600Y1230300D02*
X1539300D01*
X1539700Y1229900D01*
Y1222400D02*
Y1229900D01*
X1567200Y1222400D02*
Y1228800D01*
X1607800D01*
X1608000Y1229000D01*
X1546900Y1268100D02*
X1563200D01*
X1562200Y1211900D02*
Y1222400D01*
Y1222900D01*
X1527500Y1262000D02*
X1528900Y1260600D01*
X1506012Y1231888D02*
X1507600Y1230300D01*
X1573600Y1268100D02*
X1580900D01*
X1553312Y1206400D02*
X1554100D01*
X1542900Y1204088D02*
X1542988Y1204000D01*
X1542688Y1204300D02*
X1543100D01*
X1542200Y1244100D02*
Y1256100D01*
D23*
X1516890Y1176610D02*
Y1184610D01*
X1527500Y1250400D02*
Y1261988D01*
X1554400Y1197100D02*
X1559700Y1191800D01*
Y1176600D02*
Y1191800D01*
X1551612Y1138600D02*
Y1145900D01*
X1605600Y1176400D02*
X1608600Y1179400D01*
X1546888Y1268112D02*
Y1283000D01*
X1580912Y1268112D02*
Y1283000D01*
X1482700Y1176400D02*
X1482900D01*
X1605600D01*
X1554400Y1197100D02*
Y1204000D01*
X1608600Y1179400D02*
Y1184500D01*
D24*
X1546800Y1184900D02*
Y1193400D01*
X1542900Y1197300D02*
X1546800Y1193400D01*
X1542900Y1204088D02*
Y1204200D01*
X1555800Y1301700D02*
X1555900D01*
X1556200Y1302000D01*
Y1310700D01*
X1651600Y1303600D02*
Y1309700D01*
X1650600Y1310700D02*
X1651600Y1309700D01*
X1556200Y1310700D02*
X1650600D01*
X1489400D02*
X1556200D01*
X1482900Y1304200D02*
X1489400Y1310700D01*
X1482900Y1298100D02*
Y1304200D01*
Y1178100D02*
Y1198100D01*
Y1278100D02*
Y1298100D01*
Y1198100D02*
Y1218100D01*
Y1238100D02*
X1483500Y1238700D01*
X1494388D01*
X1494988Y1239300D01*
X1651300Y1256200D02*
X1651400Y1256100D01*
X1630600Y1267500D02*
X1631400Y1266700D01*
X1624300Y1267500D02*
X1630600D01*
X1482900Y1158100D02*
Y1176400D01*
Y1178100D01*
X1608300Y1302600D02*
Y1302700D01*
Y1310200D01*
X1651400Y1253300D02*
Y1256100D01*
X1482900Y1138100D02*
Y1158100D01*
X1542900Y1197300D02*
Y1204000D01*
Y1204088D01*
D25*
X1517600Y1240000D02*
Y1259700D01*
X1513400Y1263900D02*
X1517600Y1259700D01*
X1536012Y1108988D02*
X1542900D01*
X1532800Y1112200D02*
X1536012Y1108988D01*
X1532800Y1112200D02*
Y1114500D01*
X1535600Y1098500D02*
Y1101900D01*
X1527800Y1109700D02*
X1535600Y1101900D01*
X1527800Y1109700D02*
Y1114500D01*
X1538512Y1124400D02*
X1540312Y1126200D01*
X1607500Y1185200D02*
Y1196570D01*
Y1185200D02*
X1608200Y1184500D01*
X1516412Y1104800D02*
X1517800Y1106188D01*
Y1114500D01*
X1538512Y1124400D02*
X1542900Y1120012D01*
X1630900Y1277200D02*
X1634800Y1273300D01*
X1633000Y1245400D02*
X1635100Y1243300D01*
X1633000Y1245400D02*
Y1254000D01*
X1629600Y1257400D02*
X1633000Y1254000D01*
X1624400Y1257400D02*
X1629600D01*
X1506012Y1263900D02*
X1513400D01*
X1634800Y1273300D02*
X1641200D01*
X1641400D01*
X1635100Y1243300D02*
X1641200D01*
X1641400D01*
X1624300Y1277200D02*
X1630900D01*
X1522800Y1126500D02*
X1524900Y1124400D01*
X1538512D01*
X1540312Y1126200D02*
X1552600D01*
X1522800Y1126500D02*
Y1135500D01*
Y1100900D02*
X1525300Y1098400D01*
X1522800Y1100900D02*
Y1114500D01*
D26*
X1590600Y1240000D02*
X1594700D01*
X1589200Y1241400D02*
X1590600Y1240000D01*
X1589200Y1241400D02*
Y1244488D01*
X1596200Y1233800D02*
X1598700Y1236300D01*
X1595200Y1249900D02*
Y1254900D01*
X1597500Y1210400D02*
X1597600Y1210300D01*
X1597500Y1210400D02*
Y1217830D01*
X1588200Y1184500D02*
Y1187000D01*
X1582500Y1192700D02*
X1588200Y1187000D01*
X1582500Y1192700D02*
Y1196570D01*
X1618200Y1184300D02*
Y1184500D01*
X1592500Y1217830D02*
Y1225300D01*
X1516888Y1150600D02*
X1517200Y1150288D01*
Y1145500D02*
X1519200Y1143500D01*
X1526000D01*
X1527800Y1141700D01*
Y1135500D02*
Y1141700D01*
X1532800Y1135500D02*
Y1142400D01*
X1536200Y1145800D01*
X1607500Y1217830D02*
Y1225300D01*
X1607400Y1225400D02*
X1607500Y1225300D01*
X1577500Y1217830D02*
Y1222800D01*
X1580100Y1225400D01*
X1607400D01*
X1537000Y1297900D02*
Y1301500D01*
Y1297900D02*
X1538300Y1296600D01*
X1632000D01*
X1635300Y1293300D01*
X1527100Y1294900D02*
Y1301000D01*
Y1294900D02*
X1528900Y1293100D01*
X1628900D01*
X1638700Y1283300D01*
X1602500Y1213800D02*
Y1217830D01*
Y1213800D02*
X1608000Y1208300D01*
X1631300Y1202000D02*
X1633200Y1203900D01*
Y1210700D01*
X1635800Y1213300D01*
X1608000Y1208300D02*
X1613465D01*
X1619765Y1202000D01*
X1631300D01*
X1618200Y1184500D02*
Y1194300D01*
X1610700Y1201800D02*
X1618200Y1194300D01*
X1607500Y1215300D02*
Y1217830D01*
Y1215300D02*
X1610400Y1212400D01*
X1615000D01*
X1619900Y1207500D01*
X1624300D01*
X1605600Y1289600D02*
X1607600Y1287600D01*
X1527500Y1285400D02*
X1531700Y1289600D01*
X1605600D01*
X1587500Y1196570D02*
Y1201800D01*
X1527500Y1272600D02*
Y1273012D01*
Y1285400D01*
X1602200Y1240000D02*
Y1242600D01*
Y1249900D01*
X1587500Y1201800D02*
X1610700D01*
X1536200Y1145800D02*
X1540588D01*
X1579500Y1233800D02*
X1596200D01*
X1598700Y1236300D02*
Y1249900D01*
Y1250200D01*
X1517200Y1145500D02*
Y1150288D01*
X1635800Y1213300D02*
X1641200D01*
X1641400D01*
X1638700Y1283300D02*
X1641200D01*
X1641400D01*
X1635300Y1293300D02*
X1641200D01*
X1641400D01*
X1602200Y1242600D02*
X1607600D01*
D27*
X1580300Y1245312D02*
X1588376D01*
X1594800Y1255300D02*
X1597100Y1257600D01*
Y1282800D02*
X1597200Y1282900D01*
X1597100Y1257600D02*
Y1282800D01*
X1505388Y1104800D02*
Y1129088D01*
X1511800Y1135500D01*
X1517400D01*
X1607600Y1242600D02*
Y1287600D01*
X1589500Y1255300D02*
X1594800D01*
D28*
X1659350Y1302050D02*
X1660300Y1301100D01*
Y1159000D02*
Y1301100D01*
X1607900Y1158000D02*
X1608900Y1159000D01*
X1607900Y1138900D02*
Y1158000D01*
X1586000Y1124700D02*
X1594500D01*
X1535724Y1098288D02*
X1553500D01*
X1515458Y1086287D02*
X1583187D01*
X1492700Y1250100D02*
X1494988Y1252388D01*
X1452900Y1250100D02*
X1492700D01*
X1506012Y1258200D02*
Y1263900D01*
X1462900Y1231800D02*
Y1238100D01*
Y1231800D02*
X1465200Y1229500D01*
X1494088D01*
X1494988Y1230400D01*
X1505388Y1099012D02*
Y1104800D01*
Y1099012D02*
X1515158Y1089242D01*
Y1087887D02*
Y1089242D01*
X1551800Y1156100D02*
X1556600D01*
X1561600Y1151100D01*
Y1145100D02*
Y1151100D01*
X1506012Y1263900D02*
Y1267300D01*
X1640912Y1170600D02*
X1651688D01*
X1583187Y1086287D02*
X1586000Y1089100D01*
X1506012Y1231888D02*
Y1239700D01*
Y1240600D01*
X1540588Y1145900D02*
Y1146800D01*
Y1154300D01*
X1472900Y1268400D02*
X1494988D01*
X1561600Y1145100D02*
X1578700Y1128000D01*
X1583800D01*
X1608900Y1159000D02*
X1660300D01*
X1494988Y1252388D02*
Y1258200D01*
Y1259300D01*
X1557912Y1283000D02*
X1569888D01*
D29*
X1618200Y1170512D02*
X1629800D01*
X1618200Y1169900D02*
Y1170512D01*
X1553500Y1109112D02*
Y1109312D01*
X1496300Y1088800D02*
Y1114260D01*
X1452900Y1250100D02*
Y1258100D01*
Y1238100D02*
Y1250100D01*
X1472900Y1268400D02*
Y1278100D01*
Y1258100D02*
Y1268400D01*
X1452900Y1218100D02*
Y1238100D01*
X1472900Y1278100D02*
Y1298100D01*
Y1198100D02*
Y1218100D01*
Y1178100D02*
Y1198100D01*
Y1158100D02*
Y1178100D01*
X1462900Y1278100D02*
Y1298100D01*
Y1258100D02*
Y1278100D01*
Y1198100D02*
Y1218100D01*
Y1178100D02*
Y1198100D01*
Y1158100D02*
Y1178100D01*
X1452900Y1278100D02*
Y1298100D01*
Y1258100D02*
Y1278100D01*
Y1198100D02*
Y1218100D01*
Y1178100D02*
Y1198100D01*
Y1158100D02*
Y1178100D01*
X1517200Y1150912D02*
Y1158388D01*
Y1158500D01*
X1472900Y1138100D02*
Y1158100D01*
X1527800Y1151012D02*
Y1158688D01*
X1462900Y1138100D02*
Y1158100D01*
X1482400Y1114260D02*
X1496300D01*
X1452900Y1138100D02*
Y1158100D01*
X1496300Y1114260D02*
Y1162400D01*
X1503800Y1169900D01*
X1553500Y1109312D02*
Y1122400D01*
X1503800Y1169900D02*
X1618200D01*
X1617000Y1170512D02*
X1618200D01*
Y1184300D01*
D30*
X1587500Y1207300D02*
Y1217830D01*
Y1207300D02*
X1589750Y1205050D01*
X1612046D01*
X1618796Y1198300D01*
X1648600D01*
X1631800Y1237500D02*
X1632000Y1237700D01*
X1624300Y1237500D02*
X1631800D01*
X1624400Y1238400D02*
X1649700D01*
X1650500Y1197700D02*
X1651400Y1196800D01*
Y1195500D02*
Y1196800D01*
X1648600Y1198300D02*
X1651400Y1195500D01*
Y1233300D02*
X1651500D01*
X1652100Y1233900D01*
Y1237300D01*
X1651900Y1237500D02*
X1652100Y1237300D01*
X1651400Y1237500D02*
X1651900D01*
X1649700Y1238400D02*
X1651400Y1236700D01*
X1630600Y1263800D02*
X1631011D01*
X1636511Y1258300D02*
X1650200D01*
X1651000Y1257500D01*
X1631800Y1263600D02*
Y1265100D01*
X1630600Y1263800D02*
Y1266300D01*
Y1267500D01*
Y1266300D02*
X1631800Y1265100D01*
X1631011Y1263800D02*
X1636511Y1258300D01*
X1651400Y1233300D02*
Y1236700D01*
Y1193300D02*
Y1195500D01*
D31*
X1629800Y1303300D02*
X1641200D01*
X1641400D01*
D32*
X1522750Y1229800D02*
D03*
D33*
X1550600Y1304700D02*
D03*
D34*
X1662250Y1234500D02*
D03*
D35*
X1605200Y1153700D02*
D03*
D36*
X1633350Y1159500D02*
D03*
D37*
X1584750Y1139900D02*
D03*
D38*
X1655000Y1306750D02*
D03*
D39*
X1535900Y1124800D02*
D03*
D40*
X1524350Y1098750D02*
D03*
D41*
X1479750Y1117100D02*
D03*
D42*
X1528300Y1239600D02*
D03*
Y1249600D02*
D03*
X1503900Y1293000D02*
D03*
Y1303000D02*
D03*
X1624300Y1207500D02*
D03*
Y1287500D02*
D03*
Y1237500D02*
D03*
Y1227500D02*
D03*
Y1217500D02*
D03*
D43*
X1516890Y1184610D02*
D03*
X1526890D02*
D03*
X1536890D02*
D03*
X1546890D02*
D03*
X1516990Y1302610D02*
D03*
X1526990D02*
D03*
X1536990D02*
D03*
X1546990D02*
D03*
X1594990D02*
D03*
X1584990D02*
D03*
X1574990D02*
D03*
X1564990D02*
D03*
D44*
X1628300Y1302700D02*
D03*
X1618300D02*
D03*
X1608300D02*
D03*
X1618200Y1184500D02*
D03*
X1608200D02*
D03*
X1598200D02*
D03*
X1588200D02*
D03*
X1578200D02*
D03*
X1568200D02*
D03*
X1452900Y1158100D02*
D03*
X1462900D02*
D03*
X1472900D02*
D03*
X1482900D02*
D03*
Y1198100D02*
D03*
X1472900D02*
D03*
X1462900D02*
D03*
X1452900D02*
D03*
X1482900Y1238100D02*
D03*
X1472900D02*
D03*
X1462900D02*
D03*
X1452900D02*
D03*
X1482900Y1278100D02*
D03*
X1472900D02*
D03*
X1462900D02*
D03*
X1452900D02*
D03*
X1482900Y1298100D02*
D03*
X1472900D02*
D03*
X1462900D02*
D03*
X1452900D02*
D03*
X1482900Y1178100D02*
D03*
X1472900D02*
D03*
X1462900D02*
D03*
X1452900D02*
D03*
X1482900Y1218100D02*
D03*
X1472900D02*
D03*
X1462900D02*
D03*
X1452900D02*
D03*
X1482900Y1258100D02*
D03*
X1472900D02*
D03*
X1462900D02*
D03*
X1452900D02*
D03*
X1482500Y1139500D02*
D03*
X1472500D02*
D03*
X1462500D02*
D03*
X1452500D02*
D03*
D45*
X1471600Y1111860D02*
D03*
Y1096560D02*
D03*
D46*
X1482400Y1114260D02*
D03*
Y1094460D02*
D03*
D47*
X1506830Y1206140D02*
D03*
X1519530Y1206340D02*
D03*
X1506830Y1218340D02*
D03*
X1519530Y1218440D02*
D03*
X1513130Y1203340D02*
D03*
X1522030Y1212140D02*
D03*
X1513530Y1221140D02*
D03*
X1504130Y1211940D02*
D03*
X1604530Y0997440D02*
D03*
X1613930Y1006640D02*
D03*
X1622430Y0997640D02*
D03*
X1613530Y0988840D02*
D03*
X1619930Y1003940D02*
D03*
X1607230Y1003840D02*
D03*
X1619930Y0991840D02*
D03*
X1607230Y0991640D02*
D03*
D48*
X1624300Y1277500D02*
D03*
Y1267500D02*
D03*
Y1257500D02*
D03*
Y1247500D02*
D03*
D49*
X1651200Y1183300D02*
D03*
X1641200D02*
D03*
X1651200Y1193300D02*
D03*
X1641200D02*
D03*
X1651200Y1203300D02*
D03*
X1641200D02*
D03*
X1651200Y1213300D02*
D03*
X1641200D02*
D03*
X1651200Y1223300D02*
D03*
X1641200D02*
D03*
X1651200Y1233300D02*
D03*
X1641200D02*
D03*
X1651200Y1243300D02*
D03*
X1641200D02*
D03*
X1651200Y1253300D02*
D03*
X1641200D02*
D03*
X1651200Y1263300D02*
D03*
X1641200D02*
D03*
X1651200Y1273300D02*
D03*
X1641200D02*
D03*
X1651200Y1283300D02*
D03*
X1641200D02*
D03*
X1651200Y1293300D02*
D03*
X1641200D02*
D03*
X1651200Y1303300D02*
D03*
D50*
X1641200D02*
D03*
D51*
X1561800Y1257800D02*
D03*
X1541100Y1255500D02*
D03*
X1554300Y1204000D02*
D03*
X1542900D02*
D03*
X1571700Y1214100D02*
D03*
X1548000Y1252000D02*
D03*
X1589500Y1255400D02*
D03*
X1579700Y1245200D02*
D03*
X1597200Y1282900D02*
D03*
X1555800Y1301700D02*
D03*
X1608900Y1230900D02*
D03*
X1597600Y1210300D02*
D03*
X1495000Y1253200D02*
D03*
Y1258500D02*
D03*
X1564900Y1200500D02*
D03*
X1520000Y1127600D02*
D03*
X1520100Y1122300D02*
D03*
X1525800Y1127600D02*
D03*
X1531000Y1122100D02*
D03*
X1531100Y1127500D02*
D03*
X1525600Y1122300D02*
D03*
X1564000Y1283200D02*
D03*
X1524700Y1102400D02*
D03*
X1524600Y1097100D02*
D03*
X1607800Y1286900D02*
D03*
Y1267200D02*
D03*
X1572400Y1166200D02*
D03*
X1541200Y1168100D02*
D03*
X1498900Y1163100D02*
D03*
X1496400Y1137300D02*
D03*
X1592100Y1166200D02*
D03*
X1472200Y1123100D02*
D03*
X1490300Y1119200D02*
D03*
X1553700Y1115000D02*
D03*
X1544500Y1124500D02*
D03*
D52*
X1513094Y1212306D02*
D03*
X1613487Y0997739D02*
D03*
M02*
