G04 Layer_Color=128*
%FSAX25Y25*%
%MOIN*%
G70*
G01*
G75*
%ADD13R,0.06299X0.07087*%
%ADD16O,0.01200X0.04000*%
%ADD18R,0.09055X0.09055*%
%ADD21R,0.07087X0.06299*%
%ADD53R,0.12000X0.06000*%
%ADD54R,0.09055X0.09055*%
%ADD55R,0.08000X0.21000*%
%ADD56R,0.08000X0.21500*%
%ADD57O,0.06061X0.02362*%
D13*
X1462588Y1247700D02*
D03*
X1473612D02*
D03*
X1538588Y1264500D02*
D03*
X1549612D02*
D03*
D16*
X1585400Y1287100D02*
D03*
X1588900D02*
D03*
X1592400D02*
D03*
Y1277200D02*
D03*
X1585400D02*
D03*
X1579800Y1287100D02*
D03*
X1572800D02*
D03*
Y1277200D02*
D03*
X1576300D02*
D03*
X1579800D02*
D03*
D18*
X1499642Y1086313D02*
D03*
X1517358D02*
D03*
D21*
X1496900Y1114312D02*
D03*
Y1103288D02*
D03*
D53*
X1523800Y1102098D02*
D03*
Y1116302D02*
D03*
X1508400Y1102098D02*
D03*
Y1116302D02*
D03*
D54*
X1494987Y1259342D02*
D03*
Y1277058D02*
D03*
X1495213Y1246758D02*
D03*
Y1229042D02*
D03*
D55*
X1513400Y1239300D02*
D03*
D56*
Y1273300D02*
D03*
D57*
X1551500Y1282300D02*
D03*
Y1287300D02*
D03*
Y1277300D02*
D03*
Y1272300D02*
D03*
X1530500Y1287300D02*
D03*
Y1282300D02*
D03*
Y1277300D02*
D03*
Y1272300D02*
D03*
M02*
