G04 Layer_Color=16711935*
%FSAX25Y25*%
%MOIN*%
G70*
G01*
G75*
%ADD30C,0.01500*%
%ADD69C,0.01000*%
%ADD101C,0.00100*%
D30*
X1733950Y1070511D02*
X1734447Y1310976D01*
X1733950Y1070511D02*
X1807939D01*
Y1016411D02*
Y1070511D01*
Y1016411D02*
X1885608D01*
Y0973450D02*
Y1016411D01*
Y0973450D02*
X1960890D01*
Y1100346D01*
X1905199D02*
X1960890D01*
X1905199D02*
Y1148478D01*
X1960691D01*
Y1310976D01*
X1734447D02*
X1960691D01*
X2187830Y1313976D02*
Y1409976D01*
X2075862Y1385976D02*
X2187830D01*
X2075862Y1373976D02*
X2187830D01*
X2075862Y1361976D02*
X2187830D01*
X2075862Y1349976D02*
X2187830D01*
X2075862Y1337976D02*
X2187830D01*
X2075862Y1325976D02*
X2187830D01*
X2075862Y1313976D02*
X2187830D01*
X2075862D02*
Y1409976D01*
X2018876Y1385976D02*
X2075862D01*
X2018876Y1373976D02*
X2075862D01*
X2018876Y1361976D02*
X2075862D01*
X2018876Y1349976D02*
X2075862D01*
X2018876Y1337976D02*
X2075862D01*
X2018876Y1325976D02*
X2075862D01*
X2018876Y1313976D02*
X2075862D01*
X2018876D02*
Y1409976D01*
X1953892Y1385976D02*
X2018876D01*
X1953892Y1373976D02*
X2018876D01*
X1953892Y1361976D02*
X2018876D01*
X1953892Y1349976D02*
X2018876D01*
X1953892Y1337976D02*
X2018876D01*
X1953892Y1325976D02*
X2018876D01*
X1953892Y1313976D02*
X2018876D01*
X1953892D02*
Y1409976D01*
X1867916Y1385976D02*
X1953892D01*
X1867916Y1373976D02*
X1953892D01*
X1867916Y1361976D02*
X1953892D01*
X1867916Y1349976D02*
X1953892D01*
X1867916Y1337976D02*
X1953892D01*
X1867916Y1325976D02*
X1953892D01*
X1867916Y1313976D02*
X1953892D01*
X1867916D02*
Y1409976D01*
X1774941Y1385976D02*
X1867916D01*
X1774941Y1373976D02*
X1867916D01*
X1774941Y1361976D02*
X1867916D01*
X1774941Y1349976D02*
X1867916D01*
X1774941Y1337976D02*
X1867916D01*
X1774941Y1325976D02*
X1867916D01*
X1774941Y1313976D02*
X1867916D01*
X1774941D02*
Y1409976D01*
X1733950Y1385976D02*
X1774941D01*
X1733950Y1373976D02*
X1774941D01*
X1733950Y1361976D02*
X1774941D01*
X1733950Y1349976D02*
X1774941D01*
X1733950Y1337976D02*
X1774941D01*
X1733950Y1325976D02*
X1774941D01*
X1733950Y1313976D02*
X1774941D01*
X1733950D02*
Y1409976D01*
X2187830D01*
X1733950Y1397976D02*
X2187830D01*
D69*
X1612275Y1154100D02*
X1668200D01*
X1612275Y1103800D02*
Y1154100D01*
X1668200D02*
Y1315900D01*
X1612275Y1103800D02*
X1668200D01*
X1442200Y1075800D02*
X1516300D01*
Y1021361D02*
Y1075800D01*
Y1021361D02*
X1594400D01*
Y0978100D02*
Y1021300D01*
Y0978054D02*
X1668200D01*
Y0978100D02*
Y1103800D01*
X1442200Y1075800D02*
Y1315900D01*
X1668200D01*
X2081862Y1406974D02*
Y1400976D01*
X2084861D01*
X2085861Y1401976D01*
Y1402976D01*
X2084861Y1403975D01*
X2081862D01*
X2084861D01*
X2085861Y1404975D01*
Y1405975D01*
X2084861Y1406974D01*
X2081862D01*
X2088860Y1400976D02*
X2090859D01*
X2091859Y1401976D01*
Y1403975D01*
X2090859Y1404975D01*
X2088860D01*
X2087860Y1403975D01*
Y1401976D01*
X2088860Y1400976D01*
X2094858Y1404975D02*
X2096857D01*
X2097857Y1403975D01*
Y1400976D01*
X2094858D01*
X2093858Y1401976D01*
X2094858Y1402976D01*
X2097857D01*
X2099856Y1404975D02*
Y1400976D01*
Y1402976D01*
X2100856Y1403975D01*
X2101856Y1404975D01*
X2102855D01*
X2109853Y1406974D02*
Y1400976D01*
X2106854D01*
X2105854Y1401976D01*
Y1403975D01*
X2106854Y1404975D01*
X2109853D01*
X2117850Y1406974D02*
Y1400976D01*
X2121849D01*
X2124848Y1404975D02*
X2126847D01*
X2127847Y1403975D01*
Y1400976D01*
X2124848D01*
X2123848Y1401976D01*
X2124848Y1402976D01*
X2127847D01*
X2129847Y1404975D02*
Y1401976D01*
X2130846Y1400976D01*
X2133845D01*
Y1399977D01*
X2132845Y1398977D01*
X2131846D01*
X2133845Y1400976D02*
Y1404975D01*
X2138844Y1400976D02*
X2136844D01*
X2135845Y1401976D01*
Y1403975D01*
X2136844Y1404975D01*
X2138844D01*
X2139843Y1403975D01*
Y1402976D01*
X2135845D01*
X2141843Y1404975D02*
Y1400976D01*
Y1402976D01*
X2142842Y1403975D01*
X2143842Y1404975D01*
X2144842D01*
X2157837Y1405975D02*
X2156838Y1406974D01*
X2154838D01*
X2153839Y1405975D01*
Y1404975D01*
X2154838Y1403975D01*
X2156838D01*
X2157837Y1402976D01*
Y1401976D01*
X2156838Y1400976D01*
X2154838D01*
X2153839Y1401976D01*
X2160836Y1405975D02*
Y1404975D01*
X2159837D01*
X2161836D01*
X2160836D01*
Y1401976D01*
X2161836Y1400976D01*
X2165835Y1404975D02*
X2167834D01*
X2168834Y1403975D01*
Y1400976D01*
X2165835D01*
X2164835Y1401976D01*
X2165835Y1402976D01*
X2168834D01*
X2174832Y1404975D02*
X2171833D01*
X2170833Y1403975D01*
Y1401976D01*
X2171833Y1400976D01*
X2174832D01*
X2176831D02*
Y1406974D01*
Y1402976D02*
X2179830Y1404975D01*
X2176831Y1402976D02*
X2179830Y1400976D01*
X2024876Y1381975D02*
X2025876Y1382974D01*
X2027875D01*
X2028875Y1381975D01*
Y1380975D01*
X2027875Y1379975D01*
X2026875D01*
X2027875D01*
X2028875Y1378976D01*
Y1377976D01*
X2027875Y1376976D01*
X2025876D01*
X2024876Y1377976D01*
X2030874Y1376976D02*
Y1377976D01*
X2031874D01*
Y1376976D01*
X2030874D01*
X2039871Y1382974D02*
X2035872D01*
Y1379975D01*
X2037872Y1380975D01*
X2038871D01*
X2039871Y1379975D01*
Y1377976D01*
X2038871Y1376976D01*
X2036872D01*
X2035872Y1377976D01*
X2027875Y1352976D02*
Y1358974D01*
X2024876Y1355975D01*
X2028875D01*
X2030874Y1352976D02*
Y1353976D01*
X2031874D01*
Y1352976D01*
X2030874D01*
X2035872Y1357975D02*
X2036872Y1358974D01*
X2038871D01*
X2039871Y1357975D01*
Y1356975D01*
X2038871Y1355975D01*
X2039871Y1354976D01*
Y1353976D01*
X2038871Y1352976D01*
X2036872D01*
X2035872Y1353976D01*
Y1354976D01*
X2036872Y1355975D01*
X2035872Y1356975D01*
Y1357975D01*
X2036872Y1355975D02*
X2038871D01*
X2024876Y1333975D02*
X2025876Y1334974D01*
X2027875D01*
X2028875Y1333975D01*
Y1332975D01*
X2027875Y1331975D01*
X2026875D01*
X2027875D01*
X2028875Y1330976D01*
Y1329976D01*
X2027875Y1328976D01*
X2025876D01*
X2024876Y1329976D01*
X2030874Y1328976D02*
Y1329976D01*
X2031874D01*
Y1328976D01*
X2030874D01*
X2039871Y1334974D02*
X2035872D01*
Y1331975D01*
X2037872Y1332975D01*
X2038871D01*
X2039871Y1331975D01*
Y1329976D01*
X2038871Y1328976D01*
X2036872D01*
X2035872Y1329976D01*
X2028875Y1405975D02*
X2027875Y1406974D01*
X2025876D01*
X2024876Y1405975D01*
Y1401976D01*
X2025876Y1400976D01*
X2027875D01*
X2028875Y1401976D01*
X2031874Y1400976D02*
X2033873D01*
X2034873Y1401976D01*
Y1403975D01*
X2033873Y1404975D01*
X2031874D01*
X2030874Y1403975D01*
Y1401976D01*
X2031874Y1400976D01*
X2036872D02*
Y1404975D01*
X2039871D01*
X2040871Y1403975D01*
Y1400976D01*
X2042870D02*
X2045869D01*
X2046869Y1401976D01*
X2045869Y1402976D01*
X2043870D01*
X2042870Y1403975D01*
X2043870Y1404975D01*
X2046869D01*
X2049868Y1405975D02*
Y1404975D01*
X2048868D01*
X2050867D01*
X2049868D01*
Y1401976D01*
X2050867Y1400976D01*
X2054866Y1404975D02*
X2056866D01*
X2057865Y1403975D01*
Y1400976D01*
X2054866D01*
X2053867Y1401976D01*
X2054866Y1402976D01*
X2057865D01*
X2059865Y1400976D02*
Y1404975D01*
X2062864D01*
X2063863Y1403975D01*
Y1400976D01*
X2066862Y1405975D02*
Y1404975D01*
X2065863D01*
X2067862D01*
X2066862D01*
Y1401976D01*
X2067862Y1400976D01*
X1959892Y1381975D02*
X1960892Y1382974D01*
X1962892D01*
X1963891Y1381975D01*
Y1377976D01*
X1962892Y1376976D01*
X1960892D01*
X1959892Y1377976D01*
Y1381975D01*
X1965891Y1376976D02*
Y1377976D01*
X1966890D01*
Y1376976D01*
X1965891D01*
X1973888D02*
Y1382974D01*
X1970889Y1379975D01*
X1974888D01*
X1976887Y1381975D02*
X1977887Y1382974D01*
X1979886D01*
X1980886Y1381975D01*
Y1377976D01*
X1979886Y1376976D01*
X1977887D01*
X1976887Y1377976D01*
Y1381975D01*
X1982885Y1376976D02*
Y1380975D01*
X1983885D01*
X1984884Y1379975D01*
Y1376976D01*
Y1379975D01*
X1985884Y1380975D01*
X1986884Y1379975D01*
Y1376976D01*
X1988883D02*
X1990882D01*
X1989883D01*
Y1380975D01*
X1988883D01*
X1993881Y1376976D02*
X1995881D01*
X1994881D01*
Y1382974D01*
X1993881D01*
X1959892Y1364976D02*
X1961892D01*
X1960892D01*
Y1370974D01*
X1959892Y1369975D01*
X1964891Y1364976D02*
Y1365976D01*
X1965891D01*
Y1364976D01*
X1964891D01*
X1972888D02*
Y1370974D01*
X1969889Y1367975D01*
X1973888D01*
X1975887Y1369975D02*
X1976887Y1370974D01*
X1978886D01*
X1979886Y1369975D01*
Y1365976D01*
X1978886Y1364976D01*
X1976887D01*
X1975887Y1365976D01*
Y1369975D01*
X1981885Y1364976D02*
Y1368975D01*
X1982885D01*
X1983885Y1367975D01*
Y1364976D01*
Y1367975D01*
X1984884Y1368975D01*
X1985884Y1367975D01*
Y1364976D01*
X1987883D02*
X1989883D01*
X1988883D01*
Y1368975D01*
X1987883D01*
X1992882Y1364976D02*
X1994881D01*
X1993881D01*
Y1370974D01*
X1992882D01*
X1959892Y1352976D02*
X1961892D01*
X1960892D01*
Y1358974D01*
X1959892Y1357975D01*
X1968889Y1352976D02*
X1964891D01*
X1968889Y1356975D01*
Y1357975D01*
X1967890Y1358974D01*
X1965891D01*
X1964891Y1357975D01*
X1970889Y1352976D02*
Y1353976D01*
X1971889D01*
Y1352976D01*
X1970889D01*
X1979886Y1358974D02*
X1977887Y1357975D01*
X1975887Y1355975D01*
Y1353976D01*
X1976887Y1352976D01*
X1978886D01*
X1979886Y1353976D01*
Y1354976D01*
X1978886Y1355975D01*
X1975887D01*
X1981885Y1357975D02*
X1982885Y1358974D01*
X1984884D01*
X1985884Y1357975D01*
Y1353976D01*
X1984884Y1352976D01*
X1982885D01*
X1981885Y1353976D01*
Y1357975D01*
X1987883Y1352976D02*
Y1356975D01*
X1988883D01*
X1989883Y1355975D01*
Y1352976D01*
Y1355975D01*
X1990882Y1356975D01*
X1991882Y1355975D01*
Y1352976D01*
X1993881D02*
X1995881D01*
X1994881D01*
Y1356975D01*
X1993881D01*
X1998880Y1352976D02*
X2000879D01*
X1999879D01*
Y1358974D01*
X1998880D01*
X1959892Y1340976D02*
X1961892D01*
X1960892D01*
Y1346974D01*
X1959892Y1345975D01*
X1964891Y1340976D02*
Y1341976D01*
X1965891D01*
Y1340976D01*
X1964891D01*
X1972888D02*
Y1346974D01*
X1969889Y1343975D01*
X1973888D01*
X1975887Y1345975D02*
X1976887Y1346974D01*
X1978886D01*
X1979886Y1345975D01*
Y1341976D01*
X1978886Y1340976D01*
X1976887D01*
X1975887Y1341976D01*
Y1345975D01*
X1981885Y1340976D02*
Y1344975D01*
X1982885D01*
X1983885Y1343975D01*
Y1340976D01*
Y1343975D01*
X1984884Y1344975D01*
X1985884Y1343975D01*
Y1340976D01*
X1987883D02*
X1989883D01*
X1988883D01*
Y1344975D01*
X1987883D01*
X1992882Y1340976D02*
X1994881D01*
X1993881D01*
Y1346974D01*
X1992882D01*
X1959892Y1333975D02*
X1960892Y1334974D01*
X1962892D01*
X1963891Y1333975D01*
Y1329976D01*
X1962892Y1328976D01*
X1960892D01*
X1959892Y1329976D01*
Y1333975D01*
X1965891Y1328976D02*
Y1329976D01*
X1966890D01*
Y1328976D01*
X1965891D01*
X1973888D02*
Y1334974D01*
X1970889Y1331975D01*
X1974888D01*
X1976887Y1333975D02*
X1977887Y1334974D01*
X1979886D01*
X1980886Y1333975D01*
Y1329976D01*
X1979886Y1328976D01*
X1977887D01*
X1976887Y1329976D01*
Y1333975D01*
X1982885Y1328976D02*
Y1332975D01*
X1983885D01*
X1984884Y1331975D01*
Y1328976D01*
Y1331975D01*
X1985884Y1332975D01*
X1986884Y1331975D01*
Y1328976D01*
X1988883D02*
X1990882D01*
X1989883D01*
Y1332975D01*
X1988883D01*
X1993881Y1328976D02*
X1995881D01*
X1994881D01*
Y1334974D01*
X1993881D01*
X1959892Y1406974D02*
X1963891D01*
X1961892D01*
Y1400976D01*
X1965891Y1406974D02*
Y1400976D01*
Y1403975D01*
X1966890Y1404975D01*
X1968889D01*
X1969889Y1403975D01*
Y1400976D01*
X1971889D02*
X1973888D01*
X1972888D01*
Y1404975D01*
X1971889D01*
X1980886D02*
X1977887D01*
X1976887Y1403975D01*
Y1401976D01*
X1977887Y1400976D01*
X1980886D01*
X1982885D02*
Y1406974D01*
Y1402976D02*
X1985884Y1404975D01*
X1982885Y1402976D02*
X1985884Y1400976D01*
X1988883D02*
Y1404975D01*
X1991882D01*
X1992882Y1403975D01*
Y1400976D01*
X1997880D02*
X1995881D01*
X1994881Y1401976D01*
Y1403975D01*
X1995881Y1404975D01*
X1997880D01*
X1998880Y1403975D01*
Y1402976D01*
X1994881D01*
X2000879Y1400976D02*
X2003878D01*
X2004878Y1401976D01*
X2003878Y1402976D01*
X2001879D01*
X2000879Y1403975D01*
X2001879Y1404975D01*
X2004878D01*
X2006877Y1400976D02*
X2009876D01*
X2010876Y1401976D01*
X2009876Y1402976D01*
X2007877D01*
X2006877Y1403975D01*
X2007877Y1404975D01*
X2010876D01*
X1877914Y1381975D02*
X1876915Y1382974D01*
X1874915D01*
X1873916Y1381975D01*
Y1380975D01*
X1874915Y1379975D01*
X1876915D01*
X1877914Y1378976D01*
Y1377976D01*
X1876915Y1376976D01*
X1874915D01*
X1873916Y1377976D01*
X1880914Y1376976D02*
X1882913D01*
X1883912Y1377976D01*
Y1379975D01*
X1882913Y1380975D01*
X1880914D01*
X1879914Y1379975D01*
Y1377976D01*
X1880914Y1376976D01*
X1885912D02*
X1887911D01*
X1886912D01*
Y1382974D01*
X1885912D01*
X1894909D02*
Y1376976D01*
X1891910D01*
X1890910Y1377976D01*
Y1379975D01*
X1891910Y1380975D01*
X1894909D01*
X1899907Y1376976D02*
X1897908D01*
X1896908Y1377976D01*
Y1379975D01*
X1897908Y1380975D01*
X1899907D01*
X1900907Y1379975D01*
Y1378976D01*
X1896908D01*
X1902906Y1380975D02*
Y1376976D01*
Y1378976D01*
X1903906Y1379975D01*
X1904906Y1380975D01*
X1905905D01*
X1914902Y1376976D02*
Y1382974D01*
X1917901D01*
X1918901Y1381975D01*
Y1379975D01*
X1917901Y1378976D01*
X1914902D01*
X1916902D02*
X1918901Y1376976D01*
X1923900D02*
X1921900D01*
X1920901Y1377976D01*
Y1379975D01*
X1921900Y1380975D01*
X1923900D01*
X1924899Y1379975D01*
Y1378976D01*
X1920901D01*
X1926899Y1376976D02*
X1929898D01*
X1930897Y1377976D01*
X1929898Y1378976D01*
X1927898D01*
X1926899Y1379975D01*
X1927898Y1380975D01*
X1930897D01*
X1932897Y1376976D02*
X1934896D01*
X1933896D01*
Y1380975D01*
X1932897D01*
X1937895Y1376976D02*
X1940894D01*
X1941894Y1377976D01*
X1940894Y1378976D01*
X1938895D01*
X1937895Y1379975D01*
X1938895Y1380975D01*
X1941894D01*
X1944893Y1381975D02*
Y1380975D01*
X1943893D01*
X1945892D01*
X1944893D01*
Y1377976D01*
X1945892Y1376976D01*
X1877914Y1369975D02*
X1876915Y1370974D01*
X1874915D01*
X1873916Y1369975D01*
Y1365976D01*
X1874915Y1364976D01*
X1876915D01*
X1877914Y1365976D01*
X1880914Y1364976D02*
X1882913D01*
X1883912Y1365976D01*
Y1367975D01*
X1882913Y1368975D01*
X1880914D01*
X1879914Y1367975D01*
Y1365976D01*
X1880914Y1364976D01*
X1885912Y1362977D02*
Y1368975D01*
X1888911D01*
X1889911Y1367975D01*
Y1365976D01*
X1888911Y1364976D01*
X1885912D01*
X1891910Y1362977D02*
Y1368975D01*
X1894909D01*
X1895909Y1367975D01*
Y1365976D01*
X1894909Y1364976D01*
X1891910D01*
X1900907D02*
X1898908D01*
X1897908Y1365976D01*
Y1367975D01*
X1898908Y1368975D01*
X1900907D01*
X1901907Y1367975D01*
Y1366976D01*
X1897908D01*
X1903906Y1368975D02*
Y1364976D01*
Y1366976D01*
X1904906Y1367975D01*
X1905905Y1368975D01*
X1906905D01*
X1877914Y1358974D02*
X1873916D01*
Y1355975D01*
X1875915D01*
X1873916D01*
Y1352976D01*
X1879914D02*
Y1358974D01*
X1882913D01*
X1883912Y1357975D01*
Y1355975D01*
X1882913Y1354976D01*
X1879914D01*
X1881913D02*
X1883912Y1352976D01*
X1885912Y1355975D02*
X1889911D01*
X1894909Y1352976D02*
Y1358974D01*
X1891910Y1355975D01*
X1895909D01*
X1877914Y1345975D02*
X1876915Y1346974D01*
X1874915D01*
X1873916Y1345975D01*
Y1341976D01*
X1874915Y1340976D01*
X1876915D01*
X1877914Y1341976D01*
X1880914Y1340976D02*
X1882913D01*
X1883912Y1341976D01*
Y1343975D01*
X1882913Y1344975D01*
X1880914D01*
X1879914Y1343975D01*
Y1341976D01*
X1880914Y1340976D01*
X1885912Y1338977D02*
Y1344975D01*
X1888911D01*
X1889911Y1343975D01*
Y1341976D01*
X1888911Y1340976D01*
X1885912D01*
X1891910Y1338977D02*
Y1344975D01*
X1894909D01*
X1895909Y1343975D01*
Y1341976D01*
X1894909Y1340976D01*
X1891910D01*
X1900907D02*
X1898908D01*
X1897908Y1341976D01*
Y1343975D01*
X1898908Y1344975D01*
X1900907D01*
X1901907Y1343975D01*
Y1342976D01*
X1897908D01*
X1903906Y1344975D02*
Y1340976D01*
Y1342976D01*
X1904906Y1343975D01*
X1905905Y1344975D01*
X1906905D01*
X1877914Y1333975D02*
X1876915Y1334974D01*
X1874915D01*
X1873916Y1333975D01*
Y1332975D01*
X1874915Y1331975D01*
X1876915D01*
X1877914Y1330976D01*
Y1329976D01*
X1876915Y1328976D01*
X1874915D01*
X1873916Y1329976D01*
X1880914Y1328976D02*
X1882913D01*
X1883912Y1329976D01*
Y1331975D01*
X1882913Y1332975D01*
X1880914D01*
X1879914Y1331975D01*
Y1329976D01*
X1880914Y1328976D01*
X1885912D02*
X1887911D01*
X1886912D01*
Y1334974D01*
X1885912D01*
X1894909D02*
Y1328976D01*
X1891910D01*
X1890910Y1329976D01*
Y1331975D01*
X1891910Y1332975D01*
X1894909D01*
X1899907Y1328976D02*
X1897908D01*
X1896908Y1329976D01*
Y1331975D01*
X1897908Y1332975D01*
X1899907D01*
X1900907Y1331975D01*
Y1330976D01*
X1896908D01*
X1902906Y1332975D02*
Y1328976D01*
Y1330976D01*
X1903906Y1331975D01*
X1904906Y1332975D01*
X1905905D01*
X1914902Y1328976D02*
Y1334974D01*
X1917901D01*
X1918901Y1333975D01*
Y1331975D01*
X1917901Y1330976D01*
X1914902D01*
X1916902D02*
X1918901Y1328976D01*
X1923900D02*
X1921900D01*
X1920901Y1329976D01*
Y1331975D01*
X1921900Y1332975D01*
X1923900D01*
X1924899Y1331975D01*
Y1330976D01*
X1920901D01*
X1926899Y1328976D02*
X1929898D01*
X1930897Y1329976D01*
X1929898Y1330976D01*
X1927898D01*
X1926899Y1331975D01*
X1927898Y1332975D01*
X1930897D01*
X1932897Y1328976D02*
X1934896D01*
X1933896D01*
Y1332975D01*
X1932897D01*
X1937895Y1328976D02*
X1940894D01*
X1941894Y1329976D01*
X1940894Y1330976D01*
X1938895D01*
X1937895Y1331975D01*
X1938895Y1332975D01*
X1941894D01*
X1944893Y1333975D02*
Y1332975D01*
X1943893D01*
X1945892D01*
X1944893D01*
Y1329976D01*
X1945892Y1328976D01*
X1873916Y1400976D02*
Y1406974D01*
X1875915Y1404975D01*
X1877914Y1406974D01*
Y1400976D01*
X1880914Y1404975D02*
X1882913D01*
X1883912Y1403975D01*
Y1400976D01*
X1880914D01*
X1879914Y1401976D01*
X1880914Y1402976D01*
X1883912D01*
X1886912Y1405975D02*
Y1404975D01*
X1885912D01*
X1887911D01*
X1886912D01*
Y1401976D01*
X1887911Y1400976D01*
X1893909D02*
X1891910D01*
X1890910Y1401976D01*
Y1403975D01*
X1891910Y1404975D01*
X1893909D01*
X1894909Y1403975D01*
Y1402976D01*
X1890910D01*
X1896908Y1404975D02*
Y1400976D01*
Y1402976D01*
X1897908Y1403975D01*
X1898908Y1404975D01*
X1899907D01*
X1902906Y1400976D02*
X1904906D01*
X1903906D01*
Y1404975D01*
X1902906D01*
X1908904D02*
X1910904D01*
X1911903Y1403975D01*
Y1400976D01*
X1908904D01*
X1907905Y1401976D01*
X1908904Y1402976D01*
X1911903D01*
X1913903Y1400976D02*
X1915902D01*
X1914902D01*
Y1406974D01*
X1913903D01*
X1780941Y1394974D02*
X1784940D01*
X1782941D01*
Y1388976D01*
X1787939D02*
X1789938D01*
X1790938Y1389976D01*
Y1391975D01*
X1789938Y1392975D01*
X1787939D01*
X1786939Y1391975D01*
Y1389976D01*
X1787939Y1388976D01*
X1792937Y1386977D02*
Y1392975D01*
X1795936D01*
X1796936Y1391975D01*
Y1389976D01*
X1795936Y1388976D01*
X1792937D01*
X1807932Y1394974D02*
X1805933D01*
X1804934Y1393975D01*
Y1389976D01*
X1805933Y1388976D01*
X1807932D01*
X1808932Y1389976D01*
Y1393975D01*
X1807932Y1394974D01*
X1810932Y1392975D02*
X1812931Y1388976D01*
X1814930Y1392975D01*
X1819929Y1388976D02*
X1817929D01*
X1816930Y1389976D01*
Y1391975D01*
X1817929Y1392975D01*
X1819929D01*
X1820928Y1391975D01*
Y1390976D01*
X1816930D01*
X1822928Y1392975D02*
Y1388976D01*
Y1390976D01*
X1823927Y1391975D01*
X1824927Y1392975D01*
X1825927D01*
X1828926Y1388976D02*
X1830925D01*
X1829925D01*
Y1394974D01*
X1828926D01*
X1834924Y1392975D02*
X1836923D01*
X1837923Y1391975D01*
Y1388976D01*
X1834924D01*
X1833924Y1389976D01*
X1834924Y1390976D01*
X1837923D01*
X1839922Y1392975D02*
Y1389976D01*
X1840922Y1388976D01*
X1843921D01*
Y1387977D01*
X1842921Y1386977D01*
X1841921D01*
X1843921Y1388976D02*
Y1392975D01*
X1780941Y1382974D02*
X1784940D01*
X1782941D01*
Y1376976D01*
X1787939D02*
X1789938D01*
X1790938Y1377976D01*
Y1379975D01*
X1789938Y1380975D01*
X1787939D01*
X1786939Y1379975D01*
Y1377976D01*
X1787939Y1376976D01*
X1792937Y1374977D02*
Y1380975D01*
X1795936D01*
X1796936Y1379975D01*
Y1377976D01*
X1795936Y1376976D01*
X1792937D01*
X1808932Y1381975D02*
X1807932Y1382974D01*
X1805933D01*
X1804934Y1381975D01*
Y1380975D01*
X1805933Y1379975D01*
X1807932D01*
X1808932Y1378976D01*
Y1377976D01*
X1807932Y1376976D01*
X1805933D01*
X1804934Y1377976D01*
X1811931Y1376976D02*
X1813931D01*
X1814930Y1377976D01*
Y1379975D01*
X1813931Y1380975D01*
X1811931D01*
X1810932Y1379975D01*
Y1377976D01*
X1811931Y1376976D01*
X1816930D02*
X1818929D01*
X1817929D01*
Y1382974D01*
X1816930D01*
X1825927D02*
Y1376976D01*
X1822928D01*
X1821928Y1377976D01*
Y1379975D01*
X1822928Y1380975D01*
X1825927D01*
X1830925Y1376976D02*
X1828926D01*
X1827926Y1377976D01*
Y1379975D01*
X1828926Y1380975D01*
X1830925D01*
X1831925Y1379975D01*
Y1378976D01*
X1827926D01*
X1833924Y1380975D02*
Y1376976D01*
Y1378976D01*
X1834924Y1379975D01*
X1835924Y1380975D01*
X1836923D01*
X1780941Y1370974D02*
X1784940D01*
X1782941D01*
Y1364976D01*
X1787939D02*
X1789938D01*
X1790938Y1365976D01*
Y1367975D01*
X1789938Y1368975D01*
X1787939D01*
X1786939Y1367975D01*
Y1365976D01*
X1787939Y1364976D01*
X1792937Y1362977D02*
Y1368975D01*
X1795936D01*
X1796936Y1367975D01*
Y1365976D01*
X1795936Y1364976D01*
X1792937D01*
X1804934Y1370974D02*
Y1364976D01*
X1808932D01*
X1811931Y1368975D02*
X1813931D01*
X1814930Y1367975D01*
Y1364976D01*
X1811931D01*
X1810932Y1365976D01*
X1811931Y1366976D01*
X1814930D01*
X1816930Y1368975D02*
Y1365976D01*
X1817929Y1364976D01*
X1820928D01*
Y1363977D01*
X1819929Y1362977D01*
X1818929D01*
X1820928Y1364976D02*
Y1368975D01*
X1825927Y1364976D02*
X1823927D01*
X1822928Y1365976D01*
Y1367975D01*
X1823927Y1368975D01*
X1825927D01*
X1826926Y1367975D01*
Y1366976D01*
X1822928D01*
X1828926Y1368975D02*
Y1364976D01*
Y1366976D01*
X1829925Y1367975D01*
X1830925Y1368975D01*
X1831925D01*
X1780941Y1358974D02*
Y1352976D01*
X1783940D01*
X1784940Y1353976D01*
Y1357975D01*
X1783940Y1358974D01*
X1780941D01*
X1786939Y1352976D02*
X1788939D01*
X1787939D01*
Y1356975D01*
X1786939D01*
X1794937Y1352976D02*
X1792937D01*
X1791938Y1353976D01*
Y1355975D01*
X1792937Y1356975D01*
X1794937D01*
X1795936Y1355975D01*
Y1354976D01*
X1791938D01*
X1797936Y1352976D02*
X1799935D01*
X1798936D01*
Y1358974D01*
X1797936D01*
X1805933Y1352976D02*
X1803934D01*
X1802934Y1353976D01*
Y1355975D01*
X1803934Y1356975D01*
X1805933D01*
X1806933Y1355975D01*
Y1354976D01*
X1802934D01*
X1812931Y1356975D02*
X1809932D01*
X1808932Y1355975D01*
Y1353976D01*
X1809932Y1352976D01*
X1812931D01*
X1815930Y1357975D02*
Y1356975D01*
X1814930D01*
X1816930D01*
X1815930D01*
Y1353976D01*
X1816930Y1352976D01*
X1819929Y1356975D02*
Y1352976D01*
Y1354976D01*
X1820928Y1355975D01*
X1821928Y1356975D01*
X1822928D01*
X1825927Y1352976D02*
X1827926D01*
X1826926D01*
Y1356975D01*
X1825927D01*
X1834924D02*
X1831925D01*
X1830925Y1355975D01*
Y1353976D01*
X1831925Y1352976D01*
X1834924D01*
X1836923D02*
X1838923D01*
X1837923D01*
Y1358974D01*
X1836923Y1357975D01*
X1780941Y1346974D02*
Y1340976D01*
X1783940D01*
X1784940Y1341976D01*
Y1342976D01*
X1783940Y1343975D01*
X1780941D01*
X1783940D01*
X1784940Y1344975D01*
Y1345975D01*
X1783940Y1346974D01*
X1780941D01*
X1787939Y1340976D02*
X1789938D01*
X1790938Y1341976D01*
Y1343975D01*
X1789938Y1344975D01*
X1787939D01*
X1786939Y1343975D01*
Y1341976D01*
X1787939Y1340976D01*
X1793937Y1345975D02*
Y1344975D01*
X1792937D01*
X1794937D01*
X1793937D01*
Y1341976D01*
X1794937Y1340976D01*
X1798936Y1345975D02*
Y1344975D01*
X1797936D01*
X1799935D01*
X1798936D01*
Y1341976D01*
X1799935Y1340976D01*
X1803934D02*
X1805933D01*
X1806933Y1341976D01*
Y1343975D01*
X1805933Y1344975D01*
X1803934D01*
X1802934Y1343975D01*
Y1341976D01*
X1803934Y1340976D01*
X1808932D02*
Y1344975D01*
X1809932D01*
X1810932Y1343975D01*
Y1340976D01*
Y1343975D01*
X1811931Y1344975D01*
X1812931Y1343975D01*
Y1340976D01*
X1820928Y1346974D02*
Y1340976D01*
X1824927D01*
X1827926Y1344975D02*
X1829925D01*
X1830925Y1343975D01*
Y1340976D01*
X1827926D01*
X1826926Y1341976D01*
X1827926Y1342976D01*
X1830925D01*
X1832924Y1344975D02*
Y1341976D01*
X1833924Y1340976D01*
X1836923D01*
Y1339977D01*
X1835924Y1338977D01*
X1834924D01*
X1836923Y1340976D02*
Y1344975D01*
X1841921Y1340976D02*
X1839922D01*
X1838923Y1341976D01*
Y1343975D01*
X1839922Y1344975D01*
X1841921D01*
X1842921Y1343975D01*
Y1342976D01*
X1838923D01*
X1844921Y1344975D02*
Y1340976D01*
Y1342976D01*
X1845920Y1343975D01*
X1846920Y1344975D01*
X1847920D01*
X1780941Y1334974D02*
Y1328976D01*
X1783940D01*
X1784940Y1329976D01*
Y1330976D01*
X1783940Y1331975D01*
X1780941D01*
X1783940D01*
X1784940Y1332975D01*
Y1333975D01*
X1783940Y1334974D01*
X1780941D01*
X1787939Y1328976D02*
X1789938D01*
X1790938Y1329976D01*
Y1331975D01*
X1789938Y1332975D01*
X1787939D01*
X1786939Y1331975D01*
Y1329976D01*
X1787939Y1328976D01*
X1793937Y1333975D02*
Y1332975D01*
X1792937D01*
X1794937D01*
X1793937D01*
Y1329976D01*
X1794937Y1328976D01*
X1798936Y1333975D02*
Y1332975D01*
X1797936D01*
X1799935D01*
X1798936D01*
Y1329976D01*
X1799935Y1328976D01*
X1803934D02*
X1805933D01*
X1806933Y1329976D01*
Y1331975D01*
X1805933Y1332975D01*
X1803934D01*
X1802934Y1331975D01*
Y1329976D01*
X1803934Y1328976D01*
X1808932D02*
Y1332975D01*
X1809932D01*
X1810932Y1331975D01*
Y1328976D01*
Y1331975D01*
X1811931Y1332975D01*
X1812931Y1331975D01*
Y1328976D01*
X1824927Y1333975D02*
X1823927Y1334974D01*
X1821928D01*
X1820928Y1333975D01*
Y1332975D01*
X1821928Y1331975D01*
X1823927D01*
X1824927Y1330976D01*
Y1329976D01*
X1823927Y1328976D01*
X1821928D01*
X1820928Y1329976D01*
X1827926Y1328976D02*
X1829925D01*
X1830925Y1329976D01*
Y1331975D01*
X1829925Y1332975D01*
X1827926D01*
X1826926Y1331975D01*
Y1329976D01*
X1827926Y1328976D01*
X1832924D02*
X1834924D01*
X1833924D01*
Y1334974D01*
X1832924D01*
X1841921D02*
Y1328976D01*
X1838923D01*
X1837923Y1329976D01*
Y1331975D01*
X1838923Y1332975D01*
X1841921D01*
X1846920Y1328976D02*
X1844921D01*
X1843921Y1329976D01*
Y1331975D01*
X1844921Y1332975D01*
X1846920D01*
X1847920Y1331975D01*
Y1330976D01*
X1843921D01*
X1849919Y1332975D02*
Y1328976D01*
Y1330976D01*
X1850919Y1331975D01*
X1851918Y1332975D01*
X1852918D01*
X1780941Y1322974D02*
Y1316976D01*
X1783940D01*
X1784940Y1317976D01*
Y1318976D01*
X1783940Y1319975D01*
X1780941D01*
X1783940D01*
X1784940Y1320975D01*
Y1321975D01*
X1783940Y1322974D01*
X1780941D01*
X1787939Y1316976D02*
X1789938D01*
X1790938Y1317976D01*
Y1319975D01*
X1789938Y1320975D01*
X1787939D01*
X1786939Y1319975D01*
Y1317976D01*
X1787939Y1316976D01*
X1793937Y1321975D02*
Y1320975D01*
X1792937D01*
X1794937D01*
X1793937D01*
Y1317976D01*
X1794937Y1316976D01*
X1798936Y1321975D02*
Y1320975D01*
X1797936D01*
X1799935D01*
X1798936D01*
Y1317976D01*
X1799935Y1316976D01*
X1803934D02*
X1805933D01*
X1806933Y1317976D01*
Y1319975D01*
X1805933Y1320975D01*
X1803934D01*
X1802934Y1319975D01*
Y1317976D01*
X1803934Y1316976D01*
X1808932D02*
Y1320975D01*
X1809932D01*
X1810932Y1319975D01*
Y1316976D01*
Y1319975D01*
X1811931Y1320975D01*
X1812931Y1319975D01*
Y1316976D01*
X1823927Y1322974D02*
X1821928D01*
X1820928Y1321975D01*
Y1317976D01*
X1821928Y1316976D01*
X1823927D01*
X1824927Y1317976D01*
Y1321975D01*
X1823927Y1322974D01*
X1826926Y1320975D02*
X1828926Y1316976D01*
X1830925Y1320975D01*
X1835924Y1316976D02*
X1833924D01*
X1832924Y1317976D01*
Y1319975D01*
X1833924Y1320975D01*
X1835924D01*
X1836923Y1319975D01*
Y1318976D01*
X1832924D01*
X1838923Y1320975D02*
Y1316976D01*
Y1318976D01*
X1839922Y1319975D01*
X1840922Y1320975D01*
X1841921D01*
X1844921Y1316976D02*
X1846920D01*
X1845920D01*
Y1322974D01*
X1844921D01*
X1850919Y1320975D02*
X1852918D01*
X1853918Y1319975D01*
Y1316976D01*
X1850919D01*
X1849919Y1317976D01*
X1850919Y1318976D01*
X1853918D01*
X1855917Y1320975D02*
Y1317976D01*
X1856917Y1316976D01*
X1859916D01*
Y1315977D01*
X1858916Y1314977D01*
X1857916D01*
X1859916Y1316976D02*
Y1320975D01*
X1780941Y1400976D02*
Y1406974D01*
X1784940Y1400976D01*
Y1406974D01*
X1787939Y1404975D02*
X1789938D01*
X1790938Y1403975D01*
Y1400976D01*
X1787939D01*
X1786939Y1401976D01*
X1787939Y1402976D01*
X1790938D01*
X1792937Y1400976D02*
Y1404975D01*
X1793937D01*
X1794937Y1403975D01*
Y1400976D01*
Y1403975D01*
X1795936Y1404975D01*
X1796936Y1403975D01*
Y1400976D01*
X1801934D02*
X1799935D01*
X1798936Y1401976D01*
Y1403975D01*
X1799935Y1404975D01*
X1801934D01*
X1802934Y1403975D01*
Y1402976D01*
X1798936D01*
X1739950Y1388976D02*
X1741949D01*
X1740950D01*
Y1394974D01*
X1739950Y1393975D01*
X1743949Y1376976D02*
X1739950D01*
X1743949Y1380975D01*
Y1381975D01*
X1742949Y1382974D01*
X1740950D01*
X1739950Y1381975D01*
Y1369975D02*
X1740950Y1370974D01*
X1742949D01*
X1743949Y1369975D01*
Y1368975D01*
X1742949Y1367975D01*
X1741949D01*
X1742949D01*
X1743949Y1366976D01*
Y1365976D01*
X1742949Y1364976D01*
X1740950D01*
X1739950Y1365976D01*
X1742949Y1352976D02*
Y1358974D01*
X1739950Y1355975D01*
X1743949D01*
Y1346974D02*
X1739950D01*
Y1343975D01*
X1741949Y1344975D01*
X1742949D01*
X1743949Y1343975D01*
Y1341976D01*
X1742949Y1340976D01*
X1740950D01*
X1739950Y1341976D01*
X1743949Y1334974D02*
X1741949Y1333975D01*
X1739950Y1331975D01*
Y1329976D01*
X1740950Y1328976D01*
X1742949D01*
X1743949Y1329976D01*
Y1330976D01*
X1742949Y1331975D01*
X1739950D01*
Y1322974D02*
X1743949D01*
Y1321975D01*
X1739950Y1317976D01*
Y1316976D01*
Y1406974D02*
Y1400976D01*
X1743949D01*
X1746948Y1404975D02*
X1748947D01*
X1749947Y1403975D01*
Y1400976D01*
X1746948D01*
X1745948Y1401976D01*
X1746948Y1402976D01*
X1749947D01*
X1751946Y1404975D02*
Y1401976D01*
X1752946Y1400976D01*
X1755945D01*
Y1399977D01*
X1754945Y1398977D01*
X1753946D01*
X1755945Y1400976D02*
Y1404975D01*
X1760943Y1400976D02*
X1758944D01*
X1757944Y1401976D01*
Y1403975D01*
X1758944Y1404975D01*
X1760943D01*
X1761943Y1403975D01*
Y1402976D01*
X1757944D01*
X1763942Y1404975D02*
Y1400976D01*
Y1402976D01*
X1764942Y1403975D01*
X1765942Y1404975D01*
X1766941D01*
D101*
X1734447Y1311007D02*
X1734471Y1311030D01*
X1734435Y1304994D02*
X1740471Y1311030D01*
X1734422Y1298982D02*
X1746471Y1311030D01*
X1734410Y1292970D02*
X1752471Y1311030D01*
X1734397Y1286957D02*
X1758471Y1311030D01*
X1734385Y1280945D02*
X1764471Y1311030D01*
X1734373Y1274932D02*
X1770471Y1311030D01*
X1734360Y1268920D02*
X1776471Y1311030D01*
X1734348Y1262908D02*
X1782471Y1311030D01*
X1734335Y1256895D02*
X1788471Y1311030D01*
X1734323Y1250883D02*
X1794471Y1311030D01*
X1734310Y1244870D02*
X1800471Y1311030D01*
X1734298Y1238858D02*
X1806471Y1311030D01*
X1734286Y1232845D02*
X1812471Y1311030D01*
X1734273Y1226833D02*
X1818471Y1311030D01*
X1734261Y1220821D02*
X1824471Y1311030D01*
X1734248Y1214808D02*
X1830471Y1311030D01*
X1734236Y1208796D02*
X1836471Y1311030D01*
X1734223Y1202783D02*
X1842471Y1311030D01*
X1734211Y1196771D02*
X1848471Y1311030D01*
X1734199Y1190758D02*
X1854471Y1311030D01*
X1734186Y1184746D02*
X1860471Y1311030D01*
X1734174Y1178734D02*
X1866471Y1311030D01*
X1734161Y1172721D02*
X1872471Y1311030D01*
X1734149Y1166709D02*
X1878471Y1311030D01*
X1734136Y1160696D02*
X1884471Y1311030D01*
X1734124Y1154684D02*
X1890471Y1311030D01*
X1734112Y1148671D02*
X1896471Y1311030D01*
X1734099Y1142659D02*
X1902471Y1311030D01*
X1734087Y1136646D02*
X1908471Y1311030D01*
X1734074Y1130634D02*
X1914471Y1311030D01*
X1734062Y1124622D02*
X1920471Y1311030D01*
X1734049Y1118609D02*
X1926471Y1311030D01*
X1734037Y1112597D02*
X1932471Y1311030D01*
X1734024Y1106584D02*
X1938471Y1311030D01*
X1734012Y1100572D02*
X1944471Y1311030D01*
X1734000Y1094559D02*
X1950471Y1311030D01*
X1733987Y1088547D02*
X1956471Y1311030D01*
X1733975Y1082535D02*
X1960691Y1309251D01*
X1733962Y1076522D02*
X1960691Y1303251D01*
X1733950Y1070510D02*
X1960691Y1297251D01*
X1739875Y1070435D02*
X1960691Y1291251D01*
X1745875Y1070435D02*
X1960691Y1285251D01*
X1751875Y1070435D02*
X1960691Y1279251D01*
X1757875Y1070435D02*
X1960691Y1273251D01*
X1763875Y1070435D02*
X1960691Y1267251D01*
X1769875Y1070435D02*
X1960691Y1261251D01*
X1775875Y1070435D02*
X1960691Y1255251D01*
X1781875Y1070435D02*
X1960691Y1249251D01*
X1787875Y1070435D02*
X1960691Y1243251D01*
X1793875Y1070435D02*
X1960691Y1237251D01*
X1799875Y1070435D02*
X1960691Y1231251D01*
X1805875Y1070435D02*
X1960691Y1225251D01*
X1807939Y1066499D02*
X1960691Y1219251D01*
X1807939Y1060499D02*
X1960691Y1213251D01*
X1807939Y1054499D02*
X1960691Y1207251D01*
X1807939Y1048499D02*
X1905199Y1145759D01*
X1907842Y1148402D02*
X1960691Y1201251D01*
X1807939Y1042499D02*
X1905199Y1139759D01*
X1913842Y1148402D02*
X1960691Y1195251D01*
X1807939Y1036499D02*
X1905199Y1133759D01*
X1919842Y1148402D02*
X1960691Y1189251D01*
X1807939Y1030499D02*
X1905199Y1127759D01*
X1925842Y1148402D02*
X1960691Y1183251D01*
X1807939Y1024499D02*
X1905199Y1121759D01*
X1931842Y1148402D02*
X1960691Y1177251D01*
X1807939Y1018499D02*
X1905199Y1115759D01*
X1937842Y1148402D02*
X1960691Y1171251D01*
X1811775Y1016335D02*
X1905199Y1109759D01*
X1943842Y1148402D02*
X1960691Y1165251D01*
X1817775Y1016335D02*
X1905199Y1103759D01*
X1949842Y1148402D02*
X1960691Y1159251D01*
X1823775Y1016335D02*
X1907862Y1100422D01*
X1955842Y1148402D02*
X1960691Y1153251D01*
X1829775Y1016335D02*
X1913862Y1100422D01*
X1835775Y1016335D02*
X1919862Y1100422D01*
X1841775Y1016335D02*
X1925862Y1100422D01*
X1847775Y1016335D02*
X1931862Y1100422D01*
X1853775Y1016335D02*
X1937862Y1100422D01*
X1859775Y1016335D02*
X1943862Y1100422D01*
X1865775Y1016335D02*
X1949862Y1100422D01*
X1871775Y1016335D02*
X1955862Y1100422D01*
X1877775Y1016335D02*
X1960890Y1099450D01*
X1883775Y1016335D02*
X1960890Y1093450D01*
X1885608Y1012168D02*
X1960890Y1087450D01*
X1885608Y1006168D02*
X1960890Y1081450D01*
X1885608Y1000168D02*
X1960890Y1075450D01*
X1885608Y0994168D02*
X1960890Y1069450D01*
X1885608Y0988168D02*
X1960890Y1063450D01*
X1885608Y0982168D02*
X1960890Y1057450D01*
X1885608Y0976168D02*
X1960890Y1051450D01*
X1888836Y0973396D02*
X1960890Y1045450D01*
X1894836Y0973396D02*
X1960890Y1039450D01*
X1900836Y0973396D02*
X1960890Y1033450D01*
X1906836Y0973396D02*
X1960890Y1027450D01*
X1912836Y0973396D02*
X1960890Y1021450D01*
X1918836Y0973396D02*
X1960890Y1015450D01*
X1924836Y0973396D02*
X1960890Y1009450D01*
X1930836Y0973396D02*
X1960890Y1003450D01*
X1936836Y0973396D02*
X1960890Y0997450D01*
X1942836Y0973396D02*
X1960890Y0991450D01*
X1948836Y0973396D02*
X1960890Y0985450D01*
X1954836Y0973396D02*
X1960890Y0979450D01*
X2075862Y1394008D02*
X2079830Y1397976D01*
X2075862Y1388008D02*
X2085830Y1397976D01*
X2079830Y1385976D02*
X2091830Y1397976D01*
X2085830Y1385976D02*
X2097830Y1397976D01*
X2091830Y1385976D02*
X2103830Y1397976D01*
X2097830Y1385976D02*
X2109830Y1397976D01*
X2103830Y1385976D02*
X2115830Y1397976D01*
X2109830Y1385976D02*
X2121830Y1397976D01*
X2115830Y1385976D02*
X2127830Y1397976D01*
X2121830Y1385976D02*
X2133830Y1397976D01*
X2127830Y1385976D02*
X2139830Y1397976D01*
X2133830Y1385976D02*
X2145830Y1397976D01*
X2139830Y1385976D02*
X2151830Y1397976D01*
X2145830Y1385976D02*
X2157830Y1397976D01*
X2151830Y1385976D02*
X2163830Y1397976D01*
X2157830Y1385976D02*
X2169830Y1397976D01*
X2163830Y1385976D02*
X2175830Y1397976D01*
X2169830Y1385976D02*
X2181830Y1397976D01*
X2175830Y1385976D02*
X2187830Y1397976D01*
X2181830Y1385976D02*
X2187830Y1391976D01*
X2075862Y1382008D02*
X2079830Y1385976D01*
X2075862Y1376008D02*
X2085830Y1385976D01*
X2079830Y1373976D02*
X2091830Y1385976D01*
X2085830Y1373976D02*
X2097830Y1385976D01*
X2091830Y1373976D02*
X2103830Y1385976D01*
X2097830Y1373976D02*
X2109830Y1385976D01*
X2103830Y1373976D02*
X2115830Y1385976D01*
X2109830Y1373976D02*
X2121830Y1385976D01*
X2115830Y1373976D02*
X2127830Y1385976D01*
X2121830Y1373976D02*
X2133830Y1385976D01*
X2127830Y1373976D02*
X2139830Y1385976D01*
X2133830Y1373976D02*
X2145830Y1385976D01*
X2139830Y1373976D02*
X2151830Y1385976D01*
X2145830Y1373976D02*
X2157830Y1385976D01*
X2151830Y1373976D02*
X2163830Y1385976D01*
X2157830Y1373976D02*
X2169830Y1385976D01*
X2163830Y1373976D02*
X2175830Y1385976D01*
X2169830Y1373976D02*
X2181830Y1385976D01*
X2175830Y1373976D02*
X2187830Y1385976D01*
X2181830Y1373976D02*
X2187830Y1379976D01*
X2075862Y1370008D02*
X2079830Y1373976D01*
X2075862Y1364008D02*
X2085830Y1373976D01*
X2079830Y1361976D02*
X2091830Y1373976D01*
X2085830Y1361976D02*
X2097830Y1373976D01*
X2091830Y1361976D02*
X2103830Y1373976D01*
X2097830Y1361976D02*
X2109830Y1373976D01*
X2103830Y1361976D02*
X2115830Y1373976D01*
X2109830Y1361976D02*
X2121830Y1373976D01*
X2115830Y1361976D02*
X2127830Y1373976D01*
X2121830Y1361976D02*
X2133830Y1373976D01*
X2127830Y1361976D02*
X2139830Y1373976D01*
X2133830Y1361976D02*
X2145830Y1373976D01*
X2139830Y1361976D02*
X2151830Y1373976D01*
X2145830Y1361976D02*
X2157830Y1373976D01*
X2151830Y1361976D02*
X2163830Y1373976D01*
X2157830Y1361976D02*
X2169830Y1373976D01*
X2163830Y1361976D02*
X2175830Y1373976D01*
X2169830Y1361976D02*
X2181830Y1373976D01*
X2175830Y1361976D02*
X2187830Y1373976D01*
X2181830Y1361976D02*
X2187830Y1367976D01*
X2075862Y1358008D02*
X2079830Y1361976D01*
X2075862Y1352008D02*
X2085830Y1361976D01*
X2079830Y1349976D02*
X2091830Y1361976D01*
X2085830Y1349976D02*
X2097830Y1361976D01*
X2091830Y1349976D02*
X2103830Y1361976D01*
X2097830Y1349976D02*
X2109830Y1361976D01*
X2103830Y1349976D02*
X2115830Y1361976D01*
X2109830Y1349976D02*
X2121830Y1361976D01*
X2115830Y1349976D02*
X2127830Y1361976D01*
X2121830Y1349976D02*
X2133830Y1361976D01*
X2127830Y1349976D02*
X2139830Y1361976D01*
X2133830Y1349976D02*
X2145830Y1361976D01*
X2139830Y1349976D02*
X2151830Y1361976D01*
X2145830Y1349976D02*
X2157830Y1361976D01*
X2151830Y1349976D02*
X2163830Y1361976D01*
X2157830Y1349976D02*
X2169830Y1361976D01*
X2163830Y1349976D02*
X2175830Y1361976D01*
X2169830Y1349976D02*
X2181830Y1361976D01*
X2175830Y1349976D02*
X2187830Y1361976D01*
X2181830Y1349976D02*
X2187830Y1355976D01*
X2075862Y1346008D02*
X2079830Y1349976D01*
X2075862Y1340008D02*
X2085830Y1349976D01*
X2079830Y1337976D02*
X2091830Y1349976D01*
X2085830Y1337976D02*
X2097830Y1349976D01*
X2091830Y1337976D02*
X2103830Y1349976D01*
X2097830Y1337976D02*
X2109830Y1349976D01*
X2103830Y1337976D02*
X2115830Y1349976D01*
X2109830Y1337976D02*
X2121830Y1349976D01*
X2115830Y1337976D02*
X2127830Y1349976D01*
X2121830Y1337976D02*
X2133830Y1349976D01*
X2127830Y1337976D02*
X2139830Y1349976D01*
X2133830Y1337976D02*
X2145830Y1349976D01*
X2139830Y1337976D02*
X2151830Y1349976D01*
X2145830Y1337976D02*
X2157830Y1349976D01*
X2151830Y1337976D02*
X2163830Y1349976D01*
X2157830Y1337976D02*
X2169830Y1349976D01*
X2163830Y1337976D02*
X2175830Y1349976D01*
X2169830Y1337976D02*
X2181830Y1349976D01*
X2175830Y1337976D02*
X2187830Y1349976D01*
X2181830Y1337976D02*
X2187830Y1343976D01*
X2075862Y1334008D02*
X2079830Y1337976D01*
X2075862Y1328008D02*
X2085830Y1337976D01*
X2079830Y1325976D02*
X2091830Y1337976D01*
X2085830Y1325976D02*
X2097830Y1337976D01*
X2091830Y1325976D02*
X2103830Y1337976D01*
X2097830Y1325976D02*
X2109830Y1337976D01*
X2103830Y1325976D02*
X2115830Y1337976D01*
X2109830Y1325976D02*
X2121830Y1337976D01*
X2115830Y1325976D02*
X2127830Y1337976D01*
X2121830Y1325976D02*
X2133830Y1337976D01*
X2127830Y1325976D02*
X2139830Y1337976D01*
X2133830Y1325976D02*
X2145830Y1337976D01*
X2139830Y1325976D02*
X2151830Y1337976D01*
X2145830Y1325976D02*
X2157830Y1337976D01*
X2151830Y1325976D02*
X2163830Y1337976D01*
X2157830Y1325976D02*
X2169830Y1337976D01*
X2163830Y1325976D02*
X2175830Y1337976D01*
X2169830Y1325976D02*
X2181830Y1337976D01*
X2175830Y1325976D02*
X2187830Y1337976D01*
X2181830Y1325976D02*
X2187830Y1331976D01*
X2075862Y1322008D02*
X2079830Y1325976D01*
X2075862Y1316008D02*
X2085830Y1325976D01*
X2079830Y1313976D02*
X2091830Y1325976D01*
X2085830Y1313976D02*
X2097830Y1325976D01*
X2091830Y1313976D02*
X2103830Y1325976D01*
X2097830Y1313976D02*
X2109830Y1325976D01*
X2103830Y1313976D02*
X2115830Y1325976D01*
X2109830Y1313976D02*
X2121830Y1325976D01*
X2115830Y1313976D02*
X2127830Y1325976D01*
X2121830Y1313976D02*
X2133830Y1325976D01*
X2127830Y1313976D02*
X2139830Y1325976D01*
X2133830Y1313976D02*
X2145830Y1325976D01*
X2139830Y1313976D02*
X2151830Y1325976D01*
X2145830Y1313976D02*
X2157830Y1325976D01*
X2151830Y1313976D02*
X2163830Y1325976D01*
X2157830Y1313976D02*
X2169830Y1325976D01*
X2163830Y1313976D02*
X2175830Y1325976D01*
X2169830Y1313976D02*
X2181830Y1325976D01*
X2175830Y1313976D02*
X2187830Y1325976D01*
X2181830Y1313976D02*
X2187830Y1319976D01*
M02*
