M48
;Layer_Color=9474304
;FILE_FORMAT=2:5
INCH
;TYPE=PLATED
T1F00S00C0.02500
T2F00S00C0.02800
T3F00S00C0.03543
T4F00S00C0.04500
T5F00S00C0.05906
T6F00S00C0.07874
T7F00S00C0.11900
%
T01
X1619930Y0991840
X1622430Y0997640
X1619930Y1003940
X1613930Y1006640
X1607230Y1003840
X1604530Y0997440
X1607230Y0991640
X1613530Y0988840
X1519530Y1206340
X1522030Y1212140
X1519530Y1218440
X1513530Y1221140
X1506830Y1218340
X1504130Y1211940
X1506830Y1206140
X1513130Y1203340
T02
X1592100Y1166200
X1572400
X1564900Y1200500
X1571700Y1214100
X1597600Y1210300
X1608900Y1230900
X1579700Y1245200
X1554300Y1204000
X1542900
X1541200Y1168100
X1544500Y1124500
X1531000Y1122100
X1531100Y1127500
X1525800Y1127600
X1525600Y1122300
X1520100
X1520000Y1127600
X1524700Y1102400
X1524600Y1097100
X1553700Y1115000
X1490300Y1119200
X1472200Y1123100
X1496400Y1137300
X1498900Y1163100
X1495000Y1253200
Y1258500
X1541100Y1255500
X1548000Y1252000
X1561800Y1257800
X1555800Y1301700
X1564000Y1283200
X1597200Y1282900
X1607800Y1286900
Y1267200
X1589500Y1255400
T03
X1651200Y1183300
X1641200
Y1193300
X1651200
Y1203300
X1641200
Y1213300
X1651200
Y1223300
X1641200
Y1233300
X1651200
Y1243300
X1641200
Y1253300
X1651200
Y1263300
X1641200
Y1273300
X1651200
Y1283300
X1641200
Y1293300
X1651200
Y1303300
X1641200
T04
X1618200Y1184500
X1608200
X1598200
X1588200
X1578200
X1568200
X1624300Y1207500
Y1217500
Y1227500
Y1237500
Y1247500
X1528300Y1249600
Y1239600
X1482900Y1238100
X1472900
X1462900
X1452900
Y1218100
X1462900
X1472900
X1482900
Y1198100
X1472900
X1462900
X1452900
Y1178100
X1462900
X1472900
X1482900
Y1158100
X1472900
X1462900
X1452900
X1452500Y1139500
X1462500
X1472500
X1482500
X1516890Y1184610
X1526890
X1536890
X1546890
X1546990Y1302610
X1536990
X1526990
X1516990
X1503900Y1303000
Y1293000
X1482900Y1298100
X1472900
X1462900
X1452900
Y1278100
X1462900
X1472900
X1482900
Y1258100
X1472900
X1462900
X1452900
X1564990Y1302610
X1574990
X1584990
X1594990
X1608300Y1302700
X1618300
X1628300
X1624300Y1287500
Y1277500
Y1267500
Y1257500
T05
X1482400Y1094460
Y1114260
T06
X1471600Y1096560
Y1111860
T07
X1613487Y0997739
X1513094Y1212306
M30
